<svg class="main-svg" xmlns="http://www.w3.org/2000/svg" xmlns:xlink="http://www.w3.org/1999/xlink" width="400" height="275" viewBox="0 0 400 275"><rect x="0" y="0" width="400" height="275" style="fill: rgb(255, 255, 255); fill-opacity: 1;"/><defs id="defs-631ba6"><g class="clips"><clipPath id="clip631ba6xyplot" class="plotclip"><rect width="227" height="180"/></clipPath><clipPath class="axesclip" id="clip631ba6x"><rect x="70" y="0" width="227" height="275"/></clipPath><clipPath class="axesclip" id="clip631ba6y"><rect x="0" y="20" width="400" height="180"/></clipPath><clipPath class="axesclip" id="clip631ba6xy"><rect x="70" y="20" width="227" height="180"/></clipPath></g><g class="gradients"/></defs><g class="bglayer"><rect class="bg" x="70" y="20" width="227" height="180" style="fill: rgb(1, 1, 1); fill-opacity: 0.1; stroke-width: 0;"/></g><g class="layer-below"><g class="imagelayer"/><g class="shapelayer"/></g><g class="cartesianlayer"><g class="subplot xy"><g class="layer-subplot"><g class="shapelayer"/><g class="imagelayer"/></g><g class="gridlayer"><g class="x"/><g class="y"><path class="ygrid crisp" transform="translate(0,182.86)" d="M70,0h227" style="stroke: rgb(255, 255, 255); stroke-opacity: 1; stroke-width: 1px;"/><path class="ygrid crisp" transform="translate(0,148.57)" d="M70,0h227" style="stroke: rgb(255, 255, 255); stroke-opacity: 1; stroke-width: 1px;"/><path class="ygrid crisp" transform="translate(0,114.29)" d="M70,0h227" style="stroke: rgb(255, 255, 255); stroke-opacity: 1; stroke-width: 1px;"/><path class="ygrid crisp" transform="translate(0,45.71)" d="M70,0h227" style="stroke: rgb(255, 255, 255); stroke-opacity: 1; stroke-width: 1px;"/></g></g><g class="zerolinelayer"><path class="yzl zl crisp" transform="translate(0,80)" d="M70,0h227" style="stroke: rgb(255, 255, 255); stroke-opacity: 1; stroke-width: 1px;"/></g><path class="xlines-below"/><path class="ylines-below"/><g class="overlines-below"/><g class="xaxislayer-below"/><g class="yaxislayer-below"/><g class="overaxes-below"/><g class="plot" transform="translate(70, 20)" clip-path="url('#clip631ba6xyplot')"><g class="barlayer mlayer"><g class="trace bars" style="opacity: 1;"><g class="points"><g class="point"><path d="M4.54,60V54.4H16.65V60Z" style="vector-effect: non-scaling-stroke; opacity: 1; stroke-width: 1.5px; fill: rgb(66, 65, 65); fill-opacity: 1; stroke: rgb(16, 16, 16); stroke-opacity: 1;"/></g><g class="point"><path d="M186.14,60V99.07H198.25V60Z" style="vector-effect: non-scaling-stroke; opacity: 1; stroke-width: 1.5px; fill: rgb(66, 65, 65); fill-opacity: 1; stroke: rgb(16, 16, 16); stroke-opacity: 1;"/></g><g class="point"><path d="M140.74,60V105.49H152.85V60Z" style="vector-effect: non-scaling-stroke; opacity: 1; stroke-width: 1.5px; fill: rgb(66, 65, 65); fill-opacity: 1; stroke: rgb(16, 16, 16); stroke-opacity: 1;"/></g><g class="point"><path d="M49.94,60V110.43H62.05V60Z" style="vector-effect: non-scaling-stroke; opacity: 1; stroke-width: 1.5px; fill: rgb(66, 65, 65); fill-opacity: 1; stroke: rgb(16, 16, 16); stroke-opacity: 1;"/></g><g class="point"><path d="M95.34,60V86.99H107.45V60Z" style="vector-effect: non-scaling-stroke; opacity: 1; stroke-width: 1.5px; fill: rgb(66, 65, 65); fill-opacity: 1; stroke: rgb(16, 16, 16); stroke-opacity: 1;"/></g></g><g class="errorbar"><path class="yerror" d="M6.59,42.12h8m-4,0V66.67m-4,0h8" style="vector-effect: non-scaling-stroke; stroke-width: 1.5px; stroke: rgb(16, 16, 16); stroke-opacity: 1;"/></g><g class="errorbar"><path class="yerror" d="M188.19,86.14h8m-4,0V112m-4,0h8" style="vector-effect: non-scaling-stroke; stroke-width: 1.5px; stroke: rgb(16, 16, 16); stroke-opacity: 1;"/></g><g class="errorbar"><path class="yerror" d="M142.79,92.66h8m-4,0V118.32m-4,0h8" style="vector-effect: non-scaling-stroke; stroke-width: 1.5px; stroke: rgb(16, 16, 16); stroke-opacity: 1;"/></g><g class="errorbar"><path class="yerror" d="M51.99,96.52h8m-4,0V124.35m-4,0h8" style="vector-effect: non-scaling-stroke; stroke-width: 1.5px; stroke: rgb(16, 16, 16); stroke-opacity: 1;"/></g><g class="errorbar"><path class="yerror" d="M97.39,74.63h8m-4,0V99.35m-4,0h8" style="vector-effect: non-scaling-stroke; stroke-width: 1.5px; stroke: rgb(16, 16, 16); stroke-opacity: 1;"/></g></g><g class="trace bars" style="opacity: 1;"><g class="points"><g class="point"><path d="M16.65,60V49.34H28.75V60Z" style="vector-effect: non-scaling-stroke; opacity: 1; stroke-width: 1.5px; fill: rgb(149, 149, 148); fill-opacity: 1; stroke: rgb(16, 16, 16); stroke-opacity: 1;"/></g><g class="point"><path d="M198.25,60V84.78H210.35V60Z" style="vector-effect: non-scaling-stroke; opacity: 1; stroke-width: 1.5px; fill: rgb(149, 149, 148); fill-opacity: 1; stroke: rgb(16, 16, 16); stroke-opacity: 1;"/></g><g class="point"><path d="M152.85,60V114.41H164.95V60Z" style="vector-effect: non-scaling-stroke; opacity: 1; stroke-width: 1.5px; fill: rgb(149, 149, 148); fill-opacity: 1; stroke: rgb(16, 16, 16); stroke-opacity: 1;"/></g><g class="point"><path d="M62.05,60V84.03H74.15V60Z" style="vector-effect: non-scaling-stroke; opacity: 1; stroke-width: 1.5px; fill: rgb(149, 149, 148); fill-opacity: 1; stroke: rgb(16, 16, 16); stroke-opacity: 1;"/></g><g class="point"><path d="M107.45,60V98.32H119.55V60Z" style="vector-effect: non-scaling-stroke; opacity: 1; stroke-width: 1.5px; fill: rgb(149, 149, 148); fill-opacity: 1; stroke: rgb(16, 16, 16); stroke-opacity: 1;"/></g></g><g class="errorbar"><path class="yerror" d="M18.7,37.4h8m-4,0V61.27m-4,0h8" style="vector-effect: non-scaling-stroke; stroke-width: 1.5px; stroke: rgb(16, 16, 16); stroke-opacity: 1;"/></g><g class="errorbar"><path class="yerror" d="M200.3,73.57h8m-4,0V95.99m-4,0h8" style="vector-effect: non-scaling-stroke; stroke-width: 1.5px; stroke: rgb(16, 16, 16); stroke-opacity: 1;"/></g><g class="errorbar"><path class="yerror" d="M154.9,101.01h8m-4,0V127.81m-4,0h8" style="vector-effect: non-scaling-stroke; stroke-width: 1.5px; stroke: rgb(16, 16, 16); stroke-opacity: 1;"/></g><g class="errorbar"><path class="yerror" d="M64.1,70.89h8m-4,0V97.16m-4,0h8" style="vector-effect: non-scaling-stroke; stroke-width: 1.5px; stroke: rgb(16, 16, 16); stroke-opacity: 1;"/></g><g class="errorbar"><path class="yerror" d="M109.5,85.15h8m-4,0V111.5m-4,0h8" style="vector-effect: non-scaling-stroke; stroke-width: 1.5px; stroke: rgb(16, 16, 16); stroke-opacity: 1;"/></g></g><g class="trace bars" style="opacity: 1;"><g class="points"><g class="point"><path d="M28.75,60V51.13H40.86V60Z" style="vector-effect: non-scaling-stroke; opacity: 1; stroke-width: 1.5px; fill: rgb(251, 251, 250); fill-opacity: 1; stroke: rgb(16, 16, 16); stroke-opacity: 1;"/></g><g class="point"><path d="M210.35,60V75.44H222.46V60Z" style="vector-effect: non-scaling-stroke; opacity: 1; stroke-width: 1.5px; fill: rgb(251, 251, 250); fill-opacity: 1; stroke: rgb(16, 16, 16); stroke-opacity: 1;"/></g><g class="point"><path d="M164.95,60V111.7H177.06V60Z" style="vector-effect: non-scaling-stroke; opacity: 1; stroke-width: 1.5px; fill: rgb(251, 251, 250); fill-opacity: 1; stroke: rgb(16, 16, 16); stroke-opacity: 1;"/></g><g class="point"><path d="M74.15,60V80.03H86.26V60Z" style="vector-effect: non-scaling-stroke; opacity: 1; stroke-width: 1.5px; fill: rgb(251, 251, 250); fill-opacity: 1; stroke: rgb(16, 16, 16); stroke-opacity: 1;"/></g><g class="point"><path d="M119.55,60V82.85H131.66V60Z" style="vector-effect: non-scaling-stroke; opacity: 1; stroke-width: 1.5px; fill: rgb(251, 251, 250); fill-opacity: 1; stroke: rgb(16, 16, 16); stroke-opacity: 1;"/></g></g><g class="errorbar"><path class="yerror" d="M30.810000000000002,40.18h8m-4,0V62.08m-4,0h8" style="vector-effect: non-scaling-stroke; stroke-width: 1.5px; stroke: rgb(16, 16, 16); stroke-opacity: 1;"/></g><g class="errorbar"><path class="yerror" d="M212.41,64.31h8m-4,0V86.57m-4,0h8" style="vector-effect: non-scaling-stroke; stroke-width: 1.5px; stroke: rgb(16, 16, 16); stroke-opacity: 1;"/></g><g class="errorbar"><path class="yerror" d="M167.01,99.92h8m-4,0V123.47m-4,0h8" style="vector-effect: non-scaling-stroke; stroke-width: 1.5px; stroke: rgb(16, 16, 16); stroke-opacity: 1;"/></g><g class="errorbar"><path class="yerror" d="M76.21,67.49h8m-4,0V92.58m-4,0h8" style="vector-effect: non-scaling-stroke; stroke-width: 1.5px; stroke: rgb(16, 16, 16); stroke-opacity: 1;"/></g><g class="errorbar"><path class="yerror" d="M121.61,69.8h8m-4,0V95.91m-4,0h8" style="vector-effect: non-scaling-stroke; stroke-width: 1.5px; stroke: rgb(16, 16, 16); stroke-opacity: 1;"/></g></g></g></g><g class="overplot"/><path class="xlines-above crisp" d="M0,0" style="fill: none;"/><path class="ylines-above crisp" d="M0,0" style="fill: none;"/><g class="overlines-above"/><g class="xaxislayer-above"><g class="xtick"><text text-anchor="start" x="0" y="211" transform="translate(92.7,0) rotate(30,0,206)" style="font-family: sans-serif; font-size: 10px; fill: rgb(68, 68, 68); fill-opacity: 1; white-space: pre;">STM</text></g><g class="xtick"><text text-anchor="start" x="0" y="211" transform="translate(138.1,0) rotate(30,0,206)" style="font-family: sans-serif; font-size: 10px; fill: rgb(68, 68, 68); fill-opacity: 1; white-space: pre;">reasoning</text></g><g class="xtick"><text text-anchor="start" x="0" y="211" transform="translate(183.5,0) rotate(30,0,206)" style="font-family: sans-serif; font-size: 10px; fill: rgb(68, 68, 68); fill-opacity: 1; white-space: pre;">verbal</text></g><g class="xtick"><text text-anchor="start" x="0" y="211" transform="translate(228.9,0) rotate(30,0,206)" style="font-family: sans-serif; font-size: 10px; fill: rgb(68, 68, 68); fill-opacity: 1; white-space: pre;">processing_speed</text></g><g class="xtick"><text text-anchor="start" x="0" y="211" transform="translate(274.3,0) rotate(30,0,206)" style="font-family: sans-serif; font-size: 10px; fill: rgb(68, 68, 68); fill-opacity: 1; white-space: pre;">overall</text></g></g><g class="yaxislayer-above"><g class="ytick"><text text-anchor="end" x="69" y="3.5" transform="translate(0,182.86)" style="font-family: sans-serif; font-size: 10px; fill: rgb(68, 68, 68); fill-opacity: 1; white-space: pre;">−0.6</text></g><g class="ytick"><text text-anchor="end" x="69" y="3.5" transform="translate(0,148.57)" style="font-family: sans-serif; font-size: 10px; fill: rgb(68, 68, 68); fill-opacity: 1; white-space: pre;">−0.4</text></g><g class="ytick"><text text-anchor="end" x="69" y="3.5" transform="translate(0,114.29)" style="font-family: sans-serif; font-size: 10px; fill: rgb(68, 68, 68); fill-opacity: 1; white-space: pre;">−0.2</text></g><g class="ytick"><text text-anchor="end" x="69" y="3.5" transform="translate(0,80)" style="font-family: sans-serif; font-size: 10px; fill: rgb(68, 68, 68); fill-opacity: 1; white-space: pre;">0</text></g><g class="ytick"><text text-anchor="end" x="69" y="3.5" transform="translate(0,45.71)" style="font-family: sans-serif; font-size: 10px; fill: rgb(68, 68, 68); fill-opacity: 1; white-space: pre;">0.2</text></g></g><g class="overaxes-above"/></g></g><g class="polarlayer"/><g class="ternarylayer"/><g class="geolayer"/><g class="funnelarealayer"/><g class="pielayer"/><g class="treemaplayer"/><g class="sunburstlayer"/><g class="glimages"/><defs id="topdefs-631ba6"><g class="clips"/><clipPath id="legend631ba6"><rect width="86" height="80" x="0" y="0"/></clipPath></defs><g class="layer-above"><g class="imagelayer"/><g class="shapelayer"/></g><g class="infolayer"><g class="legend" pointer-events="all" transform="translate(301.53999999999996, 20)"><rect class="bg" shape-rendering="crispEdges" style="stroke: rgb(68, 68, 68); stroke-opacity: 1; fill: rgb(255, 255, 255); fill-opacity: 1; stroke-width: 0px;" width="86" height="80" x="0" y="0"/><g class="scrollbox" transform="translate(0, 0)" clip-path="url('#legend631ba6')"><text class="legendtitletext user-select-none" text-anchor="start" x="2" y="13" style="font-family: sans-serif; font-size: 10px; fill: rgb(68, 68, 68); fill-opacity: 1; white-space: pre;">F2 (mental health)</text><g class="groups"><g class="traces" transform="translate(0, 27.5)" style="opacity: 1;"><text class="legendtext user-select-none" text-anchor="start" x="40" y="3.9" style="font-family: sans-serif; font-size: 10px; fill: rgb(68, 68, 68); fill-opacity: 1; white-space: pre;">better</text><g class="layers" style="opacity: 1;"><g class="legendfill"/><g class="legendlines"/><g class="legendsymbols"><g class="legendpoints"><path class="legendundefined" d="M6,6H-6V-6H6Z" transform="translate(20,0)" style="stroke-width: 1.5px; fill: rgb(251, 251, 250); fill-opacity: 1; stroke: rgb(16, 16, 16); stroke-opacity: 1;"/></g></g></g><rect class="legendtoggle" pointer-events="all" x="0" y="-9.5" width="76.125" height="19" style="cursor: pointer; fill: rgb(0, 0, 0); fill-opacity: 0;"/></g><g class="traces" transform="translate(0, 46.5)" style="opacity: 1;"><text class="legendtext user-select-none" text-anchor="start" x="40" y="3.9" style="font-family: sans-serif; font-size: 10px; fill: rgb(68, 68, 68); fill-opacity: 1; white-space: pre;">average</text><g class="layers" style="opacity: 1;"><g class="legendfill"/><g class="legendlines"/><g class="legendsymbols"><g class="legendpoints"><path class="legendundefined" d="M6,6H-6V-6H6Z" transform="translate(20,0)" style="stroke-width: 1.5px; fill: rgb(149, 149, 148); fill-opacity: 1; stroke: rgb(16, 16, 16); stroke-opacity: 1;"/></g></g></g><rect class="legendtoggle" pointer-events="all" x="0" y="-9.5" width="76.125" height="19" style="cursor: pointer; fill: rgb(0, 0, 0); fill-opacity: 0;"/></g><g class="traces" transform="translate(0, 65.5)" style="opacity: 1;"><text class="legendtext user-select-none" text-anchor="start" x="40" y="3.9" style="font-family: sans-serif; font-size: 10px; fill: rgb(68, 68, 68); fill-opacity: 1; white-space: pre;">worse</text><g class="layers" style="opacity: 1;"><g class="legendfill"/><g class="legendlines"/><g class="legendsymbols"><g class="legendpoints"><path class="legendundefined" d="M6,6H-6V-6H6Z" transform="translate(20,0)" style="stroke-width: 1.5px; fill: rgb(66, 65, 65); fill-opacity: 1; stroke: rgb(16, 16, 16); stroke-opacity: 1;"/></g></g></g><rect class="legendtoggle" pointer-events="all" x="0" y="-9.5" width="76.125" height="19" style="cursor: pointer; fill: rgb(0, 0, 0); fill-opacity: 0;"/></g></g></g><rect class="scrollbar" rx="20" ry="3" width="0" height="0" x="0" y="0" style="fill: rgb(128, 139, 164); fill-opacity: 1;"/></g><g class="g-gtitle"/><g class="g-xtitle"/><g class="g-ytitle"><text class="ytitle" transform="rotate(-90,36,110)" x="36" y="110" text-anchor="middle" style="font-family: sans-serif; font-size: 12px; fill: rgb(68, 68, 68); opacity: 1; font-weight: normal; white-space: pre;">SD Units</text></g></g></svg>