<svg class="main-svg" xmlns="http://www.w3.org/2000/svg" xmlns:xlink="http://www.w3.org/1999/xlink" width="475" height="350" viewBox="0 0 475 350"><rect x="0" y="0" width="475" height="350" style="fill: rgb(255, 255, 255); fill-opacity: 1;"/><defs id="defs-6d7cd0"><g class="clips"><clipPath id="clip6d7cd0xyplot" class="plotclip"><rect width="267" height="244"/></clipPath><clipPath class="axesclip" id="clip6d7cd0x"><rect x="143" y="0" width="267" height="350"/></clipPath><clipPath class="axesclip" id="clip6d7cd0y"><rect x="0" y="20" width="475" height="244"/></clipPath><clipPath class="axesclip" id="clip6d7cd0xy"><rect x="143" y="20" width="267" height="244"/></clipPath></g><g class="gradients"><linearGradient x1="0" x2="0" y1="1" y2="0" id="g6d7cd0-cbcoloraxis"><stop offset="0%" stop-color="rgb(0, 0, 255)" stop-opacity="1"/><stop offset="10%" stop-color="rgb(51, 153, 255)" stop-opacity="1"/><stop offset="20%" stop-color="rgb(102, 204, 255)" stop-opacity="1"/><stop offset="30%" stop-color="rgb(153, 204, 255)" stop-opacity="1"/><stop offset="40%" stop-color="rgb(204, 204, 255)" stop-opacity="1"/><stop offset="50%" stop-color="rgb(255, 255, 255)" stop-opacity="1"/><stop offset="60%" stop-color="rgb(255, 204, 255)" stop-opacity="1"/><stop offset="70%" stop-color="rgb(255, 153, 255)" stop-opacity="1"/><stop offset="80%" stop-color="rgb(255, 102, 204)" stop-opacity="1"/><stop offset="90%" stop-color="rgb(255, 102, 102)" stop-opacity="1"/><stop offset="100%" stop-color="rgb(255, 0, 0)" stop-opacity="1"/></linearGradient></g></defs><g class="bglayer"><rect class="bg" x="143" y="20" width="267" height="244" style="fill: rgb(229, 236, 246); fill-opacity: 1; stroke-width: 0;"/></g><g class="layer-below"><g class="imagelayer"/><g class="shapelayer"/></g><g class="cartesianlayer"><g class="subplot xy"><g class="layer-subplot"><g class="shapelayer"/><g class="imagelayer"/></g><g class="gridlayer"><g class="x"><path class="xgrid crisp" transform="translate(172.16,0)" d="M0,20v244" style="stroke: rgb(255, 255, 255); stroke-opacity: 1; stroke-width: 1px;"/><path class="xgrid crisp" transform="translate(193.88,0)" d="M0,20v244" style="stroke: rgb(255, 255, 255); stroke-opacity: 1; stroke-width: 1px;"/><path class="xgrid crisp" transform="translate(215.6,0)" d="M0,20v244" style="stroke: rgb(255, 255, 255); stroke-opacity: 1; stroke-width: 1px;"/><path class="xgrid crisp" transform="translate(237.32,0)" d="M0,20v244" style="stroke: rgb(255, 255, 255); stroke-opacity: 1; stroke-width: 1px;"/><path class="xgrid crisp" transform="translate(259.03,0)" d="M0,20v244" style="stroke: rgb(255, 255, 255); stroke-opacity: 1; stroke-width: 1px;"/><path class="xgrid crisp" transform="translate(280.75,0)" d="M0,20v244" style="stroke: rgb(255, 255, 255); stroke-opacity: 1; stroke-width: 1px;"/><path class="xgrid crisp" transform="translate(302.47,0)" d="M0,20v244" style="stroke: rgb(255, 255, 255); stroke-opacity: 1; stroke-width: 1px;"/><path class="xgrid crisp" transform="translate(324.19,0)" d="M0,20v244" style="stroke: rgb(255, 255, 255); stroke-opacity: 1; stroke-width: 1px;"/><path class="xgrid crisp" transform="translate(345.90999999999997,0)" d="M0,20v244" style="stroke: rgb(255, 255, 255); stroke-opacity: 1; stroke-width: 1px;"/><path class="xgrid crisp" transform="translate(367.62,0)" d="M0,20v244" style="stroke: rgb(255, 255, 255); stroke-opacity: 1; stroke-width: 1px;"/><path class="xgrid crisp" transform="translate(389.34000000000003,0)" d="M0,20v244" style="stroke: rgb(255, 255, 255); stroke-opacity: 1; stroke-width: 1px;"/></g><g class="y"><path class="ygrid crisp" transform="translate(0,235.99)" d="M143,0h267" style="stroke: rgb(255, 255, 255); stroke-opacity: 1; stroke-width: 1px;"/><path class="ygrid crisp" transform="translate(0,216.34)" d="M143,0h267" style="stroke: rgb(255, 255, 255); stroke-opacity: 1; stroke-width: 1px;"/><path class="ygrid crisp" transform="translate(0,196.69)" d="M143,0h267" style="stroke: rgb(255, 255, 255); stroke-opacity: 1; stroke-width: 1px;"/><path class="ygrid crisp" transform="translate(0,177.04)" d="M143,0h267" style="stroke: rgb(255, 255, 255); stroke-opacity: 1; stroke-width: 1px;"/><path class="ygrid crisp" transform="translate(0,157.4)" d="M143,0h267" style="stroke: rgb(255, 255, 255); stroke-opacity: 1; stroke-width: 1px;"/><path class="ygrid crisp" transform="translate(0,137.75)" d="M143,0h267" style="stroke: rgb(255, 255, 255); stroke-opacity: 1; stroke-width: 1px;"/><path class="ygrid crisp" transform="translate(0,118.1)" d="M143,0h267" style="stroke: rgb(255, 255, 255); stroke-opacity: 1; stroke-width: 1px;"/><path class="ygrid crisp" transform="translate(0,98.45)" d="M143,0h267" style="stroke: rgb(255, 255, 255); stroke-opacity: 1; stroke-width: 1px;"/><path class="ygrid crisp" transform="translate(0,78.8)" d="M143,0h267" style="stroke: rgb(255, 255, 255); stroke-opacity: 1; stroke-width: 1px;"/><path class="ygrid crisp" transform="translate(0,59.16)" d="M143,0h267" style="stroke: rgb(255, 255, 255); stroke-opacity: 1; stroke-width: 1px;"/><path class="ygrid crisp" transform="translate(0,39.510000000000005)" d="M143,0h267" style="stroke: rgb(255, 255, 255); stroke-opacity: 1; stroke-width: 1px;"/></g></g><g class="zerolinelayer"/><path class="xlines-below"/><path class="ylines-below"/><g class="overlines-below"/><g class="xaxislayer-below"/><g class="yaxislayer-below"/><g class="overaxes-below"/><g class="plot" transform="translate(143, 20)" clip-path="url('#clip6d7cd0xyplot')"><g class="scatterlayer mlayer"><g class="trace scatter trace4574f0" style="stroke-miterlimit: 2; opacity: 1;"><g class="fills"/><g class="errorbars"/><g class="lines"/><g class="points"><path class="point" transform="translate(29.16,215.99)" d="M0,0A0,0 0 1,1 0,-0A0,0 0 0,1 0,0Z" style="opacity: 1; stroke-width: 1px; fill: rgb(255, 255, 255); fill-opacity: 1; stroke: rgb(255, 255, 255); stroke-opacity: 1;"/><path class="point" transform="translate(29.16,196.34)" d="M14.14,0A14.14,14.14 0 1,1 0,-14.14A14.14,14.14 0 0,1 14.14,0Z" style="opacity: 1; stroke-width: 1px; fill: rgb(255, 102, 170); fill-opacity: 1; stroke: rgb(255, 255, 255); stroke-opacity: 1;"/><path class="point" transform="translate(29.16,176.69)" d="M7.14,0A7.14,7.14 0 1,1 0,-7.14A7.14,7.14 0 0,1 7.14,0Z" style="opacity: 1; stroke-width: 1px; fill: rgb(255, 212, 255); fill-opacity: 1; stroke: rgb(255, 255, 255); stroke-opacity: 1;"/><path class="point" transform="translate(29.16,157.04)" d="M14.07,0A14.07,14.07 0 1,1 0,-14.07A14.07,14.07 0 0,1 14.07,0Z" style="opacity: 1; stroke-width: 1px; fill: rgb(255, 102, 173); fill-opacity: 1; stroke: rgb(255, 255, 255); stroke-opacity: 1;"/><path class="point" transform="translate(29.16,137.4)" d="M14.14,0A14.14,14.14 0 1,1 0,-14.14A14.14,14.14 0 0,1 14.14,0Z" style="opacity: 1; stroke-width: 1px; fill: rgb(255, 102, 169); fill-opacity: 1; stroke: rgb(255, 255, 255); stroke-opacity: 1;"/><path class="point" transform="translate(29.16,117.75)" d="M7.58,0A7.58,7.58 0 1,1 0,-7.58A7.58,7.58 0 0,1 7.58,0Z" style="opacity: 1; stroke-width: 1px; fill: rgb(255, 206, 255); fill-opacity: 1; stroke: rgb(255, 255, 255); stroke-opacity: 1;"/><path class="point" transform="translate(29.16,98.1)" d="M10.28,0A10.28,10.28 0 1,1 0,-10.28A10.28,10.28 0 0,1 10.28,0Z" style="opacity: 1; stroke-width: 1px; fill: rgb(255, 165, 255); fill-opacity: 1; stroke: rgb(255, 255, 255); stroke-opacity: 1;"/><path class="point" transform="translate(29.16,78.45)" d="M11.64,0A11.64,11.64 0 1,1 0,-11.64A11.64,11.64 0 0,1 11.64,0Z" style="opacity: 1; stroke-width: 1px; fill: rgb(255, 140, 242); fill-opacity: 1; stroke: rgb(255, 255, 255); stroke-opacity: 1;"/><path class="point" transform="translate(29.16,58.8)" d="M11.51,0A11.51,11.51 0 1,1 0,-11.51A11.51,11.51 0 0,1 11.51,0Z" style="opacity: 1; stroke-width: 1px; fill: rgb(255, 142, 244); fill-opacity: 1; stroke: rgb(255, 255, 255); stroke-opacity: 1;"/><path class="point" transform="translate(29.16,39.16)" d="M10.71,0A10.71,10.71 0 1,1 0,-10.71A10.71,10.71 0 0,1 10.71,0Z" style="opacity: 1; stroke-width: 1px; fill: rgb(157, 204, 255); fill-opacity: 1; stroke: rgb(255, 255, 255); stroke-opacity: 1;"/><path class="point" transform="translate(29.16,19.51)" d="M1.66,0A1.66,1.66 0 1,1 0,-1.66A1.66,1.66 0 0,1 1.66,0Z" style="opacity: 1; stroke-width: 1px; fill: rgb(253, 253, 255); fill-opacity: 1; stroke: rgb(255, 255, 255); stroke-opacity: 1;"/><path class="point" transform="translate(50.88,215.99)" d="M14.14,0A14.14,14.14 0 1,1 0,-14.14A14.14,14.14 0 0,1 14.14,0Z" style="opacity: 1; stroke-width: 1px; fill: rgb(255, 102, 170); fill-opacity: 1; stroke: rgb(255, 255, 255); stroke-opacity: 1;"/><path class="point" transform="translate(50.88,196.34)" d="M0,0A0,0 0 1,1 0,-0A0,0 0 0,1 0,0Z" style="opacity: 1; stroke-width: 1px; fill: rgb(255, 255, 255); fill-opacity: 1; stroke: rgb(255, 255, 255); stroke-opacity: 1;"/><path class="point" transform="translate(50.88,176.69)" d="M9.25,0A9.25,9.25 0 1,1 0,-9.25A9.25,9.25 0 0,1 9.25,0Z" style="opacity: 1; stroke-width: 1px; fill: rgb(255, 182, 255); fill-opacity: 1; stroke: rgb(255, 255, 255); stroke-opacity: 1;"/><path class="point" transform="translate(50.88,157.04)" d="M13.9,0A13.9,13.9 0 1,1 0,-13.9A13.9,13.9 0 0,1 13.9,0Z" style="opacity: 1; stroke-width: 1px; fill: rgb(255, 102, 181); fill-opacity: 1; stroke: rgb(255, 255, 255); stroke-opacity: 1;"/><path class="point" transform="translate(50.88,137.4)" d="M13.02,0A13.02,13.02 0 1,1 0,-13.02A13.02,13.02 0 0,1 13.02,0Z" style="opacity: 1; stroke-width: 1px; fill: rgb(255, 111, 213); fill-opacity: 1; stroke: rgb(255, 255, 255); stroke-opacity: 1;"/><path class="point" transform="translate(50.88,117.75)" d="M8.73,0A8.73,8.73 0 1,1 0,-8.73A8.73,8.73 0 0,1 8.73,0Z" style="opacity: 1; stroke-width: 1px; fill: rgb(255, 190, 255); fill-opacity: 1; stroke: rgb(255, 255, 255); stroke-opacity: 1;"/><path class="point" transform="translate(50.88,98.1)" d="M10.23,0A10.23,10.23 0 1,1 0,-10.23A10.23,10.23 0 0,1 10.23,0Z" style="opacity: 1; stroke-width: 1px; fill: rgb(255, 166, 255); fill-opacity: 1; stroke: rgb(255, 255, 255); stroke-opacity: 1;"/><path class="point" transform="translate(50.88,78.45)" d="M11.35,0A11.35,11.35 0 1,1 0,-11.35A11.35,11.35 0 0,1 11.35,0Z" style="opacity: 1; stroke-width: 1px; fill: rgb(255, 145, 247); fill-opacity: 1; stroke: rgb(255, 255, 255); stroke-opacity: 1;"/><path class="point" transform="translate(50.88,58.8)" d="M12.56,0A12.56,12.56 0 1,1 0,-12.56A12.56,12.56 0 0,1 12.56,0Z" style="opacity: 1; stroke-width: 1px; fill: rgb(255, 121, 223); fill-opacity: 1; stroke: rgb(255, 255, 255); stroke-opacity: 1;"/><path class="point" transform="translate(50.88,39.16)" d="M10.58,0A10.58,10.58 0 1,1 0,-10.58A10.58,10.58 0 0,1 10.58,0Z" style="opacity: 1; stroke-width: 1px; fill: rgb(160, 204, 255); fill-opacity: 1; stroke: rgb(255, 255, 255); stroke-opacity: 1;"/><path class="point" transform="translate(50.88,19.51)" d="M4.89,0A4.89,4.89 0 1,1 0,-4.89A4.89,4.89 0 0,1 4.89,0Z" style="opacity: 1; stroke-width: 1px; fill: rgb(255, 235, 255); fill-opacity: 1; stroke: rgb(255, 255, 255); stroke-opacity: 1;"/><path class="point" transform="translate(72.6,215.99)" d="M7.14,0A7.14,7.14 0 1,1 0,-7.14A7.14,7.14 0 0,1 7.14,0Z" style="opacity: 1; stroke-width: 1px; fill: rgb(255, 212, 255); fill-opacity: 1; stroke: rgb(255, 255, 255); stroke-opacity: 1;"/><path class="point" transform="translate(72.6,196.34)" d="M9.25,0A9.25,9.25 0 1,1 0,-9.25A9.25,9.25 0 0,1 9.25,0Z" style="opacity: 1; stroke-width: 1px; fill: rgb(255, 182, 255); fill-opacity: 1; stroke: rgb(255, 255, 255); stroke-opacity: 1;"/><path class="point" transform="translate(72.6,176.69)" d="M0,0A0,0 0 1,1 0,-0A0,0 0 0,1 0,0Z" style="opacity: 1; stroke-width: 1px; fill: rgb(255, 255, 255); fill-opacity: 1; stroke: rgb(255, 255, 255); stroke-opacity: 1;"/><path class="point" transform="translate(72.6,157.04)" d="M10.49,0A10.49,10.49 0 1,1 0,-10.49A10.49,10.49 0 0,1 10.49,0Z" style="opacity: 1; stroke-width: 1px; fill: rgb(255, 161, 255); fill-opacity: 1; stroke: rgb(255, 255, 255); stroke-opacity: 1;"/><path class="point" transform="translate(72.6,137.4)" d="M8.4,0A8.4,8.4 0 1,1 0,-8.4A8.4,8.4 0 0,1 8.4,0Z" style="opacity: 1; stroke-width: 1px; fill: rgb(255, 195, 255); fill-opacity: 1; stroke: rgb(255, 255, 255); stroke-opacity: 1;"/><path class="point" transform="translate(72.6,117.75)" d="M12.45,0A12.45,12.45 0 1,1 0,-12.45A12.45,12.45 0 0,1 12.45,0Z" style="opacity: 1; stroke-width: 1px; fill: rgb(255, 123, 225); fill-opacity: 1; stroke: rgb(255, 255, 255); stroke-opacity: 1;"/><path class="point" transform="translate(72.6,98.1)" d="M12.6,0A12.6,12.6 0 1,1 0,-12.6A12.6,12.6 0 0,1 12.6,0Z" style="opacity: 1; stroke-width: 1px; fill: rgb(255, 120, 222); fill-opacity: 1; stroke: rgb(255, 255, 255); stroke-opacity: 1;"/><path class="point" transform="translate(72.6,78.45)" d="M9.26,0A9.26,9.26 0 1,1 0,-9.26A9.26,9.26 0 0,1 9.26,0Z" style="opacity: 1; stroke-width: 1px; fill: rgb(255, 182, 255); fill-opacity: 1; stroke: rgb(255, 255, 255); stroke-opacity: 1;"/><path class="point" transform="translate(72.6,58.8)" d="M10.01,0A10.01,10.01 0 1,1 0,-10.01A10.01,10.01 0 0,1 10.01,0Z" style="opacity: 1; stroke-width: 1px; fill: rgb(255, 170, 255); fill-opacity: 1; stroke: rgb(255, 255, 255); stroke-opacity: 1;"/><path class="point" transform="translate(72.6,39.16)" d="M6.51,0A6.51,6.51 0 1,1 0,-6.51A6.51,6.51 0 0,1 6.51,0Z" style="opacity: 1; stroke-width: 1px; fill: rgb(219, 219, 255); fill-opacity: 1; stroke: rgb(255, 255, 255); stroke-opacity: 1;"/><path class="point" transform="translate(72.6,19.51)" d="M0.56,0A0.56,0.56 0 1,1 0,-0.56A0.56,0.56 0 0,1 0.56,0Z" style="opacity: 1; stroke-width: 1px; fill: rgb(255, 255, 255); fill-opacity: 1; stroke: rgb(255, 255, 255); stroke-opacity: 1;"/><path class="point" transform="translate(94.32,215.99)" d="M14.07,0A14.07,14.07 0 1,1 0,-14.07A14.07,14.07 0 0,1 14.07,0Z" style="opacity: 1; stroke-width: 1px; fill: rgb(255, 102, 173); fill-opacity: 1; stroke: rgb(255, 255, 255); stroke-opacity: 1;"/><path class="point" transform="translate(94.32,196.34)" d="M13.9,0A13.9,13.9 0 1,1 0,-13.9A13.9,13.9 0 0,1 13.9,0Z" style="opacity: 1; stroke-width: 1px; fill: rgb(255, 102, 181); fill-opacity: 1; stroke: rgb(255, 255, 255); stroke-opacity: 1;"/><path class="point" transform="translate(94.32,176.69)" d="M10.49,0A10.49,10.49 0 1,1 0,-10.49A10.49,10.49 0 0,1 10.49,0Z" style="opacity: 1; stroke-width: 1px; fill: rgb(255, 161, 255); fill-opacity: 1; stroke: rgb(255, 255, 255); stroke-opacity: 1;"/><path class="point" transform="translate(94.32,157.04)" d="M0,0A0,0 0 1,1 0,-0A0,0 0 0,1 0,0Z" style="opacity: 1; stroke-width: 1px; fill: rgb(255, 255, 255); fill-opacity: 1; stroke: rgb(255, 255, 255); stroke-opacity: 1;"/><path class="point" transform="translate(94.32,137.4)" d="M12.95,0A12.95,12.95 0 1,1 0,-12.95A12.95,12.95 0 0,1 12.95,0Z" style="opacity: 1; stroke-width: 1px; fill: rgb(255, 112, 214); fill-opacity: 1; stroke: rgb(255, 255, 255); stroke-opacity: 1;"/><path class="point" transform="translate(94.32,117.75)" d="M10.71,0A10.71,10.71 0 1,1 0,-10.71A10.71,10.71 0 0,1 10.71,0Z" style="opacity: 1; stroke-width: 1px; fill: rgb(255, 157, 255); fill-opacity: 1; stroke: rgb(255, 255, 255); stroke-opacity: 1;"/><path class="point" transform="translate(94.32,98.1)" d="M12.42,0A12.42,12.42 0 1,1 0,-12.42A12.42,12.42 0 0,1 12.42,0Z" style="opacity: 1; stroke-width: 1px; fill: rgb(255, 124, 226); fill-opacity: 1; stroke: rgb(255, 255, 255); stroke-opacity: 1;"/><path class="point" transform="translate(94.32,78.45)" d="M12.77,0A12.77,12.77 0 1,1 0,-12.77A12.77,12.77 0 0,1 12.77,0Z" style="opacity: 1; stroke-width: 1px; fill: rgb(255, 116, 218); fill-opacity: 1; stroke: rgb(255, 255, 255); stroke-opacity: 1;"/><path class="point" transform="translate(94.32,58.8)" d="M13.07,0A13.07,13.07 0 1,1 0,-13.07A13.07,13.07 0 0,1 13.07,0Z" style="opacity: 1; stroke-width: 1px; fill: rgb(255, 110, 212); fill-opacity: 1; stroke: rgb(255, 255, 255); stroke-opacity: 1;"/><path class="point" transform="translate(94.32,39.16)" d="M9.92,0A9.92,9.92 0 1,1 0,-9.92A9.92,9.92 0 0,1 9.92,0Z" style="opacity: 1; stroke-width: 1px; fill: rgb(171, 204, 255); fill-opacity: 1; stroke: rgb(255, 255, 255); stroke-opacity: 1;"/><path class="point" transform="translate(94.32,19.51)" d="M1.27,0A1.27,1.27 0 1,1 0,-1.27A1.27,1.27 0 0,1 1.27,0Z" style="opacity: 1; stroke-width: 1px; fill: rgb(254, 254, 255); fill-opacity: 1; stroke: rgb(255, 255, 255); stroke-opacity: 1;"/><path class="point" transform="translate(116.03,215.99)" d="M14.14,0A14.14,14.14 0 1,1 0,-14.14A14.14,14.14 0 0,1 14.14,0Z" style="opacity: 1; stroke-width: 1px; fill: rgb(255, 102, 169); fill-opacity: 1; stroke: rgb(255, 255, 255); stroke-opacity: 1;"/><path class="point" transform="translate(116.03,196.34)" d="M13.02,0A13.02,13.02 0 1,1 0,-13.02A13.02,13.02 0 0,1 13.02,0Z" style="opacity: 1; stroke-width: 1px; fill: rgb(255, 111, 213); fill-opacity: 1; stroke: rgb(255, 255, 255); stroke-opacity: 1;"/><path class="point" transform="translate(116.03,176.69)" d="M8.4,0A8.4,8.4 0 1,1 0,-8.4A8.4,8.4 0 0,1 8.4,0Z" style="opacity: 1; stroke-width: 1px; fill: rgb(255, 195, 255); fill-opacity: 1; stroke: rgb(255, 255, 255); stroke-opacity: 1;"/><path class="point" transform="translate(116.03,157.04)" d="M12.95,0A12.95,12.95 0 1,1 0,-12.95A12.95,12.95 0 0,1 12.95,0Z" style="opacity: 1; stroke-width: 1px; fill: rgb(255, 112, 214); fill-opacity: 1; stroke: rgb(255, 255, 255); stroke-opacity: 1;"/><path class="point" transform="translate(116.03,137.4)" d="M0,0A0,0 0 1,1 0,-0A0,0 0 0,1 0,0Z" style="opacity: 1; stroke-width: 1px; fill: rgb(255, 255, 255); fill-opacity: 1; stroke: rgb(255, 255, 255); stroke-opacity: 1;"/><path class="point" transform="translate(116.03,117.75)" d="M9.11,0A9.11,9.11 0 1,1 0,-9.11A9.11,9.11 0 0,1 9.11,0Z" style="opacity: 1; stroke-width: 1px; fill: rgb(255, 184, 255); fill-opacity: 1; stroke: rgb(255, 255, 255); stroke-opacity: 1;"/><path class="point" transform="translate(116.03,98.1)" d="M10.9,0A10.9,10.9 0 1,1 0,-10.9A10.9,10.9 0 0,1 10.9,0Z" style="opacity: 1; stroke-width: 1px; fill: rgb(255, 154, 255); fill-opacity: 1; stroke: rgb(255, 255, 255); stroke-opacity: 1;"/><path class="point" transform="translate(116.03,78.45)" d="M10.77,0A10.77,10.77 0 1,1 0,-10.77A10.77,10.77 0 0,1 10.77,0Z" style="opacity: 1; stroke-width: 1px; fill: rgb(255, 156, 255); fill-opacity: 1; stroke: rgb(255, 255, 255); stroke-opacity: 1;"/><path class="point" transform="translate(116.03,58.8)" d="M10.85,0A10.85,10.85 0 1,1 0,-10.85A10.85,10.85 0 0,1 10.85,0Z" style="opacity: 1; stroke-width: 1px; fill: rgb(255, 155, 255); fill-opacity: 1; stroke: rgb(255, 255, 255); stroke-opacity: 1;"/><path class="point" transform="translate(116.03,39.16)" d="M9.39,0A9.39,9.39 0 1,1 0,-9.39A9.39,9.39 0 0,1 9.39,0Z" style="opacity: 1; stroke-width: 1px; fill: rgb(180, 204, 255); fill-opacity: 1; stroke: rgb(255, 255, 255); stroke-opacity: 1;"/><path class="point" transform="translate(116.03,19.51)" d="M3.77,0A3.77,3.77 0 1,1 0,-3.77A3.77,3.77 0 0,1 3.77,0Z" style="opacity: 1; stroke-width: 1px; fill: rgb(255, 243, 255); fill-opacity: 1; stroke: rgb(255, 255, 255); stroke-opacity: 1;"/><path class="point" transform="translate(137.75,215.99)" d="M7.58,0A7.58,7.58 0 1,1 0,-7.58A7.58,7.58 0 0,1 7.58,0Z" style="opacity: 1; stroke-width: 1px; fill: rgb(255, 206, 255); fill-opacity: 1; stroke: rgb(255, 255, 255); stroke-opacity: 1;"/><path class="point" transform="translate(137.75,196.34)" d="M8.73,0A8.73,8.73 0 1,1 0,-8.73A8.73,8.73 0 0,1 8.73,0Z" style="opacity: 1; stroke-width: 1px; fill: rgb(255, 190, 255); fill-opacity: 1; stroke: rgb(255, 255, 255); stroke-opacity: 1;"/><path class="point" transform="translate(137.75,176.69)" d="M12.45,0A12.45,12.45 0 1,1 0,-12.45A12.45,12.45 0 0,1 12.45,0Z" style="opacity: 1; stroke-width: 1px; fill: rgb(255, 123, 225); fill-opacity: 1; stroke: rgb(255, 255, 255); stroke-opacity: 1;"/><path class="point" transform="translate(137.75,157.04)" d="M10.71,0A10.71,10.71 0 1,1 0,-10.71A10.71,10.71 0 0,1 10.71,0Z" style="opacity: 1; stroke-width: 1px; fill: rgb(255, 157, 255); fill-opacity: 1; stroke: rgb(255, 255, 255); stroke-opacity: 1;"/><path class="point" transform="translate(137.75,137.4)" d="M9.11,0A9.11,9.11 0 1,1 0,-9.11A9.11,9.11 0 0,1 9.11,0Z" style="opacity: 1; stroke-width: 1px; fill: rgb(255, 184, 255); fill-opacity: 1; stroke: rgb(255, 255, 255); stroke-opacity: 1;"/><path class="point" transform="translate(137.75,117.75)" d="M0,0A0,0 0 1,1 0,-0A0,0 0 0,1 0,0Z" style="opacity: 1; stroke-width: 1px; fill: rgb(255, 255, 255); fill-opacity: 1; stroke: rgb(255, 255, 255); stroke-opacity: 1;"/><path class="point" transform="translate(137.75,98.1)" d="M13.94,0A13.94,13.94 0 1,1 0,-13.94A13.94,13.94 0 0,1 13.94,0Z" style="opacity: 1; stroke-width: 1px; fill: rgb(255, 102, 179); fill-opacity: 1; stroke: rgb(255, 255, 255); stroke-opacity: 1;"/><path class="point" transform="translate(137.75,78.45)" d="M8.93,0A8.93,8.93 0 1,1 0,-8.93A8.93,8.93 0 0,1 8.93,0Z" style="opacity: 1; stroke-width: 1px; fill: rgb(255, 187, 255); fill-opacity: 1; stroke: rgb(255, 255, 255); stroke-opacity: 1;"/><path class="point" transform="translate(137.75,58.8)" d="M8.68,0A8.68,8.68 0 1,1 0,-8.68A8.68,8.68 0 0,1 8.68,0Z" style="opacity: 1; stroke-width: 1px; fill: rgb(255, 191, 255); fill-opacity: 1; stroke: rgb(255, 255, 255); stroke-opacity: 1;"/><path class="point" transform="translate(137.75,39.16)" d="M6.2,0A6.2,6.2 0 1,1 0,-6.2A6.2,6.2 0 0,1 6.2,0Z" style="opacity: 1; stroke-width: 1px; fill: rgb(222, 222, 255); fill-opacity: 1; stroke: rgb(255, 255, 255); stroke-opacity: 1;"/><path class="point" transform="translate(137.75,19.51)" d="M0.58,0A0.58,0.58 0 1,1 0,-0.58A0.58,0.58 0 0,1 0.58,0Z" style="opacity: 1; stroke-width: 1px; fill: rgb(255, 255, 255); fill-opacity: 1; stroke: rgb(255, 255, 255); stroke-opacity: 1;"/><path class="point" transform="translate(159.47,215.99)" d="M10.28,0A10.28,10.28 0 1,1 0,-10.28A10.28,10.28 0 0,1 10.28,0Z" style="opacity: 1; stroke-width: 1px; fill: rgb(255, 165, 255); fill-opacity: 1; stroke: rgb(255, 255, 255); stroke-opacity: 1;"/><path class="point" transform="translate(159.47,196.34)" d="M10.23,0A10.23,10.23 0 1,1 0,-10.23A10.23,10.23 0 0,1 10.23,0Z" style="opacity: 1; stroke-width: 1px; fill: rgb(255, 166, 255); fill-opacity: 1; stroke: rgb(255, 255, 255); stroke-opacity: 1;"/><path class="point" transform="translate(159.47,176.69)" d="M12.6,0A12.6,12.6 0 1,1 0,-12.6A12.6,12.6 0 0,1 12.6,0Z" style="opacity: 1; stroke-width: 1px; fill: rgb(255, 120, 222); fill-opacity: 1; stroke: rgb(255, 255, 255); stroke-opacity: 1;"/><path class="point" transform="translate(159.47,157.04)" d="M12.42,0A12.42,12.42 0 1,1 0,-12.42A12.42,12.42 0 0,1 12.42,0Z" style="opacity: 1; stroke-width: 1px; fill: rgb(255, 124, 226); fill-opacity: 1; stroke: rgb(255, 255, 255); stroke-opacity: 1;"/><path class="point" transform="translate(159.47,137.4)" d="M10.9,0A10.9,10.9 0 1,1 0,-10.9A10.9,10.9 0 0,1 10.9,0Z" style="opacity: 1; stroke-width: 1px; fill: rgb(255, 154, 255); fill-opacity: 1; stroke: rgb(255, 255, 255); stroke-opacity: 1;"/><path class="point" transform="translate(159.47,117.75)" d="M13.94,0A13.94,13.94 0 1,1 0,-13.94A13.94,13.94 0 0,1 13.94,0Z" style="opacity: 1; stroke-width: 1px; fill: rgb(255, 102, 179); fill-opacity: 1; stroke: rgb(255, 255, 255); stroke-opacity: 1;"/><path class="point" transform="translate(159.47,98.1)" d="M0,0A0,0 0 1,1 0,-0A0,0 0 0,1 0,0Z" style="opacity: 1; stroke-width: 1px; fill: rgb(255, 255, 255); fill-opacity: 1; stroke: rgb(255, 255, 255); stroke-opacity: 1;"/><path class="point" transform="translate(159.47,78.45)" d="M10.61,0A10.61,10.61 0 1,1 0,-10.61A10.61,10.61 0 0,1 10.61,0Z" style="opacity: 1; stroke-width: 1px; fill: rgb(255, 159, 255); fill-opacity: 1; stroke: rgb(255, 255, 255); stroke-opacity: 1;"/><path class="point" transform="translate(159.47,58.8)" d="M10.2,0A10.2,10.2 0 1,1 0,-10.2A10.2,10.2 0 0,1 10.2,0Z" style="opacity: 1; stroke-width: 1px; fill: rgb(255, 166, 255); fill-opacity: 1; stroke: rgb(255, 255, 255); stroke-opacity: 1;"/><path class="point" transform="translate(159.47,39.16)" d="M7.06,0A7.06,7.06 0 1,1 0,-7.06A7.06,7.06 0 0,1 7.06,0Z" style="opacity: 1; stroke-width: 1px; fill: rgb(213, 213, 255); fill-opacity: 1; stroke: rgb(255, 255, 255); stroke-opacity: 1;"/><path class="point" transform="translate(159.47,19.51)" d="M2.9,0A2.9,2.9 0 1,1 0,-2.9A2.9,2.9 0 0,1 2.9,0Z" style="opacity: 1; stroke-width: 1px; fill: rgb(255, 248, 255); fill-opacity: 1; stroke: rgb(255, 255, 255); stroke-opacity: 1;"/><path class="point" transform="translate(181.19,215.99)" d="M11.64,0A11.64,11.64 0 1,1 0,-11.64A11.64,11.64 0 0,1 11.64,0Z" style="opacity: 1; stroke-width: 1px; fill: rgb(255, 140, 242); fill-opacity: 1; stroke: rgb(255, 255, 255); stroke-opacity: 1;"/><path class="point" transform="translate(181.19,196.34)" d="M11.35,0A11.35,11.35 0 1,1 0,-11.35A11.35,11.35 0 0,1 11.35,0Z" style="opacity: 1; stroke-width: 1px; fill: rgb(255, 145, 247); fill-opacity: 1; stroke: rgb(255, 255, 255); stroke-opacity: 1;"/><path class="point" transform="translate(181.19,176.69)" d="M9.26,0A9.26,9.26 0 1,1 0,-9.26A9.26,9.26 0 0,1 9.26,0Z" style="opacity: 1; stroke-width: 1px; fill: rgb(255, 182, 255); fill-opacity: 1; stroke: rgb(255, 255, 255); stroke-opacity: 1;"/><path class="point" transform="translate(181.19,157.04)" d="M12.77,0A12.77,12.77 0 1,1 0,-12.77A12.77,12.77 0 0,1 12.77,0Z" style="opacity: 1; stroke-width: 1px; fill: rgb(255, 116, 218); fill-opacity: 1; stroke: rgb(255, 255, 255); stroke-opacity: 1;"/><path class="point" transform="translate(181.19,137.4)" d="M10.77,0A10.77,10.77 0 1,1 0,-10.77A10.77,10.77 0 0,1 10.77,0Z" style="opacity: 1; stroke-width: 1px; fill: rgb(255, 156, 255); fill-opacity: 1; stroke: rgb(255, 255, 255); stroke-opacity: 1;"/><path class="point" transform="translate(181.19,117.75)" d="M8.93,0A8.93,8.93 0 1,1 0,-8.93A8.93,8.93 0 0,1 8.93,0Z" style="opacity: 1; stroke-width: 1px; fill: rgb(255, 187, 255); fill-opacity: 1; stroke: rgb(255, 255, 255); stroke-opacity: 1;"/><path class="point" transform="translate(181.19,98.1)" d="M10.61,0A10.61,10.61 0 1,1 0,-10.61A10.61,10.61 0 0,1 10.61,0Z" style="opacity: 1; stroke-width: 1px; fill: rgb(255, 159, 255); fill-opacity: 1; stroke: rgb(255, 255, 255); stroke-opacity: 1;"/><path class="point" transform="translate(181.19,78.45)" d="M0,0A0,0 0 1,1 0,-0A0,0 0 0,1 0,0Z" style="opacity: 1; stroke-width: 1px; fill: rgb(255, 255, 255); fill-opacity: 1; stroke: rgb(255, 255, 255); stroke-opacity: 1;"/><path class="point" transform="translate(181.19,58.8)" d="M12.73,0A12.73,12.73 0 1,1 0,-12.73A12.73,12.73 0 0,1 12.73,0Z" style="opacity: 1; stroke-width: 1px; fill: rgb(255, 117, 219); fill-opacity: 1; stroke: rgb(255, 255, 255); stroke-opacity: 1;"/><path class="point" transform="translate(181.19,39.16)" d="M9.53,0A9.53,9.53 0 1,1 0,-9.53A9.53,9.53 0 0,1 9.53,0Z" style="opacity: 1; stroke-width: 1px; fill: rgb(178, 204, 255); fill-opacity: 1; stroke: rgb(255, 255, 255); stroke-opacity: 1;"/><path class="point" transform="translate(181.19,19.51)" d="M3.83,0A3.83,3.83 0 1,1 0,-3.83A3.83,3.83 0 0,1 3.83,0Z" style="opacity: 1; stroke-width: 1px; fill: rgb(243, 243, 255); fill-opacity: 1; stroke: rgb(255, 255, 255); stroke-opacity: 1;"/><path class="point" transform="translate(202.91,215.99)" d="M11.51,0A11.51,11.51 0 1,1 0,-11.51A11.51,11.51 0 0,1 11.51,0Z" style="opacity: 1; stroke-width: 1px; fill: rgb(255, 142, 244); fill-opacity: 1; stroke: rgb(255, 255, 255); stroke-opacity: 1;"/><path class="point" transform="translate(202.91,196.34)" d="M12.56,0A12.56,12.56 0 1,1 0,-12.56A12.56,12.56 0 0,1 12.56,0Z" style="opacity: 1; stroke-width: 1px; fill: rgb(255, 121, 223); fill-opacity: 1; stroke: rgb(255, 255, 255); stroke-opacity: 1;"/><path class="point" transform="translate(202.91,176.69)" d="M10.01,0A10.01,10.01 0 1,1 0,-10.01A10.01,10.01 0 0,1 10.01,0Z" style="opacity: 1; stroke-width: 1px; fill: rgb(255, 170, 255); fill-opacity: 1; stroke: rgb(255, 255, 255); stroke-opacity: 1;"/><path class="point" transform="translate(202.91,157.04)" d="M13.07,0A13.07,13.07 0 1,1 0,-13.07A13.07,13.07 0 0,1 13.07,0Z" style="opacity: 1; stroke-width: 1px; fill: rgb(255, 110, 212); fill-opacity: 1; stroke: rgb(255, 255, 255); stroke-opacity: 1;"/><path class="point" transform="translate(202.91,137.4)" d="M10.85,0A10.85,10.85 0 1,1 0,-10.85A10.85,10.85 0 0,1 10.85,0Z" style="opacity: 1; stroke-width: 1px; fill: rgb(255, 155, 255); fill-opacity: 1; stroke: rgb(255, 255, 255); stroke-opacity: 1;"/><path class="point" transform="translate(202.91,117.75)" d="M8.68,0A8.68,8.68 0 1,1 0,-8.68A8.68,8.68 0 0,1 8.68,0Z" style="opacity: 1; stroke-width: 1px; fill: rgb(255, 191, 255); fill-opacity: 1; stroke: rgb(255, 255, 255); stroke-opacity: 1;"/><path class="point" transform="translate(202.91,98.1)" d="M10.2,0A10.2,10.2 0 1,1 0,-10.2A10.2,10.2 0 0,1 10.2,0Z" style="opacity: 1; stroke-width: 1px; fill: rgb(255, 166, 255); fill-opacity: 1; stroke: rgb(255, 255, 255); stroke-opacity: 1;"/><path class="point" transform="translate(202.91,78.45)" d="M12.73,0A12.73,12.73 0 1,1 0,-12.73A12.73,12.73 0 0,1 12.73,0Z" style="opacity: 1; stroke-width: 1px; fill: rgb(255, 117, 219); fill-opacity: 1; stroke: rgb(255, 255, 255); stroke-opacity: 1;"/><path class="point" transform="translate(202.91,58.8)" d="M0,0A0,0 0 1,1 0,-0A0,0 0 0,1 0,0Z" style="opacity: 1; stroke-width: 1px; fill: rgb(255, 255, 255); fill-opacity: 1; stroke: rgb(255, 255, 255); stroke-opacity: 1;"/><path class="point" transform="translate(202.91,39.16)" d="M10.29,0A10.29,10.29 0 1,1 0,-10.29A10.29,10.29 0 0,1 10.29,0Z" style="opacity: 1; stroke-width: 1px; fill: rgb(165, 204, 255); fill-opacity: 1; stroke: rgb(255, 255, 255); stroke-opacity: 1;"/><path class="point" transform="translate(202.91,19.51)" d="M4.12,0A4.12,4.12 0 1,1 0,-4.12A4.12,4.12 0 0,1 4.12,0Z" style="opacity: 1; stroke-width: 1px; fill: rgb(241, 241, 255); fill-opacity: 1; stroke: rgb(255, 255, 255); stroke-opacity: 1;"/><path class="point" transform="translate(224.62,215.99)" d="M10.71,0A10.71,10.71 0 1,1 0,-10.71A10.71,10.71 0 0,1 10.71,0Z" style="opacity: 1; stroke-width: 1px; fill: rgb(157, 204, 255); fill-opacity: 1; stroke: rgb(255, 255, 255); stroke-opacity: 1;"/><path class="point" transform="translate(224.62,196.34)" d="M10.58,0A10.58,10.58 0 1,1 0,-10.58A10.58,10.58 0 0,1 10.58,0Z" style="opacity: 1; stroke-width: 1px; fill: rgb(160, 204, 255); fill-opacity: 1; stroke: rgb(255, 255, 255); stroke-opacity: 1;"/><path class="point" transform="translate(224.62,176.69)" d="M6.51,0A6.51,6.51 0 1,1 0,-6.51A6.51,6.51 0 0,1 6.51,0Z" style="opacity: 1; stroke-width: 1px; fill: rgb(219, 219, 255); fill-opacity: 1; stroke: rgb(255, 255, 255); stroke-opacity: 1;"/><path class="point" transform="translate(224.62,157.04)" d="M9.92,0A9.92,9.92 0 1,1 0,-9.92A9.92,9.92 0 0,1 9.92,0Z" style="opacity: 1; stroke-width: 1px; fill: rgb(171, 204, 255); fill-opacity: 1; stroke: rgb(255, 255, 255); stroke-opacity: 1;"/><path class="point" transform="translate(224.62,137.4)" d="M9.39,0A9.39,9.39 0 1,1 0,-9.39A9.39,9.39 0 0,1 9.39,0Z" style="opacity: 1; stroke-width: 1px; fill: rgb(180, 204, 255); fill-opacity: 1; stroke: rgb(255, 255, 255); stroke-opacity: 1;"/><path class="point" transform="translate(224.62,117.75)" d="M6.2,0A6.2,6.2 0 1,1 0,-6.2A6.2,6.2 0 0,1 6.2,0Z" style="opacity: 1; stroke-width: 1px; fill: rgb(222, 222, 255); fill-opacity: 1; stroke: rgb(255, 255, 255); stroke-opacity: 1;"/><path class="point" transform="translate(224.62,98.1)" d="M7.06,0A7.06,7.06 0 1,1 0,-7.06A7.06,7.06 0 0,1 7.06,0Z" style="opacity: 1; stroke-width: 1px; fill: rgb(213, 213, 255); fill-opacity: 1; stroke: rgb(255, 255, 255); stroke-opacity: 1;"/><path class="point" transform="translate(224.62,78.45)" d="M9.53,0A9.53,9.53 0 1,1 0,-9.53A9.53,9.53 0 0,1 9.53,0Z" style="opacity: 1; stroke-width: 1px; fill: rgb(178, 204, 255); fill-opacity: 1; stroke: rgb(255, 255, 255); stroke-opacity: 1;"/><path class="point" transform="translate(224.62,58.8)" d="M10.29,0A10.29,10.29 0 1,1 0,-10.29A10.29,10.29 0 0,1 10.29,0Z" style="opacity: 1; stroke-width: 1px; fill: rgb(165, 204, 255); fill-opacity: 1; stroke: rgb(255, 255, 255); stroke-opacity: 1;"/><path class="point" transform="translate(224.62,39.16)" d="M0,0A0,0 0 1,1 0,-0A0,0 0 0,1 0,0Z" style="opacity: 1; stroke-width: 1px; fill: rgb(255, 255, 255); fill-opacity: 1; stroke: rgb(255, 255, 255); stroke-opacity: 1;"/><path class="point" transform="translate(224.62,19.51)" d="M6.54,0A6.54,6.54 0 1,1 0,-6.54A6.54,6.54 0 0,1 6.54,0Z" style="opacity: 1; stroke-width: 1px; fill: rgb(255, 219, 255); fill-opacity: 1; stroke: rgb(255, 255, 255); stroke-opacity: 1;"/><path class="point" transform="translate(246.34,215.99)" d="M1.66,0A1.66,1.66 0 1,1 0,-1.66A1.66,1.66 0 0,1 1.66,0Z" style="opacity: 1; stroke-width: 1px; fill: rgb(253, 253, 255); fill-opacity: 1; stroke: rgb(255, 255, 255); stroke-opacity: 1;"/><path class="point" transform="translate(246.34,196.34)" d="M4.89,0A4.89,4.89 0 1,1 0,-4.89A4.89,4.89 0 0,1 4.89,0Z" style="opacity: 1; stroke-width: 1px; fill: rgb(255, 235, 255); fill-opacity: 1; stroke: rgb(255, 255, 255); stroke-opacity: 1;"/><path class="point" transform="translate(246.34,176.69)" d="M0.56,0A0.56,0.56 0 1,1 0,-0.56A0.56,0.56 0 0,1 0.56,0Z" style="opacity: 1; stroke-width: 1px; fill: rgb(255, 255, 255); fill-opacity: 1; stroke: rgb(255, 255, 255); stroke-opacity: 1;"/><path class="point" transform="translate(246.34,157.04)" d="M1.27,0A1.27,1.27 0 1,1 0,-1.27A1.27,1.27 0 0,1 1.27,0Z" style="opacity: 1; stroke-width: 1px; fill: rgb(254, 254, 255); fill-opacity: 1; stroke: rgb(255, 255, 255); stroke-opacity: 1;"/><path class="point" transform="translate(246.34,137.4)" d="M3.77,0A3.77,3.77 0 1,1 0,-3.77A3.77,3.77 0 0,1 3.77,0Z" style="opacity: 1; stroke-width: 1px; fill: rgb(255, 243, 255); fill-opacity: 1; stroke: rgb(255, 255, 255); stroke-opacity: 1;"/><path class="point" transform="translate(246.34,117.75)" d="M0.58,0A0.58,0.58 0 1,1 0,-0.58A0.58,0.58 0 0,1 0.58,0Z" style="opacity: 1; stroke-width: 1px; fill: rgb(255, 255, 255); fill-opacity: 1; stroke: rgb(255, 255, 255); stroke-opacity: 1;"/><path class="point" transform="translate(246.34,98.1)" d="M2.9,0A2.9,2.9 0 1,1 0,-2.9A2.9,2.9 0 0,1 2.9,0Z" style="opacity: 1; stroke-width: 1px; fill: rgb(255, 248, 255); fill-opacity: 1; stroke: rgb(255, 255, 255); stroke-opacity: 1;"/><path class="point" transform="translate(246.34,78.45)" d="M3.83,0A3.83,3.83 0 1,1 0,-3.83A3.83,3.83 0 0,1 3.83,0Z" style="opacity: 1; stroke-width: 1px; fill: rgb(243, 243, 255); fill-opacity: 1; stroke: rgb(255, 255, 255); stroke-opacity: 1;"/><path class="point" transform="translate(246.34,58.8)" d="M4.12,0A4.12,4.12 0 1,1 0,-4.12A4.12,4.12 0 0,1 4.12,0Z" style="opacity: 1; stroke-width: 1px; fill: rgb(241, 241, 255); fill-opacity: 1; stroke: rgb(255, 255, 255); stroke-opacity: 1;"/><path class="point" transform="translate(246.34,39.16)" d="M6.54,0A6.54,6.54 0 1,1 0,-6.54A6.54,6.54 0 0,1 6.54,0Z" style="opacity: 1; stroke-width: 1px; fill: rgb(255, 219, 255); fill-opacity: 1; stroke: rgb(255, 255, 255); stroke-opacity: 1;"/><path class="point" transform="translate(246.34,19.51)" d="M0,0A0,0 0 1,1 0,-0A0,0 0 0,1 0,0Z" style="opacity: 1; stroke-width: 1px; fill: rgb(255, 255, 255); fill-opacity: 1; stroke: rgb(255, 255, 255); stroke-opacity: 1;"/></g><g class="text"/></g></g></g><g class="overplot"/><path class="xlines-above crisp" d="M0,0" style="fill: none;"/><path class="ylines-above crisp" d="M0,0" style="fill: none;"/><g class="overlines-above"/><g class="xaxislayer-above"><g class="xtick"><text text-anchor="start" x="0" y="273" transform="translate(172.16,0) rotate(30,0,269)" style="font-family: 'Open Sans', verdana, arial, sans-serif; font-size: 8px; fill: rgb(42, 63, 95); fill-opacity: 1; white-space: pre;">SF36_physical_functioning</text></g><g class="xtick"><text text-anchor="start" x="0" y="273" transform="translate(193.88,0) rotate(30,0,269)" style="font-family: 'Open Sans', verdana, arial, sans-serif; font-size: 8px; fill: rgb(42, 63, 95); fill-opacity: 1; white-space: pre;">SF36_role_limitations_physical</text></g><g class="xtick"><text text-anchor="start" x="0" y="273" transform="translate(215.6,0) rotate(30,0,269)" style="font-family: 'Open Sans', verdana, arial, sans-serif; font-size: 8px; fill: rgb(42, 63, 95); fill-opacity: 1; white-space: pre;">SF36_role_limitations_emotional</text></g><g class="xtick"><text text-anchor="start" x="0" y="273" transform="translate(237.32,0) rotate(30,0,269)" style="font-family: 'Open Sans', verdana, arial, sans-serif; font-size: 8px; fill: rgb(42, 63, 95); fill-opacity: 1; white-space: pre;">SF36_energy_fatigue</text></g><g class="xtick"><text text-anchor="start" x="0" y="273" transform="translate(259.03,0) rotate(30,0,269)" style="font-family: 'Open Sans', verdana, arial, sans-serif; font-size: 8px; fill: rgb(42, 63, 95); fill-opacity: 1; white-space: pre;">SF36_pain</text></g><g class="xtick"><text text-anchor="start" x="0" y="273" transform="translate(280.75,0) rotate(30,0,269)" style="font-family: 'Open Sans', verdana, arial, sans-serif; font-size: 8px; fill: rgb(42, 63, 95); fill-opacity: 1; white-space: pre;">GAD2</text></g><g class="xtick"><text text-anchor="start" x="0" y="273" transform="translate(302.47,0) rotate(30,0,269)" style="font-family: 'Open Sans', verdana, arial, sans-serif; font-size: 8px; fill: rgb(42, 63, 95); fill-opacity: 1; white-space: pre;">PHQ2</text></g><g class="xtick"><text text-anchor="start" x="0" y="273" transform="translate(324.19,0) rotate(30,0,269)" style="font-family: 'Open Sans', verdana, arial, sans-serif; font-size: 8px; fill: rgb(42, 63, 95); fill-opacity: 1; white-space: pre;">subj_memory</text></g><g class="xtick"><text text-anchor="start" x="0" y="273" transform="translate(345.90999999999997,0) rotate(30,0,269)" style="font-family: 'Open Sans', verdana, arial, sans-serif; font-size: 8px; fill: rgb(42, 63, 95); fill-opacity: 1; white-space: pre;">subj_baseline</text></g><g class="xtick"><text text-anchor="start" x="0" y="273" transform="translate(367.62,0) rotate(30,0,269)" style="font-family: 'Open Sans', verdana, arial, sans-serif; font-size: 8px; fill: rgb(42, 63, 95); fill-opacity: 1; white-space: pre;">WHO_COVID_severity</text></g><g class="xtick"><text text-anchor="start" x="0" y="273" transform="translate(389.34000000000003,0) rotate(30,0,269)" style="font-family: 'Open Sans', verdana, arial, sans-serif; font-size: 8px; fill: rgb(42, 63, 95); fill-opacity: 1; white-space: pre;">days_since_+test</text></g></g><g class="yaxislayer-above"><g class="ytick"><text text-anchor="end" x="142" y="2.8" transform="translate(0,235.99)" style="font-family: 'Open Sans', verdana, arial, sans-serif; font-size: 8px; fill: rgb(42, 63, 95); fill-opacity: 1; white-space: pre;">SF36_physical_functioning</text></g><g class="ytick"><text text-anchor="end" x="142" y="2.8" transform="translate(0,216.34)" style="font-family: 'Open Sans', verdana, arial, sans-serif; font-size: 8px; fill: rgb(42, 63, 95); fill-opacity: 1; white-space: pre;">SF36_role_limitations_physical</text></g><g class="ytick"><text text-anchor="end" x="142" y="2.8" transform="translate(0,196.69)" style="font-family: 'Open Sans', verdana, arial, sans-serif; font-size: 8px; fill: rgb(42, 63, 95); fill-opacity: 1; white-space: pre;">SF36_role_limitations_emotional</text></g><g class="ytick"><text text-anchor="end" x="142" y="2.8" transform="translate(0,177.04)" style="font-family: 'Open Sans', verdana, arial, sans-serif; font-size: 8px; fill: rgb(42, 63, 95); fill-opacity: 1; white-space: pre;">SF36_energy_fatigue</text></g><g class="ytick"><text text-anchor="end" x="142" y="2.8" transform="translate(0,157.4)" style="font-family: 'Open Sans', verdana, arial, sans-serif; font-size: 8px; fill: rgb(42, 63, 95); fill-opacity: 1; white-space: pre;">SF36_pain</text></g><g class="ytick"><text text-anchor="end" x="142" y="2.8" transform="translate(0,137.75)" style="font-family: 'Open Sans', verdana, arial, sans-serif; font-size: 8px; fill: rgb(42, 63, 95); fill-opacity: 1; white-space: pre;">GAD2</text></g><g class="ytick"><text text-anchor="end" x="142" y="2.8" transform="translate(0,118.1)" style="font-family: 'Open Sans', verdana, arial, sans-serif; font-size: 8px; fill: rgb(42, 63, 95); fill-opacity: 1; white-space: pre;">PHQ2</text></g><g class="ytick"><text text-anchor="end" x="142" y="2.8" transform="translate(0,98.45)" style="font-family: 'Open Sans', verdana, arial, sans-serif; font-size: 8px; fill: rgb(42, 63, 95); fill-opacity: 1; white-space: pre;">subj_memory</text></g><g class="ytick"><text text-anchor="end" x="142" y="2.8" transform="translate(0,78.8)" style="font-family: 'Open Sans', verdana, arial, sans-serif; font-size: 8px; fill: rgb(42, 63, 95); fill-opacity: 1; white-space: pre;">subj_baseline</text></g><g class="ytick"><text text-anchor="end" x="142" y="2.8" transform="translate(0,59.16)" style="font-family: 'Open Sans', verdana, arial, sans-serif; font-size: 8px; fill: rgb(42, 63, 95); fill-opacity: 1; white-space: pre;">WHO_COVID_severity</text></g><g class="ytick"><text text-anchor="end" x="142" y="2.8" transform="translate(0,39.510000000000005)" style="font-family: 'Open Sans', verdana, arial, sans-serif; font-size: 8px; fill: rgb(42, 63, 95); fill-opacity: 1; white-space: pre;">days_since_+test</text></g></g><g class="overaxes-above"/></g></g><g class="polarlayer"/><g class="ternarylayer"/><g class="geolayer"/><g class="funnelarealayer"/><g class="pielayer"/><g class="treemaplayer"/><g class="sunburstlayer"/><g class="glimages"/><defs id="topdefs-6d7cd0"><g class="clips"/></defs><g class="layer-above"><g class="imagelayer"/><g class="shapelayer"/></g><g class="infolayer"><g class="cbcoloraxis colorbar" transform="translate(143,20)"><rect class="cbbg" x="272" y="0" width="49.94921875" height="244" style="fill: rgb(0, 0, 0); fill-opacity: 0; stroke: rgb(68, 68, 68); stroke-opacity: 1; stroke-width: 0;"/><g class="cbfills" transform="translate(0,10)"><rect class="cbfill" x="282" width="10" y="0" height="224" style="stroke: none; fill: url('#g6d7cd0-cbcoloraxis');"/></g><g class="cblines" transform="translate(0,10)"/><g class="cbaxis crisp" transform="translate(0,-20)"><g class="ycbcoloraxistick"><text text-anchor="start" x="294.1" y="2.8" transform="translate(0,254)" style="font-family: 'Open Sans', verdana, arial, sans-serif; font-size: 8px; fill: rgb(42, 63, 95); fill-opacity: 1; white-space: pre;">−1</text></g><g class="ycbcoloraxistick"><text text-anchor="start" x="294.1" y="2.8" transform="translate(0,142)" style="font-family: 'Open Sans', verdana, arial, sans-serif; font-size: 8px; fill: rgb(42, 63, 95); fill-opacity: 1; white-space: pre;">0</text></g><g class="ycbcoloraxistick"><text text-anchor="start" x="294.1" y="2.8" transform="translate(0,30.00000000000001)" style="font-family: 'Open Sans', verdana, arial, sans-serif; font-size: 8px; fill: rgb(42, 63, 95); fill-opacity: 1; white-space: pre;">1</text></g></g><g class="cbtitleunshift" transform="translate(-143,-20)"><g class="cbtitle"><text class="hycbcoloraxistitle" transform="rotate(-90,453.34000000000003,142)" x="453.34000000000003" y="142" text-anchor="middle" style="font-family: 'Open Sans', verdana, arial, sans-serif; font-size: 8px; fill: rgb(42, 63, 95); opacity: 1; font-weight: normal; white-space: pre;">correlation (r)</text></g></g><rect class="cboutline" x="282" y="10" width="10" height="224" style="stroke: rgb(68, 68, 68); stroke-opacity: 1; fill: none; stroke-width: 0;"/></g><g class="g-gtitle"/><g class="g-xtitle"/><g class="g-ytitle"/></g></svg>