<svg class="main-svg" xmlns="http://www.w3.org/2000/svg" xmlns:xlink="http://www.w3.org/1999/xlink" width="650" height="275" viewBox="0 0 650 275"><rect x="0" y="0" width="650" height="275" style="fill: rgb(255, 255, 255); fill-opacity: 1;"/><defs id="defs-0fecd8"><g class="clips"><clipPath id="clip0fecd8xyplot" class="plotclip"><rect width="218.67000000000002" height="215"/></clipPath><clipPath id="clip0fecd8x3y3plot" class="plotclip"><rect width="106.56000000000003" height="215"/></clipPath><clipPath id="clip0fecd8x4y4plot" class="plotclip"><rect width="106.55999999999997" height="215"/></clipPath><clipPath id="clip0fecd8x5y5plot" class="plotclip"><rect width="106.55999999999997" height="215"/></clipPath><clipPath class="axesclip" id="clip0fecd8x"><rect x="75" y="0" width="218.67000000000002" height="275"/></clipPath><clipPath class="axesclip" id="clip0fecd8y"><rect x="0" y="20" width="650" height="215"/></clipPath><clipPath class="axesclip" id="clip0fecd8xy"><rect x="75" y="20" width="218.67000000000002" height="215"/></clipPath><clipPath class="axesclip" id="clip0fecd8y3"><rect x="0" y="20" width="650" height="215"/></clipPath><clipPath class="axesclip" id="clip0fecd8xy3"><rect x="75" y="20" width="218.67000000000002" height="215"/></clipPath><clipPath class="axesclip" id="clip0fecd8y4"><rect x="0" y="20" width="650" height="215"/></clipPath><clipPath class="axesclip" id="clip0fecd8xy4"><rect x="75" y="20" width="218.67000000000002" height="215"/></clipPath><clipPath class="axesclip" id="clip0fecd8y5"><rect x="0" y="20" width="650" height="215"/></clipPath><clipPath class="axesclip" id="clip0fecd8xy5"><rect x="75" y="20" width="218.67000000000002" height="215"/></clipPath><clipPath class="axesclip" id="clip0fecd8x3"><rect x="299.22" y="0" width="106.56000000000003" height="275"/></clipPath><clipPath class="axesclip" id="clip0fecd8x3y"><rect x="299.22" y="20" width="106.56000000000003" height="215"/></clipPath><clipPath class="axesclip" id="clip0fecd8x3y3"><rect x="299.22" y="20" width="106.56000000000003" height="215"/></clipPath><clipPath class="axesclip" id="clip0fecd8x3y4"><rect x="299.22" y="20" width="106.56000000000003" height="215"/></clipPath><clipPath class="axesclip" id="clip0fecd8x3y5"><rect x="299.22" y="20" width="106.56000000000003" height="215"/></clipPath><clipPath class="axesclip" id="clip0fecd8x4"><rect x="411.33000000000004" y="0" width="106.55999999999997" height="275"/></clipPath><clipPath class="axesclip" id="clip0fecd8x4y"><rect x="411.33000000000004" y="20" width="106.55999999999997" height="215"/></clipPath><clipPath class="axesclip" id="clip0fecd8x4y3"><rect x="411.33000000000004" y="20" width="106.55999999999997" height="215"/></clipPath><clipPath class="axesclip" id="clip0fecd8x4y4"><rect x="411.33000000000004" y="20" width="106.55999999999997" height="215"/></clipPath><clipPath class="axesclip" id="clip0fecd8x4y5"><rect x="411.33000000000004" y="20" width="106.55999999999997" height="215"/></clipPath><clipPath class="axesclip" id="clip0fecd8x5"><rect x="523.44" y="0" width="106.55999999999997" height="275"/></clipPath><clipPath class="axesclip" id="clip0fecd8x5y"><rect x="523.44" y="20" width="106.55999999999997" height="215"/></clipPath><clipPath class="axesclip" id="clip0fecd8x5y3"><rect x="523.44" y="20" width="106.55999999999997" height="215"/></clipPath><clipPath class="axesclip" id="clip0fecd8x5y4"><rect x="523.44" y="20" width="106.55999999999997" height="215"/></clipPath><clipPath class="axesclip" id="clip0fecd8x5y5"><rect x="523.44" y="20" width="106.55999999999997" height="215"/></clipPath></g><g class="gradients"/></defs><g class="bglayer"><rect class="bg" x="75" y="20" width="218.67000000000002" height="215" style="fill: rgb(1, 1, 1); fill-opacity: 0.1; stroke-width: 0;"/><rect class="bg" x="299.22" y="20" width="106.56000000000003" height="215" style="fill: rgb(1, 1, 1); fill-opacity: 0.1; stroke-width: 0;"/><rect class="bg" x="411.33000000000004" y="20" width="106.55999999999997" height="215" style="fill: rgb(1, 1, 1); fill-opacity: 0.1; stroke-width: 0;"/><rect class="bg" x="523.44" y="20" width="106.55999999999997" height="215" style="fill: rgb(1, 1, 1); fill-opacity: 0.1; stroke-width: 0;"/></g><g class="layer-below"><g class="imagelayer"/><g class="shapelayer"/></g><g class="cartesianlayer"><g class="subplot xy"><g class="layer-subplot"><g class="shapelayer"/><g class="imagelayer"/></g><g class="gridlayer"><g class="x"/><g class="y"><path class="ygrid crisp" transform="translate(0,219.21)" d="M75,0h218.67000000000002" style="stroke: rgb(255, 255, 255); stroke-opacity: 1; stroke-width: 1px;"/><path class="ygrid crisp" transform="translate(0,184.31)" d="M75,0h218.67000000000002" style="stroke: rgb(255, 255, 255); stroke-opacity: 1; stroke-width: 1px;"/><path class="ygrid crisp" transform="translate(0,149.42)" d="M75,0h218.67000000000002" style="stroke: rgb(255, 255, 255); stroke-opacity: 1; stroke-width: 1px;"/><path class="ygrid crisp" transform="translate(0,79.62)" d="M75,0h218.67000000000002" style="stroke: rgb(255, 255, 255); stroke-opacity: 1; stroke-width: 1px;"/><path class="ygrid crisp" transform="translate(0,44.730000000000004)" d="M75,0h218.67000000000002" style="stroke: rgb(255, 255, 255); stroke-opacity: 1; stroke-width: 1px;"/></g></g><g class="zerolinelayer"><path class="yzl zl crisp" transform="translate(0,114.52)" d="M75,0h218.67000000000002" style="stroke: rgb(255, 255, 255); stroke-opacity: 1; stroke-width: 2px;"/></g><path class="xlines-below"/><path class="ylines-below"/><g class="overlines-below"/><g class="xaxislayer-below"/><g class="yaxislayer-below"/><g class="overaxes-below"/><g class="plot" transform="translate(75, 20)" clip-path="url('#clip0fecd8xyplot')"><g class="barlayer mlayer"><g class="trace bars" style="opacity: 1;"><g class="points"><g class="point"><path d="M10.93,94.52V24.61H40.09V94.52Z" style="vector-effect: non-scaling-stroke; opacity: 1; stroke-width: 1.5px; fill: rgb(89, 88, 88); fill-opacity: 1; stroke: rgb(16, 16, 16); stroke-opacity: 1;"/></g><g class="point"><path d="M120.27,94.52V129.88H149.42V94.52Z" style="vector-effect: non-scaling-stroke; opacity: 1; stroke-width: 1.5px; fill: rgb(89, 88, 88); fill-opacity: 1; stroke: rgb(16, 16, 16); stroke-opacity: 1;"/></g></g><g class="errorbar"><path class="yerror" d="M21.51,7.72h8m-4,0V41.51m-4,0h8" style="vector-effect: non-scaling-stroke; stroke-width: 1.5px; stroke: rgb(16, 16, 16); stroke-opacity: 1;"/></g><g class="errorbar"><path class="yerror" d="M130.85,113.08h8m-4,0V146.67m-4,0h8" style="vector-effect: non-scaling-stroke; stroke-width: 1.5px; stroke: rgb(16, 16, 16); stroke-opacity: 1;"/></g></g><g class="trace bars" style="opacity: 1;"><g class="points"><g class="point"><path d="M40.09,94.52V114.65H69.25V94.52Z" style="vector-effect: non-scaling-stroke; opacity: 1; stroke-width: 1.5px; fill: rgb(164, 164, 163); fill-opacity: 1; stroke: rgb(16, 16, 16); stroke-opacity: 1;"/></g><g class="point"><path d="M149.42,94.52V92.65H178.58V94.52Z" style="vector-effect: non-scaling-stroke; opacity: 1; stroke-width: 1.5px; fill: rgb(164, 164, 163); fill-opacity: 1; stroke: rgb(16, 16, 16); stroke-opacity: 1;"/></g></g><g class="errorbar"><path class="yerror" d="M50.67,105.17h8m-4,0V124.13m-4,0h8" style="vector-effect: non-scaling-stroke; stroke-width: 1.5px; stroke: rgb(16, 16, 16); stroke-opacity: 1;"/></g><g class="errorbar"><path class="yerror" d="M160,83.14h8m-4,0V102.16m-4,0h8" style="vector-effect: non-scaling-stroke; stroke-width: 1.5px; stroke: rgb(16, 16, 16); stroke-opacity: 1;"/></g></g><g class="trace bars" style="opacity: 1;"><g class="points"><g class="point"><path d="M69.25,94.52V97.18H98.4V94.52Z" style="vector-effect: non-scaling-stroke; opacity: 1; stroke-width: 1.5px; fill: rgb(251, 251, 250); fill-opacity: 1; stroke: rgb(16, 16, 16); stroke-opacity: 1;"/></g><g class="point"><path d="M178.58,94.52V38.7H207.74V94.52Z" style="vector-effect: non-scaling-stroke; opacity: 1; stroke-width: 1.5px; fill: rgb(251, 251, 250); fill-opacity: 1; stroke: rgb(16, 16, 16); stroke-opacity: 1;"/></g></g><g class="errorbar"><path class="yerror" d="M79.82,73.93h8m-4,0V120.43m-4,0h8" style="vector-effect: non-scaling-stroke; stroke-width: 1.5px; stroke: rgb(16, 16, 16); stroke-opacity: 1;"/></g><g class="errorbar"><path class="yerror" d="M189.16,12.19h8m-4,0V65.21m-4,0h8" style="vector-effect: non-scaling-stroke; stroke-width: 1.5px; stroke: rgb(16, 16, 16); stroke-opacity: 1;"/></g></g></g></g><g class="overplot"/><path class="xlines-above crisp" d="M0,0" style="fill: none;"/><path class="ylines-above crisp" d="M0,0" style="fill: none;"/><g class="overlines-above"/><g class="xaxislayer-above"><g class="xtick"><text text-anchor="middle" x="0" y="246" transform="translate(129.67000000000002,0)" style="font-family: sans-serif; font-size: 10px; fill: rgb(68, 68, 68); fill-opacity: 1; white-space: pre;">F1</text></g><g class="xtick"><text text-anchor="middle" x="0" y="246" transform="translate(239,0)" style="font-family: sans-serif; font-size: 10px; fill: rgb(68, 68, 68); fill-opacity: 1; white-space: pre;">F2</text></g></g><g class="yaxislayer-above"><g class="ytick"><text text-anchor="end" x="74" y="3.5" transform="translate(0,219.21)" style="font-family: sans-serif; font-size: 10px; fill: rgb(68, 68, 68); fill-opacity: 1; white-space: pre;">−0.6</text></g><g class="ytick"><text text-anchor="end" x="74" y="3.5" transform="translate(0,184.31)" style="font-family: sans-serif; font-size: 10px; fill: rgb(68, 68, 68); fill-opacity: 1; white-space: pre;">−0.4</text></g><g class="ytick"><text text-anchor="end" x="74" y="3.5" transform="translate(0,149.42)" style="font-family: sans-serif; font-size: 10px; fill: rgb(68, 68, 68); fill-opacity: 1; white-space: pre;">−0.2</text></g><g class="ytick"><text text-anchor="end" x="74" y="3.5" transform="translate(0,114.52)" style="font-family: sans-serif; font-size: 10px; fill: rgb(68, 68, 68); fill-opacity: 1; white-space: pre;">0</text></g><g class="ytick"><text text-anchor="end" x="74" y="3.5" transform="translate(0,79.62)" style="font-family: sans-serif; font-size: 10px; fill: rgb(68, 68, 68); fill-opacity: 1; white-space: pre;">0.2</text></g><g class="ytick"><text text-anchor="end" x="74" y="3.5" transform="translate(0,44.730000000000004)" style="font-family: sans-serif; font-size: 10px; fill: rgb(68, 68, 68); fill-opacity: 1; white-space: pre;">0.4</text></g></g><g class="overaxes-above"/></g><g class="subplot x3y3"><g class="layer-subplot"><g class="shapelayer"/><g class="imagelayer"/></g><g class="gridlayer"><g class="x3"/><g class="y3"><path class="y3grid crisp" transform="translate(0,219.21)" d="M299.22,0h106.56000000000003" style="stroke: rgb(255, 255, 255); stroke-opacity: 1; stroke-width: 1px;"/><path class="y3grid crisp" transform="translate(0,184.31)" d="M299.22,0h106.56000000000003" style="stroke: rgb(255, 255, 255); stroke-opacity: 1; stroke-width: 1px;"/><path class="y3grid crisp" transform="translate(0,149.42)" d="M299.22,0h106.56000000000003" style="stroke: rgb(255, 255, 255); stroke-opacity: 1; stroke-width: 1px;"/><path class="y3grid crisp" transform="translate(0,79.62)" d="M299.22,0h106.56000000000003" style="stroke: rgb(255, 255, 255); stroke-opacity: 1; stroke-width: 1px;"/><path class="y3grid crisp" transform="translate(0,44.730000000000004)" d="M299.22,0h106.56000000000003" style="stroke: rgb(255, 255, 255); stroke-opacity: 1; stroke-width: 1px;"/></g></g><g class="zerolinelayer"><path class="y3zl zl crisp" transform="translate(0,114.52)" d="M299.22,0h106.56000000000003" style="stroke: rgb(255, 255, 255); stroke-opacity: 1; stroke-width: 1px;"/></g><path class="xlines-below"/><path class="ylines-below"/><g class="overlines-below"/><g class="xaxislayer-below"/><g class="yaxislayer-below"/><g class="overaxes-below"/><g class="plot" transform="translate(299.22, 20)" clip-path="url('#clip0fecd8x3y3plot')"><g class="barlayer mlayer"><g class="trace bars" style="opacity: 1;"><g class="points"><g class="point"><path d="M5.33,94.52V102.41H26.64V94.52Z" style="vector-effect: non-scaling-stroke; opacity: 1; stroke-width: 1.5px; fill: rgb(89, 88, 88); fill-opacity: 1; stroke: rgb(16, 16, 16); stroke-opacity: 1;"/></g><g class="point"><path d="M58.61,94.52V153.72H79.92V94.52Z" style="vector-effect: non-scaling-stroke; opacity: 1; stroke-width: 1.5px; fill: rgb(89, 88, 88); fill-opacity: 1; stroke: rgb(16, 16, 16); stroke-opacity: 1;"/></g></g><g class="errorbar"><path class="yerror" d="M11.98,84.36h8m-4,0V120.46m-4,0h8" style="vector-effect: non-scaling-stroke; stroke-width: 1.5px; stroke: rgb(16, 16, 16); stroke-opacity: 1;"/></g><g class="errorbar"><path class="yerror" d="M65.26,132.15h8m-4,0V175.29m-4,0h8" style="vector-effect: non-scaling-stroke; stroke-width: 1.5px; stroke: rgb(16, 16, 16); stroke-opacity: 1;"/></g></g><g class="trace bars" style="opacity: 1;"><g class="points"><g class="point"><path d="M26.64,94.52V92.84H47.95V94.52Z" style="vector-effect: non-scaling-stroke; opacity: 1; stroke-width: 1.5px; fill: rgb(251, 251, 250); fill-opacity: 1; stroke: rgb(16, 16, 16); stroke-opacity: 1;"/></g><g class="point"><path d="M79.92,94.52V81.94H101.23V94.52Z" style="vector-effect: non-scaling-stroke; opacity: 1; stroke-width: 1.5px; fill: rgb(251, 251, 250); fill-opacity: 1; stroke: rgb(16, 16, 16); stroke-opacity: 1;"/></g></g><g class="errorbar"><path class="yerror" d="M33.3,84.02h8m-4,0V101.67m-4,0h8" style="vector-effect: non-scaling-stroke; stroke-width: 1.5px; stroke: rgb(16, 16, 16); stroke-opacity: 1;"/></g><g class="errorbar"><path class="yerror" d="M86.58,73.61h8m-4,0V90.27m-4,0h8" style="vector-effect: non-scaling-stroke; stroke-width: 1.5px; stroke: rgb(16, 16, 16); stroke-opacity: 1;"/></g></g></g></g><g class="overplot"/><path class="xlines-above crisp" d="M0,0" style="fill: none;"/><path class="ylines-above crisp" d="M0,0" style="fill: none;"/><g class="overlines-above"/><g class="xaxislayer-above"><g class="x3tick"><text text-anchor="middle" x="0" y="246" transform="translate(325.86,0)" style="font-family: sans-serif; font-size: 10px; fill: rgb(68, 68, 68); fill-opacity: 1; white-space: pre;">F1</text></g><g class="x3tick"><text text-anchor="middle" x="0" y="246" transform="translate(379.14000000000004,0)" style="font-family: sans-serif; font-size: 10px; fill: rgb(68, 68, 68); fill-opacity: 1; white-space: pre;">F2</text></g></g><g class="yaxislayer-above"/><g class="overaxes-above"/></g><g class="subplot x4y4"><g class="layer-subplot"><g class="shapelayer"/><g class="imagelayer"/></g><g class="gridlayer"><g class="x4"/><g class="y4"><path class="y4grid crisp" transform="translate(0,219.21)" d="M411.33000000000004,0h106.55999999999997" style="stroke: rgb(255, 255, 255); stroke-opacity: 1; stroke-width: 1px;"/><path class="y4grid crisp" transform="translate(0,184.31)" d="M411.33000000000004,0h106.55999999999997" style="stroke: rgb(255, 255, 255); stroke-opacity: 1; stroke-width: 1px;"/><path class="y4grid crisp" transform="translate(0,149.42)" d="M411.33000000000004,0h106.55999999999997" style="stroke: rgb(255, 255, 255); stroke-opacity: 1; stroke-width: 1px;"/><path class="y4grid crisp" transform="translate(0,79.62)" d="M411.33000000000004,0h106.55999999999997" style="stroke: rgb(255, 255, 255); stroke-opacity: 1; stroke-width: 1px;"/><path class="y4grid crisp" transform="translate(0,44.730000000000004)" d="M411.33000000000004,0h106.55999999999997" style="stroke: rgb(255, 255, 255); stroke-opacity: 1; stroke-width: 1px;"/></g></g><g class="zerolinelayer"><path class="y4zl zl crisp" transform="translate(0,114.52)" d="M411.33000000000004,0h106.55999999999997" style="stroke: rgb(255, 255, 255); stroke-opacity: 1; stroke-width: 1px;"/></g><path class="xlines-below"/><path class="ylines-below"/><g class="overlines-below"/><g class="xaxislayer-below"/><g class="yaxislayer-below"/><g class="overaxes-below"/><g class="plot" transform="translate(411.33000000000004, 20)" clip-path="url('#clip0fecd8x4y4plot')"><g class="barlayer mlayer"><g class="trace bars" style="opacity: 1;"><g class="points"><g class="point"><path d="M5.33,94.52V124.69H26.64V94.52Z" style="vector-effect: non-scaling-stroke; opacity: 1; stroke-width: 1.5px; fill: rgb(89, 88, 88); fill-opacity: 1; stroke: rgb(16, 16, 16); stroke-opacity: 1;"/></g><g class="point"><path d="M58.61,94.52V104.11H79.92V94.52Z" style="vector-effect: non-scaling-stroke; opacity: 1; stroke-width: 1.5px; fill: rgb(89, 88, 88); fill-opacity: 1; stroke: rgb(16, 16, 16); stroke-opacity: 1;"/></g></g><g class="errorbar"><path class="yerror" d="M11.98,115.29h8m-4,0V134.08m-4,0h8" style="vector-effect: non-scaling-stroke; stroke-width: 1.5px; stroke: rgb(16, 16, 16); stroke-opacity: 1;"/></g><g class="errorbar"><path class="yerror" d="M65.26,94.49h8m-4,0V113.74m-4,0h8" style="vector-effect: non-scaling-stroke; stroke-width: 1.5px; stroke: rgb(16, 16, 16); stroke-opacity: 1;"/></g></g><g class="trace bars" style="opacity: 1;"><g class="points"><g class="point"><path d="M26.64,94.52V23.09H47.95V94.52Z" style="vector-effect: non-scaling-stroke; opacity: 1; stroke-width: 1.5px; fill: rgb(251, 251, 250); fill-opacity: 1; stroke: rgb(16, 16, 16); stroke-opacity: 1;"/></g><g class="point"><path d="M79.92,94.52V71.8H101.23V94.52Z" style="vector-effect: non-scaling-stroke; opacity: 1; stroke-width: 1.5px; fill: rgb(251, 251, 250); fill-opacity: 1; stroke: rgb(16, 16, 16); stroke-opacity: 1;"/></g></g><g class="errorbar"><path class="yerror" d="M33.3,10.07h8m-4,0V36.1m-4,0h8" style="vector-effect: non-scaling-stroke; stroke-width: 1.5px; stroke: rgb(16, 16, 16); stroke-opacity: 1;"/></g><g class="errorbar"><path class="yerror" d="M86.58,58.03h8m-4,0V85.58m-4,0h8" style="vector-effect: non-scaling-stroke; stroke-width: 1.5px; stroke: rgb(16, 16, 16); stroke-opacity: 1;"/></g></g></g></g><g class="overplot"/><path class="xlines-above crisp" d="M0,0" style="fill: none;"/><path class="ylines-above crisp" d="M0,0" style="fill: none;"/><g class="overlines-above"/><g class="xaxislayer-above"><g class="x4tick"><text text-anchor="middle" x="0" y="246" transform="translate(437.97,0)" style="font-family: sans-serif; font-size: 10px; fill: rgb(68, 68, 68); fill-opacity: 1; white-space: pre;">F1</text></g><g class="x4tick"><text text-anchor="middle" x="0" y="246" transform="translate(491.25000000000006,0)" style="font-family: sans-serif; font-size: 10px; fill: rgb(68, 68, 68); fill-opacity: 1; white-space: pre;">F2</text></g></g><g class="yaxislayer-above"/><g class="overaxes-above"/></g><g class="subplot x5y5"><g class="layer-subplot"><g class="shapelayer"/><g class="imagelayer"/></g><g class="gridlayer"><g class="x5"/><g class="y5"><path class="y5grid crisp" transform="translate(0,219.21)" d="M523.44,0h106.55999999999997" style="stroke: rgb(255, 255, 255); stroke-opacity: 1; stroke-width: 1px;"/><path class="y5grid crisp" transform="translate(0,184.31)" d="M523.44,0h106.55999999999997" style="stroke: rgb(255, 255, 255); stroke-opacity: 1; stroke-width: 1px;"/><path class="y5grid crisp" transform="translate(0,149.42)" d="M523.44,0h106.55999999999997" style="stroke: rgb(255, 255, 255); stroke-opacity: 1; stroke-width: 1px;"/><path class="y5grid crisp" transform="translate(0,79.62)" d="M523.44,0h106.55999999999997" style="stroke: rgb(255, 255, 255); stroke-opacity: 1; stroke-width: 1px;"/><path class="y5grid crisp" transform="translate(0,44.730000000000004)" d="M523.44,0h106.55999999999997" style="stroke: rgb(255, 255, 255); stroke-opacity: 1; stroke-width: 1px;"/></g></g><g class="zerolinelayer"><path class="y5zl zl crisp" transform="translate(0,114.52)" d="M523.44,0h106.55999999999997" style="stroke: rgb(255, 255, 255); stroke-opacity: 1; stroke-width: 1px;"/></g><path class="xlines-below"/><path class="ylines-below"/><g class="overlines-below"/><g class="xaxislayer-below"/><g class="yaxislayer-below"/><g class="overaxes-below"/><g class="plot" transform="translate(523.44, 20)" clip-path="url('#clip0fecd8x5y5plot')"><g class="barlayer mlayer"><g class="trace bars" style="opacity: 1;"><g class="points"><g class="point"><path d="M5.33,94.52V95.55H26.64V94.52Z" style="vector-effect: non-scaling-stroke; opacity: 1; stroke-width: 1.5px; fill: rgb(89, 88, 88); fill-opacity: 1; stroke: rgb(16, 16, 16); stroke-opacity: 1;"/></g><g class="point"><path d="M58.61,94.52V88.2H79.92V94.52Z" style="vector-effect: non-scaling-stroke; opacity: 1; stroke-width: 1.5px; fill: rgb(89, 88, 88); fill-opacity: 1; stroke: rgb(16, 16, 16); stroke-opacity: 1;"/></g></g><g class="errorbar"><path class="yerror" d="M11.98,87.26h8m-4,0V103.84m-4,0h8" style="vector-effect: non-scaling-stroke; stroke-width: 1.5px; stroke: rgb(16, 16, 16); stroke-opacity: 1;"/></g><g class="errorbar"><path class="yerror" d="M65.26,80.11h8m-4,0V96.28m-4,0h8" style="vector-effect: non-scaling-stroke; stroke-width: 1.5px; stroke: rgb(16, 16, 16); stroke-opacity: 1;"/></g></g><g class="trace bars" style="opacity: 1;"><g class="points"><g class="point"><path d="M26.64,94.52V81.67H47.95V94.52Z" style="vector-effect: non-scaling-stroke; opacity: 1; stroke-width: 1.5px; fill: rgb(251, 251, 250); fill-opacity: 1; stroke: rgb(16, 16, 16); stroke-opacity: 1;"/></g><g class="point"><path d="M79.92,94.52V173.4H101.23V94.52Z" style="vector-effect: non-scaling-stroke; opacity: 1; stroke-width: 1.5px; fill: rgb(251, 251, 250); fill-opacity: 1; stroke: rgb(16, 16, 16); stroke-opacity: 1;"/></g></g><g class="errorbar"><path class="yerror" d="M33.3,54.54h8m-4,0V108.81m-4,0h8" style="vector-effect: non-scaling-stroke; stroke-width: 1.5px; stroke: rgb(16, 16, 16); stroke-opacity: 1;"/></g><g class="errorbar"><path class="yerror" d="M86.58,140.24h8m-4,0V206.55m-4,0h8" style="vector-effect: non-scaling-stroke; stroke-width: 1.5px; stroke: rgb(16, 16, 16); stroke-opacity: 1;"/></g></g></g></g><g class="overplot"/><path class="xlines-above crisp" d="M0,0" style="fill: none;"/><path class="ylines-above crisp" d="M0,0" style="fill: none;"/><g class="overlines-above"/><g class="xaxislayer-above"><g class="x5tick"><text text-anchor="middle" x="0" y="246" transform="translate(550.08,0)" style="font-family: sans-serif; font-size: 10px; fill: rgb(68, 68, 68); fill-opacity: 1; white-space: pre;">F1</text></g><g class="x5tick"><text text-anchor="middle" x="0" y="246" transform="translate(603.36,0)" style="font-family: sans-serif; font-size: 10px; fill: rgb(68, 68, 68); fill-opacity: 1; white-space: pre;">F2</text></g></g><g class="yaxislayer-above"/><g class="overaxes-above"/></g></g><g class="polarlayer"/><g class="ternarylayer"/><g class="geolayer"/><g class="funnelarealayer"/><g class="pielayer"/><g class="treemaplayer"/><g class="sunburstlayer"/><g class="glimages"/><defs id="topdefs-0fecd8"><g class="clips"/></defs><g class="layer-above"><g class="imagelayer"/><g class="shapelayer"/></g><g class="infolayer"><g class="g-gtitle"/><g class="g-xtitle"/><g class="g-x3title"/><g class="g-x4title"/><g class="g-x5title"/><g class="g-ytitle"><text class="ytitle" transform="rotate(-90,41,127.5)" x="41" y="127.5" text-anchor="middle" style="font-family: sans-serif; font-size: 12px; fill: rgb(68, 68, 68); opacity: 1; font-weight: normal; white-space: pre;">SD Units</text></g><g class="g-y3title"/><g class="g-y4title"/><g class="g-y5title"/></g></svg>