<svg class="main-svg" xmlns="http://www.w3.org/2000/svg" xmlns:xlink="http://www.w3.org/1999/xlink" width="400" height="275" viewBox="0 0 400 275"><rect x="0" y="0" width="400" height="275" style="fill: rgb(255, 255, 255); fill-opacity: 1;"/><defs id="defs-a6f9fa"><g class="clips"><clipPath id="clipa6f9faxyplot" class="plotclip"><rect width="222" height="180"/></clipPath><clipPath class="axesclip" id="clipa6f9fax"><rect x="70" y="0" width="222" height="275"/></clipPath><clipPath class="axesclip" id="clipa6f9fay"><rect x="0" y="20" width="400" height="180"/></clipPath><clipPath class="axesclip" id="clipa6f9faxy"><rect x="70" y="20" width="222" height="180"/></clipPath></g><g class="gradients"/></defs><g class="bglayer"><rect class="bg" x="70" y="20" width="222" height="180" style="fill: rgb(1, 1, 1); fill-opacity: 0.1; stroke-width: 0;"/></g><g class="layer-below"><g class="imagelayer"/><g class="shapelayer"/></g><g class="cartesianlayer"><g class="subplot xy"><g class="layer-subplot"><g class="shapelayer"/><g class="imagelayer"/></g><g class="gridlayer"><g class="x"/><g class="y"><path class="ygrid crisp" transform="translate(0,182.86)" d="M70,0h222" style="stroke: rgb(255, 255, 255); stroke-opacity: 1; stroke-width: 1px;"/><path class="ygrid crisp" transform="translate(0,148.57)" d="M70,0h222" style="stroke: rgb(255, 255, 255); stroke-opacity: 1; stroke-width: 1px;"/><path class="ygrid crisp" transform="translate(0,114.29)" d="M70,0h222" style="stroke: rgb(255, 255, 255); stroke-opacity: 1; stroke-width: 1px;"/><path class="ygrid crisp" transform="translate(0,45.71)" d="M70,0h222" style="stroke: rgb(255, 255, 255); stroke-opacity: 1; stroke-width: 1px;"/></g></g><g class="zerolinelayer"><path class="yzl zl crisp" transform="translate(0,80)" d="M70,0h222" style="stroke: rgb(255, 255, 255); stroke-opacity: 1; stroke-width: 1px;"/></g><path class="xlines-below"/><path class="ylines-below"/><g class="overlines-below"/><g class="xaxislayer-below"/><g class="yaxislayer-below"/><g class="overaxes-below"/><g class="plot" transform="translate(70, 20)" clip-path="url('#clipa6f9faxyplot')"><g class="barlayer mlayer"><g class="trace bars" style="opacity: 1;"><g class="points"><g class="point"><path d="M4.44,60V55.88H16.28V60Z" style="vector-effect: non-scaling-stroke; opacity: 1; stroke-width: 1.5px; fill: rgb(66, 65, 65); fill-opacity: 1; stroke: rgb(16, 16, 16); stroke-opacity: 1;"/></g><g class="point"><path d="M182.04,60V119H193.88V60Z" style="vector-effect: non-scaling-stroke; opacity: 1; stroke-width: 1.5px; fill: rgb(66, 65, 65); fill-opacity: 1; stroke: rgb(16, 16, 16); stroke-opacity: 1;"/></g><g class="point"><path d="M137.64,60V146.53H149.48V60Z" style="vector-effect: non-scaling-stroke; opacity: 1; stroke-width: 1.5px; fill: rgb(66, 65, 65); fill-opacity: 1; stroke: rgb(16, 16, 16); stroke-opacity: 1;"/></g><g class="point"><path d="M48.84,60V118H60.68V60Z" style="vector-effect: non-scaling-stroke; opacity: 1; stroke-width: 1.5px; fill: rgb(66, 65, 65); fill-opacity: 1; stroke: rgb(16, 16, 16); stroke-opacity: 1;"/></g><g class="point"><path d="M93.24,60V118.69H105.08V60Z" style="vector-effect: non-scaling-stroke; opacity: 1; stroke-width: 1.5px; fill: rgb(66, 65, 65); fill-opacity: 1; stroke: rgb(16, 16, 16); stroke-opacity: 1;"/></g></g><g class="errorbar"><path class="yerror" d="M6.359999999999999,43.08h8m-4,0V68.69m-4,0h8" style="vector-effect: non-scaling-stroke; stroke-width: 1.5px; stroke: rgb(16, 16, 16); stroke-opacity: 1;"/></g><g class="errorbar"><path class="yerror" d="M183.96,106.19h8m-4,0V131.81m-4,0h8" style="vector-effect: non-scaling-stroke; stroke-width: 1.5px; stroke: rgb(16, 16, 16); stroke-opacity: 1;"/></g><g class="errorbar"><path class="yerror" d="M139.56,132.99h8m-4,0V160.08m-4,0h8" style="vector-effect: non-scaling-stroke; stroke-width: 1.5px; stroke: rgb(16, 16, 16); stroke-opacity: 1;"/></g><g class="errorbar"><path class="yerror" d="M50.76,103.48h8m-4,0V132.52m-4,0h8" style="vector-effect: non-scaling-stroke; stroke-width: 1.5px; stroke: rgb(16, 16, 16); stroke-opacity: 1;"/></g><g class="errorbar"><path class="yerror" d="M95.16,106.16h8m-4,0V131.21m-4,0h8" style="vector-effect: non-scaling-stroke; stroke-width: 1.5px; stroke: rgb(16, 16, 16); stroke-opacity: 1;"/></g></g><g class="trace bars" style="opacity: 1;"><g class="points"><g class="point"><path d="M16.28,60V52.94H28.12V60Z" style="vector-effect: non-scaling-stroke; opacity: 1; stroke-width: 1.5px; fill: rgb(149, 149, 148); fill-opacity: 1; stroke: rgb(16, 16, 16); stroke-opacity: 1;"/></g><g class="point"><path d="M193.88,60V77.03H205.72V60Z" style="vector-effect: non-scaling-stroke; opacity: 1; stroke-width: 1.5px; fill: rgb(149, 149, 148); fill-opacity: 1; stroke: rgb(16, 16, 16); stroke-opacity: 1;"/></g><g class="point"><path d="M149.48,60V101.33H161.32V60Z" style="vector-effect: non-scaling-stroke; opacity: 1; stroke-width: 1.5px; fill: rgb(149, 149, 148); fill-opacity: 1; stroke: rgb(16, 16, 16); stroke-opacity: 1;"/></g><g class="point"><path d="M60.68,60V77.12H72.52V60Z" style="vector-effect: non-scaling-stroke; opacity: 1; stroke-width: 1.5px; fill: rgb(149, 149, 148); fill-opacity: 1; stroke: rgb(16, 16, 16); stroke-opacity: 1;"/></g><g class="point"><path d="M105.08,60V85.53H116.92V60Z" style="vector-effect: non-scaling-stroke; opacity: 1; stroke-width: 1.5px; fill: rgb(149, 149, 148); fill-opacity: 1; stroke: rgb(16, 16, 16); stroke-opacity: 1;"/></g></g><g class="errorbar"><path class="yerror" d="M18.2,41.21h8m-4,0V64.66m-4,0h8" style="vector-effect: non-scaling-stroke; stroke-width: 1.5px; stroke: rgb(16, 16, 16); stroke-opacity: 1;"/></g><g class="errorbar"><path class="yerror" d="M195.8,66.03h8m-4,0V88.03m-4,0h8" style="vector-effect: non-scaling-stroke; stroke-width: 1.5px; stroke: rgb(16, 16, 16); stroke-opacity: 1;"/></g><g class="errorbar"><path class="yerror" d="M151.4,89.14h8m-4,0V113.53m-4,0h8" style="vector-effect: non-scaling-stroke; stroke-width: 1.5px; stroke: rgb(16, 16, 16); stroke-opacity: 1;"/></g><g class="errorbar"><path class="yerror" d="M62.599999999999994,64.15h8m-4,0V90.08m-4,0h8" style="vector-effect: non-scaling-stroke; stroke-width: 1.5px; stroke: rgb(16, 16, 16); stroke-opacity: 1;"/></g><g class="errorbar"><path class="yerror" d="M107,73.2h8m-4,0V97.86m-4,0h8" style="vector-effect: non-scaling-stroke; stroke-width: 1.5px; stroke: rgb(16, 16, 16); stroke-opacity: 1;"/></g></g><g class="trace bars" style="opacity: 1;"><g class="points"><g class="point"><path d="M28.12,60V46.07H39.96V60Z" style="vector-effect: non-scaling-stroke; opacity: 1; stroke-width: 1.5px; fill: rgb(251, 251, 250); fill-opacity: 1; stroke: rgb(16, 16, 16); stroke-opacity: 1;"/></g><g class="point"><path d="M205.72,60V63.21H217.56V60Z" style="vector-effect: non-scaling-stroke; opacity: 1; stroke-width: 1.5px; fill: rgb(251, 251, 250); fill-opacity: 1; stroke: rgb(16, 16, 16); stroke-opacity: 1;"/></g><g class="point"><path d="M161.32,60V83.65H173.16V60Z" style="vector-effect: non-scaling-stroke; opacity: 1; stroke-width: 1.5px; fill: rgb(251, 251, 250); fill-opacity: 1; stroke: rgb(16, 16, 16); stroke-opacity: 1;"/></g><g class="point"><path d="M72.52,60V79.34H84.36V60Z" style="vector-effect: non-scaling-stroke; opacity: 1; stroke-width: 1.5px; fill: rgb(251, 251, 250); fill-opacity: 1; stroke: rgb(16, 16, 16); stroke-opacity: 1;"/></g><g class="point"><path d="M116.92,60V63.87H128.76V60Z" style="vector-effect: non-scaling-stroke; opacity: 1; stroke-width: 1.5px; fill: rgb(251, 251, 250); fill-opacity: 1; stroke: rgb(16, 16, 16); stroke-opacity: 1;"/></g></g><g class="errorbar"><path class="yerror" d="M30.04,35.52h8m-4,0V56.61m-4,0h8" style="vector-effect: non-scaling-stroke; stroke-width: 1.5px; stroke: rgb(16, 16, 16); stroke-opacity: 1;"/></g><g class="errorbar"><path class="yerror" d="M207.64,52.12h8m-4,0V74.3m-4,0h8" style="vector-effect: non-scaling-stroke; stroke-width: 1.5px; stroke: rgb(16, 16, 16); stroke-opacity: 1;"/></g><g class="errorbar"><path class="yerror" d="M163.24,71.92h8m-4,0V95.38m-4,0h8" style="vector-effect: non-scaling-stroke; stroke-width: 1.5px; stroke: rgb(16, 16, 16); stroke-opacity: 1;"/></g><g class="errorbar"><path class="yerror" d="M74.44,67.44h8m-4,0V91.23m-4,0h8" style="vector-effect: non-scaling-stroke; stroke-width: 1.5px; stroke: rgb(16, 16, 16); stroke-opacity: 1;"/></g><g class="errorbar"><path class="yerror" d="M118.84,50.49h8m-4,0V77.25m-4,0h8" style="vector-effect: non-scaling-stroke; stroke-width: 1.5px; stroke: rgb(16, 16, 16); stroke-opacity: 1;"/></g></g></g></g><g class="overplot"/><path class="xlines-above crisp" d="M0,0" style="fill: none;"/><path class="ylines-above crisp" d="M0,0" style="fill: none;"/><g class="overlines-above"/><g class="xaxislayer-above"><g class="xtick"><text text-anchor="start" x="0" y="211" transform="translate(92.2,0) rotate(30,0,206)" style="font-family: sans-serif; font-size: 10px; fill: rgb(68, 68, 68); fill-opacity: 1; white-space: pre;">STM</text></g><g class="xtick"><text text-anchor="start" x="0" y="211" transform="translate(136.6,0) rotate(30,0,206)" style="font-family: sans-serif; font-size: 10px; fill: rgb(68, 68, 68); fill-opacity: 1; white-space: pre;">reasoning</text></g><g class="xtick"><text text-anchor="start" x="0" y="211" transform="translate(181,0) rotate(30,0,206)" style="font-family: sans-serif; font-size: 10px; fill: rgb(68, 68, 68); fill-opacity: 1; white-space: pre;">verbal</text></g><g class="xtick"><text text-anchor="start" x="0" y="211" transform="translate(225.4,0) rotate(30,0,206)" style="font-family: sans-serif; font-size: 10px; fill: rgb(68, 68, 68); fill-opacity: 1; white-space: pre;">processing_speed</text></g><g class="xtick"><text text-anchor="start" x="0" y="211" transform="translate(269.8,0) rotate(30,0,206)" style="font-family: sans-serif; font-size: 10px; fill: rgb(68, 68, 68); fill-opacity: 1; white-space: pre;">overall</text></g></g><g class="yaxislayer-above"><g class="ytick"><text text-anchor="end" x="69" y="3.5" transform="translate(0,182.86)" style="font-family: sans-serif; font-size: 10px; fill: rgb(68, 68, 68); fill-opacity: 1; white-space: pre;">−0.6</text></g><g class="ytick"><text text-anchor="end" x="69" y="3.5" transform="translate(0,148.57)" style="font-family: sans-serif; font-size: 10px; fill: rgb(68, 68, 68); fill-opacity: 1; white-space: pre;">−0.4</text></g><g class="ytick"><text text-anchor="end" x="69" y="3.5" transform="translate(0,114.29)" style="font-family: sans-serif; font-size: 10px; fill: rgb(68, 68, 68); fill-opacity: 1; white-space: pre;">−0.2</text></g><g class="ytick"><text text-anchor="end" x="69" y="3.5" transform="translate(0,80)" style="font-family: sans-serif; font-size: 10px; fill: rgb(68, 68, 68); fill-opacity: 1; white-space: pre;">0</text></g><g class="ytick"><text text-anchor="end" x="69" y="3.5" transform="translate(0,45.71)" style="font-family: sans-serif; font-size: 10px; fill: rgb(68, 68, 68); fill-opacity: 1; white-space: pre;">0.2</text></g></g><g class="overaxes-above"/></g></g><g class="polarlayer"/><g class="ternarylayer"/><g class="geolayer"/><g class="funnelarealayer"/><g class="pielayer"/><g class="treemaplayer"/><g class="sunburstlayer"/><g class="glimages"/><defs id="topdefs-a6f9fa"><g class="clips"/><clipPath id="legenda6f9fa"><rect width="92" height="80" x="0" y="0"/></clipPath></defs><g class="layer-above"><g class="imagelayer"/><g class="shapelayer"/></g><g class="infolayer"><g class="legend" pointer-events="all" transform="translate(296.44, 20)"><rect class="bg" shape-rendering="crispEdges" width="92" height="80" x="0" y="0" style="stroke: rgb(68, 68, 68); stroke-opacity: 1; fill: rgb(255, 255, 255); fill-opacity: 1; stroke-width: 0px;"/><g class="scrollbox" transform="translate(0, 0)" clip-path="url('#legenda6f9fa')"><text class="legendtitletext user-select-none" text-anchor="start" x="2" y="13" style="font-family: sans-serif; font-size: 10px; fill: rgb(68, 68, 68); fill-opacity: 1; white-space: pre;">F1 (physical health)</text><g class="groups"><g class="traces" transform="translate(0, 27.5)" style="opacity: 1;"><text class="legendtext user-select-none" text-anchor="start" x="40" y="3.9" style="font-family: sans-serif; font-size: 10px; fill: rgb(68, 68, 68); fill-opacity: 1; white-space: pre;">better</text><g class="layers" style="opacity: 1;"><g class="legendfill"/><g class="legendlines"/><g class="legendsymbols"><g class="legendpoints"><path class="legendundefined" d="M6,6H-6V-6H6Z" transform="translate(20,0)" style="stroke-width: 1.5px; fill: rgb(251, 251, 250); fill-opacity: 1; stroke: rgb(16, 16, 16); stroke-opacity: 1;"/></g></g></g><rect class="legendtoggle" pointer-events="all" x="0" y="-9.5" width="76.125" height="19" style="cursor: pointer; fill: rgb(0, 0, 0); fill-opacity: 0;"/></g><g class="traces" transform="translate(0, 46.5)" style="opacity: 1;"><text class="legendtext user-select-none" text-anchor="start" x="40" y="3.9" style="font-family: sans-serif; font-size: 10px; fill: rgb(68, 68, 68); fill-opacity: 1; white-space: pre;">average</text><g class="layers" style="opacity: 1;"><g class="legendfill"/><g class="legendlines"/><g class="legendsymbols"><g class="legendpoints"><path class="legendundefined" d="M6,6H-6V-6H6Z" transform="translate(20,0)" style="stroke-width: 1.5px; fill: rgb(149, 149, 148); fill-opacity: 1; stroke: rgb(16, 16, 16); stroke-opacity: 1;"/></g></g></g><rect class="legendtoggle" pointer-events="all" x="0" y="-9.5" width="76.125" height="19" style="cursor: pointer; fill: rgb(0, 0, 0); fill-opacity: 0;"/></g><g class="traces" transform="translate(0, 65.5)" style="opacity: 1;"><text class="legendtext user-select-none" text-anchor="start" x="40" y="3.9" style="font-family: sans-serif; font-size: 10px; fill: rgb(68, 68, 68); fill-opacity: 1; white-space: pre;">worse</text><g class="layers" style="opacity: 1;"><g class="legendfill"/><g class="legendlines"/><g class="legendsymbols"><g class="legendpoints"><path class="legendundefined" d="M6,6H-6V-6H6Z" transform="translate(20,0)" style="stroke-width: 1.5px; fill: rgb(66, 65, 65); fill-opacity: 1; stroke: rgb(16, 16, 16); stroke-opacity: 1;"/></g></g></g><rect class="legendtoggle" pointer-events="all" x="0" y="-9.5" width="76.125" height="19" style="cursor: pointer; fill: rgb(0, 0, 0); fill-opacity: 0;"/></g></g></g><rect class="scrollbar" rx="20" ry="3" width="0" height="0" x="0" y="0" style="fill: rgb(128, 139, 164); fill-opacity: 1;"/></g><g class="g-gtitle"/><g class="g-xtitle"/><g class="g-ytitle"><text class="ytitle" transform="rotate(-90,36,110)" x="36" y="110" text-anchor="middle" style="font-family: sans-serif; font-size: 12px; fill: rgb(68, 68, 68); opacity: 1; font-weight: normal; white-space: pre;">SD Units</text></g></g></svg>