<svg class="main-svg" xmlns="http://www.w3.org/2000/svg" xmlns:xlink="http://www.w3.org/1999/xlink" width="650" height="275" viewBox="0 0 650 275"><rect x="0" y="0" width="650" height="275" style="fill: rgb(255, 255, 255); fill-opacity: 1;"/><defs id="defs-76608f"><g class="clips"><clipPath id="clip76608fxyplot" class="plotclip"><rect width="218.67000000000002" height="215"/></clipPath><clipPath id="clip76608fx3y3plot" class="plotclip"><rect width="106.56000000000003" height="215"/></clipPath><clipPath id="clip76608fx4y4plot" class="plotclip"><rect width="106.55999999999997" height="215"/></clipPath><clipPath id="clip76608fx5y5plot" class="plotclip"><rect width="106.55999999999997" height="215"/></clipPath><clipPath class="axesclip" id="clip76608fx"><rect x="75" y="0" width="218.67000000000002" height="275"/></clipPath><clipPath class="axesclip" id="clip76608fy"><rect x="0" y="20" width="650" height="215"/></clipPath><clipPath class="axesclip" id="clip76608fxy"><rect x="75" y="20" width="218.67000000000002" height="215"/></clipPath><clipPath class="axesclip" id="clip76608fy3"><rect x="0" y="20" width="650" height="215"/></clipPath><clipPath class="axesclip" id="clip76608fxy3"><rect x="75" y="20" width="218.67000000000002" height="215"/></clipPath><clipPath class="axesclip" id="clip76608fy4"><rect x="0" y="20" width="650" height="215"/></clipPath><clipPath class="axesclip" id="clip76608fxy4"><rect x="75" y="20" width="218.67000000000002" height="215"/></clipPath><clipPath class="axesclip" id="clip76608fy5"><rect x="0" y="20" width="650" height="215"/></clipPath><clipPath class="axesclip" id="clip76608fxy5"><rect x="75" y="20" width="218.67000000000002" height="215"/></clipPath><clipPath class="axesclip" id="clip76608fx3"><rect x="299.22" y="0" width="106.56000000000003" height="275"/></clipPath><clipPath class="axesclip" id="clip76608fx3y"><rect x="299.22" y="20" width="106.56000000000003" height="215"/></clipPath><clipPath class="axesclip" id="clip76608fx3y3"><rect x="299.22" y="20" width="106.56000000000003" height="215"/></clipPath><clipPath class="axesclip" id="clip76608fx3y4"><rect x="299.22" y="20" width="106.56000000000003" height="215"/></clipPath><clipPath class="axesclip" id="clip76608fx3y5"><rect x="299.22" y="20" width="106.56000000000003" height="215"/></clipPath><clipPath class="axesclip" id="clip76608fx4"><rect x="411.33000000000004" y="0" width="106.55999999999997" height="275"/></clipPath><clipPath class="axesclip" id="clip76608fx4y"><rect x="411.33000000000004" y="20" width="106.55999999999997" height="215"/></clipPath><clipPath class="axesclip" id="clip76608fx4y3"><rect x="411.33000000000004" y="20" width="106.55999999999997" height="215"/></clipPath><clipPath class="axesclip" id="clip76608fx4y4"><rect x="411.33000000000004" y="20" width="106.55999999999997" height="215"/></clipPath><clipPath class="axesclip" id="clip76608fx4y5"><rect x="411.33000000000004" y="20" width="106.55999999999997" height="215"/></clipPath><clipPath class="axesclip" id="clip76608fx5"><rect x="523.44" y="0" width="106.55999999999997" height="275"/></clipPath><clipPath class="axesclip" id="clip76608fx5y"><rect x="523.44" y="20" width="106.55999999999997" height="215"/></clipPath><clipPath class="axesclip" id="clip76608fx5y3"><rect x="523.44" y="20" width="106.55999999999997" height="215"/></clipPath><clipPath class="axesclip" id="clip76608fx5y4"><rect x="523.44" y="20" width="106.55999999999997" height="215"/></clipPath><clipPath class="axesclip" id="clip76608fx5y5"><rect x="523.44" y="20" width="106.55999999999997" height="215"/></clipPath></g><g class="gradients"/></defs><g class="bglayer"><rect class="bg" x="75" y="20" width="218.67000000000002" height="215" style="fill: rgb(1, 1, 1); fill-opacity: 0.1; stroke-width: 0;"/><rect class="bg" x="299.22" y="20" width="106.56000000000003" height="215" style="fill: rgb(1, 1, 1); fill-opacity: 0.1; stroke-width: 0;"/><rect class="bg" x="411.33000000000004" y="20" width="106.55999999999997" height="215" style="fill: rgb(1, 1, 1); fill-opacity: 0.1; stroke-width: 0;"/><rect class="bg" x="523.44" y="20" width="106.55999999999997" height="215" style="fill: rgb(1, 1, 1); fill-opacity: 0.1; stroke-width: 0;"/></g><g class="layer-below"><g class="imagelayer"/><g class="shapelayer"/></g><g class="cartesianlayer"><g class="subplot xy"><g class="layer-subplot"><g class="shapelayer"/><g class="imagelayer"/></g><g class="gridlayer"><g class="x"/><g class="y"><path class="ygrid crisp" transform="translate(0,217.1)" d="M75,0h218.67000000000002" style="stroke: rgb(255, 255, 255); stroke-opacity: 1; stroke-width: 1px;"/><path class="ygrid crisp" transform="translate(0,183.14)" d="M75,0h218.67000000000002" style="stroke: rgb(255, 255, 255); stroke-opacity: 1; stroke-width: 1px;"/><path class="ygrid crisp" transform="translate(0,149.18)" d="M75,0h218.67000000000002" style="stroke: rgb(255, 255, 255); stroke-opacity: 1; stroke-width: 1px;"/><path class="ygrid crisp" transform="translate(0,81.25999999999999)" d="M75,0h218.67000000000002" style="stroke: rgb(255, 255, 255); stroke-opacity: 1; stroke-width: 1px;"/><path class="ygrid crisp" transform="translate(0,47.3)" d="M75,0h218.67000000000002" style="stroke: rgb(255, 255, 255); stroke-opacity: 1; stroke-width: 1px;"/></g></g><g class="zerolinelayer"><path class="yzl zl crisp" transform="translate(0,115.22)" d="M75,0h218.67000000000002" style="stroke: rgb(255, 255, 255); stroke-opacity: 1; stroke-width: 2px;"/></g><path class="xlines-below"/><path class="ylines-below"/><g class="overlines-below"/><g class="xaxislayer-below"/><g class="yaxislayer-below"/><g class="overaxes-below"/><g class="plot" transform="translate(75,20)" clip-path="url('#clip76608fxyplot')"><g class="barlayer mlayer"><g class="trace bars" style="opacity: 1;"><g class="points"><g class="point"><path d="M10.93,95.22V27.19H40.09V95.22Z" style="vector-effect: non-scaling-stroke; opacity: 1; stroke-width: 1.5px; fill: rgb(89, 88, 88); fill-opacity: 1; stroke: rgb(16, 16, 16); stroke-opacity: 1;"/></g><g class="point"><path d="M120.27,95.22V129.63H149.42V95.22Z" style="vector-effect: non-scaling-stroke; opacity: 1; stroke-width: 1.5px; fill: rgb(89, 88, 88); fill-opacity: 1; stroke: rgb(16, 16, 16); stroke-opacity: 1;"/></g></g><g class="errorbar"><path class="yerror" d="M21.51,10.75h8m-4,0V43.63m-4,0h8" style="vector-effect: non-scaling-stroke; stroke-width: 1.5px; stroke: rgb(16, 16, 16); stroke-opacity: 1;"/></g><g class="errorbar"><path class="yerror" d="M130.85,113.29h8m-4,0V145.97m-4,0h8" style="vector-effect: non-scaling-stroke; stroke-width: 1.5px; stroke: rgb(16, 16, 16); stroke-opacity: 1;"/></g></g><g class="trace bars" style="opacity: 1;"><g class="points"><g class="point"><path d="M40.09,95.22V114.81H69.25V95.22Z" style="vector-effect: non-scaling-stroke; opacity: 1; stroke-width: 1.5px; fill: rgb(164, 164, 163); fill-opacity: 1; stroke: rgb(16, 16, 16); stroke-opacity: 1;"/></g><g class="point"><path d="M149.42,95.22V93.4H178.58V95.22Z" style="vector-effect: non-scaling-stroke; opacity: 1; stroke-width: 1.5px; fill: rgb(164, 164, 163); fill-opacity: 1; stroke: rgb(16, 16, 16); stroke-opacity: 1;"/></g></g><g class="errorbar"><path class="yerror" d="M50.67,105.58h8m-4,0V124.04m-4,0h8" style="vector-effect: non-scaling-stroke; stroke-width: 1.5px; stroke: rgb(16, 16, 16); stroke-opacity: 1;"/></g><g class="errorbar"><path class="yerror" d="M160,84.15h8m-4,0V102.65m-4,0h8" style="vector-effect: non-scaling-stroke; stroke-width: 1.5px; stroke: rgb(16, 16, 16); stroke-opacity: 1;"/></g></g><g class="trace bars" style="opacity: 1;"><g class="points"><g class="point"><path d="M69.25,95.22V97.81H98.4V95.22Z" style="vector-effect: non-scaling-stroke; opacity: 1; stroke-width: 1.5px; fill: rgb(251, 251, 250); fill-opacity: 1; stroke: rgb(16, 16, 16); stroke-opacity: 1;"/></g><g class="point"><path d="M178.58,95.22V40.9H207.74V95.22Z" style="vector-effect: non-scaling-stroke; opacity: 1; stroke-width: 1.5px; fill: rgb(251, 251, 250); fill-opacity: 1; stroke: rgb(16, 16, 16); stroke-opacity: 1;"/></g></g><g class="errorbar"><path class="yerror" d="M79.82,75.18h8m-4,0V120.43m-4,0h8" style="vector-effect: non-scaling-stroke; stroke-width: 1.5px; stroke: rgb(16, 16, 16); stroke-opacity: 1;"/></g><g class="errorbar"><path class="yerror" d="M189.16,15.1h8m-4,0V66.69m-4,0h8" style="vector-effect: non-scaling-stroke; stroke-width: 1.5px; stroke: rgb(16, 16, 16); stroke-opacity: 1;"/></g></g></g></g><g class="overplot"/><path class="xlines-above crisp" d="M0,0" style="fill: none;"/><path class="ylines-above crisp" d="M0,0" style="fill: none;"/><g class="overlines-above"/><g class="xaxislayer-above"><g class="xtick"><text text-anchor="middle" x="0" y="246" transform="translate(129.67000000000002,0)" style="font-family: sans-serif; font-size: 10px; fill: rgb(68, 68, 68); fill-opacity: 1; white-space: pre;">F1</text></g><g class="xtick"><text text-anchor="middle" x="0" y="246" transform="translate(239,0)" style="font-family: sans-serif; font-size: 10px; fill: rgb(68, 68, 68); fill-opacity: 1; white-space: pre;">F2</text></g></g><g class="yaxislayer-above"><g class="ytick"><text text-anchor="end" x="74" y="3.5" transform="translate(0,217.1)" style="font-family: sans-serif; font-size: 10px; fill: rgb(68, 68, 68); fill-opacity: 1; white-space: pre;">−0.6</text></g><g class="ytick"><text text-anchor="end" x="74" y="3.5" transform="translate(0,183.14)" style="font-family: sans-serif; font-size: 10px; fill: rgb(68, 68, 68); fill-opacity: 1; white-space: pre;">−0.4</text></g><g class="ytick"><text text-anchor="end" x="74" y="3.5" transform="translate(0,149.18)" style="font-family: sans-serif; font-size: 10px; fill: rgb(68, 68, 68); fill-opacity: 1; white-space: pre;">−0.2</text></g><g class="ytick"><text text-anchor="end" x="74" y="3.5" transform="translate(0,115.22)" style="font-family: sans-serif; font-size: 10px; fill: rgb(68, 68, 68); fill-opacity: 1; white-space: pre;">0</text></g><g class="ytick"><text text-anchor="end" x="74" y="3.5" transform="translate(0,81.25999999999999)" style="font-family: sans-serif; font-size: 10px; fill: rgb(68, 68, 68); fill-opacity: 1; white-space: pre;">0.2</text></g><g class="ytick"><text text-anchor="end" x="74" y="3.5" transform="translate(0,47.3)" style="font-family: sans-serif; font-size: 10px; fill: rgb(68, 68, 68); fill-opacity: 1; white-space: pre;">0.4</text></g></g><g class="overaxes-above"/></g><g class="subplot x3y3"><g class="layer-subplot"><g class="shapelayer"/><g class="imagelayer"/></g><g class="gridlayer"><g class="x3"/><g class="y3"><path class="y3grid crisp" transform="translate(0,217.1)" d="M299.22,0h106.56000000000003" style="stroke: rgb(255, 255, 255); stroke-opacity: 1; stroke-width: 1px;"/><path class="y3grid crisp" transform="translate(0,183.14)" d="M299.22,0h106.56000000000003" style="stroke: rgb(255, 255, 255); stroke-opacity: 1; stroke-width: 1px;"/><path class="y3grid crisp" transform="translate(0,149.18)" d="M299.22,0h106.56000000000003" style="stroke: rgb(255, 255, 255); stroke-opacity: 1; stroke-width: 1px;"/><path class="y3grid crisp" transform="translate(0,81.25999999999999)" d="M299.22,0h106.56000000000003" style="stroke: rgb(255, 255, 255); stroke-opacity: 1; stroke-width: 1px;"/><path class="y3grid crisp" transform="translate(0,47.3)" d="M299.22,0h106.56000000000003" style="stroke: rgb(255, 255, 255); stroke-opacity: 1; stroke-width: 1px;"/></g></g><g class="zerolinelayer"><path class="y3zl zl crisp" transform="translate(0,115.22)" d="M299.22,0h106.56000000000003" style="stroke: rgb(255, 255, 255); stroke-opacity: 1; stroke-width: 1px;"/></g><path class="xlines-below"/><path class="ylines-below"/><g class="overlines-below"/><g class="xaxislayer-below"/><g class="yaxislayer-below"/><g class="overaxes-below"/><g class="plot" transform="translate(299.22,20)" clip-path="url('#clip76608fx3y3plot')"><g class="barlayer mlayer"><g class="trace bars" style="opacity: 1;"><g class="points"><g class="point"><path d="M5.33,95.22V102.9H26.64V95.22Z" style="vector-effect: non-scaling-stroke; opacity: 1; stroke-width: 1.5px; fill: rgb(89, 88, 88); fill-opacity: 1; stroke: rgb(16, 16, 16); stroke-opacity: 1;"/></g><g class="point"><path d="M58.61,95.22V152.83H79.92V95.22Z" style="vector-effect: non-scaling-stroke; opacity: 1; stroke-width: 1.5px; fill: rgb(89, 88, 88); fill-opacity: 1; stroke: rgb(16, 16, 16); stroke-opacity: 1;"/></g></g><g class="errorbar"><path class="yerror" d="M11.98,85.33h8m-4,0V120.47m-4,0h8" style="vector-effect: non-scaling-stroke; stroke-width: 1.5px; stroke: rgb(16, 16, 16); stroke-opacity: 1;"/></g><g class="errorbar"><path class="yerror" d="M65.26,131.84h8m-4,0V173.82m-4,0h8" style="vector-effect: non-scaling-stroke; stroke-width: 1.5px; stroke: rgb(16, 16, 16); stroke-opacity: 1;"/></g></g><g class="trace bars" style="opacity: 1;"><g class="points"><g class="point"><path d="M26.64,95.22V93.59H47.95V95.22Z" style="vector-effect: non-scaling-stroke; opacity: 1; stroke-width: 1.5px; fill: rgb(251, 251, 250); fill-opacity: 1; stroke: rgb(16, 16, 16); stroke-opacity: 1;"/></g><g class="point"><path d="M79.92,95.22V82.98H101.23V95.22Z" style="vector-effect: non-scaling-stroke; opacity: 1; stroke-width: 1.5px; fill: rgb(251, 251, 250); fill-opacity: 1; stroke: rgb(16, 16, 16); stroke-opacity: 1;"/></g></g><g class="errorbar"><path class="yerror" d="M33.3,85h8m-4,0V102.18m-4,0h8" style="vector-effect: non-scaling-stroke; stroke-width: 1.5px; stroke: rgb(16, 16, 16); stroke-opacity: 1;"/></g><g class="errorbar"><path class="yerror" d="M86.58,74.87h8m-4,0V91.09m-4,0h8" style="vector-effect: non-scaling-stroke; stroke-width: 1.5px; stroke: rgb(16, 16, 16); stroke-opacity: 1;"/></g></g></g></g><g class="overplot"/><path class="xlines-above crisp" d="M0,0" style="fill: none;"/><path class="ylines-above crisp" d="M0,0" style="fill: none;"/><g class="overlines-above"/><g class="xaxislayer-above"><g class="x3tick"><text text-anchor="middle" x="0" y="246" transform="translate(325.86,0)" style="font-family: sans-serif; font-size: 10px; fill: rgb(68, 68, 68); fill-opacity: 1; white-space: pre;">F1</text></g><g class="x3tick"><text text-anchor="middle" x="0" y="246" transform="translate(379.14000000000004,0)" style="font-family: sans-serif; font-size: 10px; fill: rgb(68, 68, 68); fill-opacity: 1; white-space: pre;">F2</text></g></g><g class="yaxislayer-above"/><g class="overaxes-above"/></g><g class="subplot x4y4"><g class="layer-subplot"><g class="shapelayer"/><g class="imagelayer"/></g><g class="gridlayer"><g class="x4"/><g class="y4"><path class="y4grid crisp" transform="translate(0,217.1)" d="M411.33000000000004,0h106.55999999999997" style="stroke: rgb(255, 255, 255); stroke-opacity: 1; stroke-width: 1px;"/><path class="y4grid crisp" transform="translate(0,183.14)" d="M411.33000000000004,0h106.55999999999997" style="stroke: rgb(255, 255, 255); stroke-opacity: 1; stroke-width: 1px;"/><path class="y4grid crisp" transform="translate(0,149.18)" d="M411.33000000000004,0h106.55999999999997" style="stroke: rgb(255, 255, 255); stroke-opacity: 1; stroke-width: 1px;"/><path class="y4grid crisp" transform="translate(0,81.25999999999999)" d="M411.33000000000004,0h106.55999999999997" style="stroke: rgb(255, 255, 255); stroke-opacity: 1; stroke-width: 1px;"/><path class="y4grid crisp" transform="translate(0,47.3)" d="M411.33000000000004,0h106.55999999999997" style="stroke: rgb(255, 255, 255); stroke-opacity: 1; stroke-width: 1px;"/></g></g><g class="zerolinelayer"><path class="y4zl zl crisp" transform="translate(0,115.22)" d="M411.33000000000004,0h106.55999999999997" style="stroke: rgb(255, 255, 255); stroke-opacity: 1; stroke-width: 1px;"/></g><path class="xlines-below"/><path class="ylines-below"/><g class="overlines-below"/><g class="xaxislayer-below"/><g class="yaxislayer-below"/><g class="overaxes-below"/><g class="plot" transform="translate(411.33000000000004,20)" clip-path="url('#clip76608fx4y4plot')"><g class="barlayer mlayer"><g class="trace bars" style="opacity: 1;"><g class="points"><g class="point"><path d="M5.33,95.22V124.58H26.64V95.22Z" style="vector-effect: non-scaling-stroke; opacity: 1; stroke-width: 1.5px; fill: rgb(89, 88, 88); fill-opacity: 1; stroke: rgb(16, 16, 16); stroke-opacity: 1;"/></g><g class="point"><path d="M58.61,95.22V104.56H79.92V95.22Z" style="vector-effect: non-scaling-stroke; opacity: 1; stroke-width: 1.5px; fill: rgb(89, 88, 88); fill-opacity: 1; stroke: rgb(16, 16, 16); stroke-opacity: 1;"/></g></g><g class="errorbar"><path class="yerror" d="M11.98,115.44h8m-4,0V133.72m-4,0h8" style="vector-effect: non-scaling-stroke; stroke-width: 1.5px; stroke: rgb(16, 16, 16); stroke-opacity: 1;"/></g><g class="errorbar"><path class="yerror" d="M65.26,95.19h8m-4,0V113.93m-4,0h8" style="vector-effect: non-scaling-stroke; stroke-width: 1.5px; stroke: rgb(16, 16, 16); stroke-opacity: 1;"/></g></g><g class="trace bars" style="opacity: 1;"><g class="points"><g class="point"><path d="M26.64,95.22V25.7H47.95V95.22Z" style="vector-effect: non-scaling-stroke; opacity: 1; stroke-width: 1.5px; fill: rgb(251, 251, 250); fill-opacity: 1; stroke: rgb(16, 16, 16); stroke-opacity: 1;"/></g><g class="point"><path d="M79.92,95.22V73.11H101.23V95.22Z" style="vector-effect: non-scaling-stroke; opacity: 1; stroke-width: 1.5px; fill: rgb(251, 251, 250); fill-opacity: 1; stroke: rgb(16, 16, 16); stroke-opacity: 1;"/></g></g><g class="errorbar"><path class="yerror" d="M33.3,13.04h8m-4,0V38.37m-4,0h8" style="vector-effect: non-scaling-stroke; stroke-width: 1.5px; stroke: rgb(16, 16, 16); stroke-opacity: 1;"/></g><g class="errorbar"><path class="yerror" d="M86.58,59.71h8m-4,0V86.52m-4,0h8" style="vector-effect: non-scaling-stroke; stroke-width: 1.5px; stroke: rgb(16, 16, 16); stroke-opacity: 1;"/></g></g></g></g><g class="overplot"/><path class="xlines-above crisp" d="M0,0" style="fill: none;"/><path class="ylines-above crisp" d="M0,0" style="fill: none;"/><g class="overlines-above"/><g class="xaxislayer-above"><g class="x4tick"><text text-anchor="middle" x="0" y="246" transform="translate(437.97,0)" style="font-family: sans-serif; font-size: 10px; fill: rgb(68, 68, 68); fill-opacity: 1; white-space: pre;">F1</text></g><g class="x4tick"><text text-anchor="middle" x="0" y="246" transform="translate(491.25000000000006,0)" style="font-family: sans-serif; font-size: 10px; fill: rgb(68, 68, 68); fill-opacity: 1; white-space: pre;">F2</text></g></g><g class="yaxislayer-above"/><g class="overaxes-above"/></g><g class="subplot x5y5"><g class="layer-subplot"><g class="shapelayer"/><g class="imagelayer"/></g><g class="gridlayer"><g class="x5"/><g class="y5"><path class="y5grid crisp" transform="translate(0,217.1)" d="M523.44,0h106.55999999999997" style="stroke: rgb(255, 255, 255); stroke-opacity: 1; stroke-width: 1px;"/><path class="y5grid crisp" transform="translate(0,183.14)" d="M523.44,0h106.55999999999997" style="stroke: rgb(255, 255, 255); stroke-opacity: 1; stroke-width: 1px;"/><path class="y5grid crisp" transform="translate(0,149.18)" d="M523.44,0h106.55999999999997" style="stroke: rgb(255, 255, 255); stroke-opacity: 1; stroke-width: 1px;"/><path class="y5grid crisp" transform="translate(0,81.25999999999999)" d="M523.44,0h106.55999999999997" style="stroke: rgb(255, 255, 255); stroke-opacity: 1; stroke-width: 1px;"/><path class="y5grid crisp" transform="translate(0,47.3)" d="M523.44,0h106.55999999999997" style="stroke: rgb(255, 255, 255); stroke-opacity: 1; stroke-width: 1px;"/></g></g><g class="zerolinelayer"><path class="y5zl zl crisp" transform="translate(0,115.22)" d="M523.44,0h106.55999999999997" style="stroke: rgb(255, 255, 255); stroke-opacity: 1; stroke-width: 1px;"/></g><path class="xlines-below"/><path class="ylines-below"/><g class="overlines-below"/><g class="xaxislayer-below"/><g class="yaxislayer-below"/><g class="overaxes-below"/><g class="plot" transform="translate(523.44,20)" clip-path="url('#clip76608fx5y5plot')"><g class="barlayer mlayer"><g class="trace bars" style="opacity: 1;"><g class="points"><g class="point"><path d="M5.33,95.22V96.22H26.64V95.22Z" style="vector-effect: non-scaling-stroke; opacity: 1; stroke-width: 1.5px; fill: rgb(89, 88, 88); fill-opacity: 1; stroke: rgb(16, 16, 16); stroke-opacity: 1;"/></g><g class="point"><path d="M58.61,95.22V89.07H79.92V95.22Z" style="vector-effect: non-scaling-stroke; opacity: 1; stroke-width: 1.5px; fill: rgb(89, 88, 88); fill-opacity: 1; stroke: rgb(16, 16, 16); stroke-opacity: 1;"/></g></g><g class="errorbar"><path class="yerror" d="M11.98,88.15h8m-4,0V104.29m-4,0h8" style="vector-effect: non-scaling-stroke; stroke-width: 1.5px; stroke: rgb(16, 16, 16); stroke-opacity: 1;"/></g><g class="errorbar"><path class="yerror" d="M65.26,81.2h8m-4,0V96.93m-4,0h8" style="vector-effect: non-scaling-stroke; stroke-width: 1.5px; stroke: rgb(16, 16, 16); stroke-opacity: 1;"/></g></g><g class="trace bars" style="opacity: 1;"><g class="points"><g class="point"><path d="M26.64,95.22V82.72H47.95V95.22Z" style="vector-effect: non-scaling-stroke; opacity: 1; stroke-width: 1.5px; fill: rgb(251, 251, 250); fill-opacity: 1; stroke: rgb(16, 16, 16); stroke-opacity: 1;"/></g><g class="point"><path d="M79.92,95.22V171.98H101.23V95.22Z" style="vector-effect: non-scaling-stroke; opacity: 1; stroke-width: 1.5px; fill: rgb(251, 251, 250); fill-opacity: 1; stroke: rgb(16, 16, 16); stroke-opacity: 1;"/></g></g><g class="errorbar"><path class="yerror" d="M33.3,56.32h8m-4,0V109.13m-4,0h8" style="vector-effect: non-scaling-stroke; stroke-width: 1.5px; stroke: rgb(16, 16, 16); stroke-opacity: 1;"/></g><g class="errorbar"><path class="yerror" d="M86.58,139.72h8m-4,0V204.25m-4,0h8" style="vector-effect: non-scaling-stroke; stroke-width: 1.5px; stroke: rgb(16, 16, 16); stroke-opacity: 1;"/></g></g></g></g><g class="overplot"/><path class="xlines-above crisp" d="M0,0" style="fill: none;"/><path class="ylines-above crisp" d="M0,0" style="fill: none;"/><g class="overlines-above"/><g class="xaxislayer-above"><g class="x5tick"><text text-anchor="middle" x="0" y="246" transform="translate(550.08,0)" style="font-family: sans-serif; font-size: 10px; fill: rgb(68, 68, 68); fill-opacity: 1; white-space: pre;">F1</text></g><g class="x5tick"><text text-anchor="middle" x="0" y="246" transform="translate(603.36,0)" style="font-family: sans-serif; font-size: 10px; fill: rgb(68, 68, 68); fill-opacity: 1; white-space: pre;">F2</text></g></g><g class="yaxislayer-above"/><g class="overaxes-above"/></g></g><g class="polarlayer"/><g class="ternarylayer"/><g class="geolayer"/><g class="funnelarealayer"/><g class="pielayer"/><g class="treemaplayer"/><g class="sunburstlayer"/><g class="glimages"/><defs id="topdefs-76608f"><g class="clips"/></defs><g class="layer-above"><g class="imagelayer"/><g class="shapelayer"/></g><g class="infolayer"><g class="g-gtitle"/><g class="g-xtitle"/><g class="g-x3title"/><g class="g-x4title"/><g class="g-x5title"/><g class="g-ytitle"><text class="ytitle" transform="rotate(-90,41,127.5)" x="41" y="127.5" text-anchor="middle" style="font-family: sans-serif; font-size: 12px; fill: rgb(68, 68, 68); opacity: 1; font-weight: normal; white-space: pre;">SD Units</text></g><g class="g-y3title"/><g class="g-y4title"/><g class="g-y5title"/></g></svg>