<svg class="main-svg" xmlns="http://www.w3.org/2000/svg" xmlns:xlink="http://www.w3.org/1999/xlink" width="400" height="275" viewBox="0 0 400 275"><rect x="0" y="0" width="400" height="275" style="fill: rgb(255, 255, 255); fill-opacity: 1;"/><defs id="defs-eb43da"><g class="clips"><clipPath id="clipeb43daxyplot" class="plotclip"><rect width="222" height="180"/></clipPath><clipPath class="axesclip" id="clipeb43dax"><rect x="70" y="0" width="222" height="275"/></clipPath><clipPath class="axesclip" id="clipeb43day"><rect x="0" y="20" width="400" height="180"/></clipPath><clipPath class="axesclip" id="clipeb43daxy"><rect x="70" y="20" width="222" height="180"/></clipPath></g><g class="gradients"/></defs><g class="bglayer"><rect class="bg" x="70" y="20" width="222" height="180" style="fill: rgb(1, 1, 1); fill-opacity: 0.1; stroke-width: 0;"/></g><g class="layer-below"><g class="imagelayer"/><g class="shapelayer"/></g><g class="cartesianlayer"><g class="subplot xy"><g class="layer-subplot"><g class="shapelayer"/><g class="imagelayer"/></g><g class="gridlayer"><g class="x"/><g class="y"><path class="ygrid crisp" transform="translate(0,182.86)" d="M70,0h222" style="stroke: rgb(255, 255, 255); stroke-opacity: 1; stroke-width: 1px;"/><path class="ygrid crisp" transform="translate(0,148.57)" d="M70,0h222" style="stroke: rgb(255, 255, 255); stroke-opacity: 1; stroke-width: 1px;"/><path class="ygrid crisp" transform="translate(0,114.29)" d="M70,0h222" style="stroke: rgb(255, 255, 255); stroke-opacity: 1; stroke-width: 1px;"/><path class="ygrid crisp" transform="translate(0,45.71)" d="M70,0h222" style="stroke: rgb(255, 255, 255); stroke-opacity: 1; stroke-width: 1px;"/></g></g><g class="zerolinelayer"><path class="yzl zl crisp" transform="translate(0,80)" d="M70,0h222" style="stroke: rgb(255, 255, 255); stroke-opacity: 1; stroke-width: 1px;"/></g><path class="xlines-below"/><path class="ylines-below"/><g class="overlines-below"/><g class="xaxislayer-below"/><g class="yaxislayer-below"/><g class="overaxes-below"/><g class="plot" transform="translate(70, 20)" clip-path="url('#clipeb43daxyplot')"><g class="barlayer mlayer"><g class="trace bars" style="opacity: 1;"><g class="points"><g class="point"><path d="M4.44,60V54.4H16.28V60Z" style="vector-effect: non-scaling-stroke; opacity: 1; stroke-width: 1.5px; fill: rgb(66, 65, 65); fill-opacity: 1; stroke: rgb(16, 16, 16); stroke-opacity: 1;"/></g><g class="point"><path d="M182.04,60V99.07H193.88V60Z" style="vector-effect: non-scaling-stroke; opacity: 1; stroke-width: 1.5px; fill: rgb(66, 65, 65); fill-opacity: 1; stroke: rgb(16, 16, 16); stroke-opacity: 1;"/></g><g class="point"><path d="M137.64,60V105.49H149.48V60Z" style="vector-effect: non-scaling-stroke; opacity: 1; stroke-width: 1.5px; fill: rgb(66, 65, 65); fill-opacity: 1; stroke: rgb(16, 16, 16); stroke-opacity: 1;"/></g><g class="point"><path d="M48.84,60V110.43H60.68V60Z" style="vector-effect: non-scaling-stroke; opacity: 1; stroke-width: 1.5px; fill: rgb(66, 65, 65); fill-opacity: 1; stroke: rgb(16, 16, 16); stroke-opacity: 1;"/></g><g class="point"><path d="M93.24,60V86.99H105.08V60Z" style="vector-effect: non-scaling-stroke; opacity: 1; stroke-width: 1.5px; fill: rgb(66, 65, 65); fill-opacity: 1; stroke: rgb(16, 16, 16); stroke-opacity: 1;"/></g></g><g class="errorbar"><path class="yerror" d="M6.359999999999999,42.12h8m-4,0V66.67m-4,0h8" style="vector-effect: non-scaling-stroke; stroke-width: 1.5px; stroke: rgb(16, 16, 16); stroke-opacity: 1;"/></g><g class="errorbar"><path class="yerror" d="M183.96,86.14h8m-4,0V112m-4,0h8" style="vector-effect: non-scaling-stroke; stroke-width: 1.5px; stroke: rgb(16, 16, 16); stroke-opacity: 1;"/></g><g class="errorbar"><path class="yerror" d="M139.56,92.66h8m-4,0V118.32m-4,0h8" style="vector-effect: non-scaling-stroke; stroke-width: 1.5px; stroke: rgb(16, 16, 16); stroke-opacity: 1;"/></g><g class="errorbar"><path class="yerror" d="M50.76,96.52h8m-4,0V124.35m-4,0h8" style="vector-effect: non-scaling-stroke; stroke-width: 1.5px; stroke: rgb(16, 16, 16); stroke-opacity: 1;"/></g><g class="errorbar"><path class="yerror" d="M95.16,74.63h8m-4,0V99.35m-4,0h8" style="vector-effect: non-scaling-stroke; stroke-width: 1.5px; stroke: rgb(16, 16, 16); stroke-opacity: 1;"/></g></g><g class="trace bars" style="opacity: 1;"><g class="points"><g class="point"><path d="M16.28,60V49.34H28.12V60Z" style="vector-effect: non-scaling-stroke; opacity: 1; stroke-width: 1.5px; fill: rgb(149, 149, 148); fill-opacity: 1; stroke: rgb(16, 16, 16); stroke-opacity: 1;"/></g><g class="point"><path d="M193.88,60V84.78H205.72V60Z" style="vector-effect: non-scaling-stroke; opacity: 1; stroke-width: 1.5px; fill: rgb(149, 149, 148); fill-opacity: 1; stroke: rgb(16, 16, 16); stroke-opacity: 1;"/></g><g class="point"><path d="M149.48,60V114.41H161.32V60Z" style="vector-effect: non-scaling-stroke; opacity: 1; stroke-width: 1.5px; fill: rgb(149, 149, 148); fill-opacity: 1; stroke: rgb(16, 16, 16); stroke-opacity: 1;"/></g><g class="point"><path d="M60.68,60V84.03H72.52V60Z" style="vector-effect: non-scaling-stroke; opacity: 1; stroke-width: 1.5px; fill: rgb(149, 149, 148); fill-opacity: 1; stroke: rgb(16, 16, 16); stroke-opacity: 1;"/></g><g class="point"><path d="M105.08,60V98.32H116.92V60Z" style="vector-effect: non-scaling-stroke; opacity: 1; stroke-width: 1.5px; fill: rgb(149, 149, 148); fill-opacity: 1; stroke: rgb(16, 16, 16); stroke-opacity: 1;"/></g></g><g class="errorbar"><path class="yerror" d="M18.2,37.4h8m-4,0V61.27m-4,0h8" style="vector-effect: non-scaling-stroke; stroke-width: 1.5px; stroke: rgb(16, 16, 16); stroke-opacity: 1;"/></g><g class="errorbar"><path class="yerror" d="M195.8,73.57h8m-4,0V95.99m-4,0h8" style="vector-effect: non-scaling-stroke; stroke-width: 1.5px; stroke: rgb(16, 16, 16); stroke-opacity: 1;"/></g><g class="errorbar"><path class="yerror" d="M151.4,101.01h8m-4,0V127.81m-4,0h8" style="vector-effect: non-scaling-stroke; stroke-width: 1.5px; stroke: rgb(16, 16, 16); stroke-opacity: 1;"/></g><g class="errorbar"><path class="yerror" d="M62.599999999999994,70.89h8m-4,0V97.16m-4,0h8" style="vector-effect: non-scaling-stroke; stroke-width: 1.5px; stroke: rgb(16, 16, 16); stroke-opacity: 1;"/></g><g class="errorbar"><path class="yerror" d="M107,85.15h8m-4,0V111.5m-4,0h8" style="vector-effect: non-scaling-stroke; stroke-width: 1.5px; stroke: rgb(16, 16, 16); stroke-opacity: 1;"/></g></g><g class="trace bars" style="opacity: 1;"><g class="points"><g class="point"><path d="M28.12,60V51.13H39.96V60Z" style="vector-effect: non-scaling-stroke; opacity: 1; stroke-width: 1.5px; fill: rgb(251, 251, 250); fill-opacity: 1; stroke: rgb(16, 16, 16); stroke-opacity: 1;"/></g><g class="point"><path d="M205.72,60V75.44H217.56V60Z" style="vector-effect: non-scaling-stroke; opacity: 1; stroke-width: 1.5px; fill: rgb(251, 251, 250); fill-opacity: 1; stroke: rgb(16, 16, 16); stroke-opacity: 1;"/></g><g class="point"><path d="M161.32,60V111.7H173.16V60Z" style="vector-effect: non-scaling-stroke; opacity: 1; stroke-width: 1.5px; fill: rgb(251, 251, 250); fill-opacity: 1; stroke: rgb(16, 16, 16); stroke-opacity: 1;"/></g><g class="point"><path d="M72.52,60V80.03H84.36V60Z" style="vector-effect: non-scaling-stroke; opacity: 1; stroke-width: 1.5px; fill: rgb(251, 251, 250); fill-opacity: 1; stroke: rgb(16, 16, 16); stroke-opacity: 1;"/></g><g class="point"><path d="M116.92,60V82.85H128.76V60Z" style="vector-effect: non-scaling-stroke; opacity: 1; stroke-width: 1.5px; fill: rgb(251, 251, 250); fill-opacity: 1; stroke: rgb(16, 16, 16); stroke-opacity: 1;"/></g></g><g class="errorbar"><path class="yerror" d="M30.04,40.18h8m-4,0V62.08m-4,0h8" style="vector-effect: non-scaling-stroke; stroke-width: 1.5px; stroke: rgb(16, 16, 16); stroke-opacity: 1;"/></g><g class="errorbar"><path class="yerror" d="M207.64,64.31h8m-4,0V86.57m-4,0h8" style="vector-effect: non-scaling-stroke; stroke-width: 1.5px; stroke: rgb(16, 16, 16); stroke-opacity: 1;"/></g><g class="errorbar"><path class="yerror" d="M163.24,99.92h8m-4,0V123.47m-4,0h8" style="vector-effect: non-scaling-stroke; stroke-width: 1.5px; stroke: rgb(16, 16, 16); stroke-opacity: 1;"/></g><g class="errorbar"><path class="yerror" d="M74.44,67.49h8m-4,0V92.58m-4,0h8" style="vector-effect: non-scaling-stroke; stroke-width: 1.5px; stroke: rgb(16, 16, 16); stroke-opacity: 1;"/></g><g class="errorbar"><path class="yerror" d="M118.84,69.8h8m-4,0V95.91m-4,0h8" style="vector-effect: non-scaling-stroke; stroke-width: 1.5px; stroke: rgb(16, 16, 16); stroke-opacity: 1;"/></g></g></g></g><g class="overplot"/><path class="xlines-above crisp" d="M0,0" style="fill: none;"/><path class="ylines-above crisp" d="M0,0" style="fill: none;"/><g class="overlines-above"/><g class="xaxislayer-above"><g class="xtick"><text text-anchor="start" x="0" y="211" transform="translate(92.2,0) rotate(30,0,206)" style="font-family: sans-serif; font-size: 10px; fill: rgb(68, 68, 68); fill-opacity: 1; white-space: pre;">STM</text></g><g class="xtick"><text text-anchor="start" x="0" y="211" transform="translate(136.6,0) rotate(30,0,206)" style="font-family: sans-serif; font-size: 10px; fill: rgb(68, 68, 68); fill-opacity: 1; white-space: pre;">reasoning</text></g><g class="xtick"><text text-anchor="start" x="0" y="211" transform="translate(181,0) rotate(30,0,206)" style="font-family: sans-serif; font-size: 10px; fill: rgb(68, 68, 68); fill-opacity: 1; white-space: pre;">verbal</text></g><g class="xtick"><text text-anchor="start" x="0" y="211" transform="translate(225.4,0) rotate(30,0,206)" style="font-family: sans-serif; font-size: 10px; fill: rgb(68, 68, 68); fill-opacity: 1; white-space: pre;">processing_speed</text></g><g class="xtick"><text text-anchor="start" x="0" y="211" transform="translate(269.8,0) rotate(30,0,206)" style="font-family: sans-serif; font-size: 10px; fill: rgb(68, 68, 68); fill-opacity: 1; white-space: pre;">overall</text></g></g><g class="yaxislayer-above"><g class="ytick"><text text-anchor="end" x="69" y="3.5" transform="translate(0,182.86)" style="font-family: sans-serif; font-size: 10px; fill: rgb(68, 68, 68); fill-opacity: 1; white-space: pre;">−0.6</text></g><g class="ytick"><text text-anchor="end" x="69" y="3.5" transform="translate(0,148.57)" style="font-family: sans-serif; font-size: 10px; fill: rgb(68, 68, 68); fill-opacity: 1; white-space: pre;">−0.4</text></g><g class="ytick"><text text-anchor="end" x="69" y="3.5" transform="translate(0,114.29)" style="font-family: sans-serif; font-size: 10px; fill: rgb(68, 68, 68); fill-opacity: 1; white-space: pre;">−0.2</text></g><g class="ytick"><text text-anchor="end" x="69" y="3.5" transform="translate(0,80)" style="font-family: sans-serif; font-size: 10px; fill: rgb(68, 68, 68); fill-opacity: 1; white-space: pre;">0</text></g><g class="ytick"><text text-anchor="end" x="69" y="3.5" transform="translate(0,45.71)" style="font-family: sans-serif; font-size: 10px; fill: rgb(68, 68, 68); fill-opacity: 1; white-space: pre;">0.2</text></g></g><g class="overaxes-above"/></g></g><g class="polarlayer"/><g class="ternarylayer"/><g class="geolayer"/><g class="funnelarealayer"/><g class="pielayer"/><g class="treemaplayer"/><g class="sunburstlayer"/><g class="glimages"/><defs id="topdefs-eb43da"><g class="clips"/><clipPath id="legendeb43da"><rect width="92" height="80" x="0" y="0"/></clipPath></defs><g class="layer-above"><g class="imagelayer"/><g class="shapelayer"/></g><g class="infolayer"><g class="legend" pointer-events="all" transform="translate(296.44, 20)"><rect class="bg" shape-rendering="crispEdges" width="92" height="80" x="0" y="0" style="stroke: rgb(68, 68, 68); stroke-opacity: 1; fill: rgb(255, 255, 255); fill-opacity: 1; stroke-width: 0px;"/><g class="scrollbox" transform="translate(0, 0)" clip-path="url('#legendeb43da')"><text class="legendtitletext user-select-none" text-anchor="start" x="2" y="13" style="font-family: sans-serif; font-size: 10px; fill: rgb(68, 68, 68); fill-opacity: 1; white-space: pre;">F1 (physical health)</text><g class="groups"><g class="traces" transform="translate(0, 27.5)" style="opacity: 1;"><text class="legendtext user-select-none" text-anchor="start" x="40" y="3.9" style="font-family: sans-serif; font-size: 10px; fill: rgb(68, 68, 68); fill-opacity: 1; white-space: pre;">better</text><g class="layers" style="opacity: 1;"><g class="legendfill"/><g class="legendlines"/><g class="legendsymbols"><g class="legendpoints"><path class="legendundefined" d="M6,6H-6V-6H6Z" transform="translate(20,0)" style="stroke-width: 1.5px; fill: rgb(251, 251, 250); fill-opacity: 1; stroke: rgb(16, 16, 16); stroke-opacity: 1;"/></g></g></g><rect class="legendtoggle" pointer-events="all" x="0" y="-9.5" width="76.125" height="19" style="cursor: pointer; fill: rgb(0, 0, 0); fill-opacity: 0;"/></g><g class="traces" transform="translate(0, 46.5)" style="opacity: 1;"><text class="legendtext user-select-none" text-anchor="start" x="40" y="3.9" style="font-family: sans-serif; font-size: 10px; fill: rgb(68, 68, 68); fill-opacity: 1; white-space: pre;">average</text><g class="layers" style="opacity: 1;"><g class="legendfill"/><g class="legendlines"/><g class="legendsymbols"><g class="legendpoints"><path class="legendundefined" d="M6,6H-6V-6H6Z" transform="translate(20,0)" style="stroke-width: 1.5px; fill: rgb(149, 149, 148); fill-opacity: 1; stroke: rgb(16, 16, 16); stroke-opacity: 1;"/></g></g></g><rect class="legendtoggle" pointer-events="all" x="0" y="-9.5" width="76.125" height="19" style="cursor: pointer; fill: rgb(0, 0, 0); fill-opacity: 0;"/></g><g class="traces" transform="translate(0, 65.5)" style="opacity: 1;"><text class="legendtext user-select-none" text-anchor="start" x="40" y="3.9" style="font-family: sans-serif; font-size: 10px; fill: rgb(68, 68, 68); fill-opacity: 1; white-space: pre;">worse</text><g class="layers" style="opacity: 1;"><g class="legendfill"/><g class="legendlines"/><g class="legendsymbols"><g class="legendpoints"><path class="legendundefined" d="M6,6H-6V-6H6Z" transform="translate(20,0)" style="stroke-width: 1.5px; fill: rgb(66, 65, 65); fill-opacity: 1; stroke: rgb(16, 16, 16); stroke-opacity: 1;"/></g></g></g><rect class="legendtoggle" pointer-events="all" x="0" y="-9.5" width="76.125" height="19" style="cursor: pointer; fill: rgb(0, 0, 0); fill-opacity: 0;"/></g></g></g><rect class="scrollbar" rx="20" ry="3" width="0" height="0" x="0" y="0" style="fill: rgb(128, 139, 164); fill-opacity: 1;"/></g><g class="g-gtitle"/><g class="g-xtitle"/><g class="g-ytitle"><text class="ytitle" transform="rotate(-90,36,110)" x="36" y="110" text-anchor="middle" style="font-family: sans-serif; font-size: 12px; fill: rgb(68, 68, 68); opacity: 1; font-weight: normal; white-space: pre;">SD Units</text></g></g></svg>