<svg class="main-svg" xmlns="http://www.w3.org/2000/svg" xmlns:xlink="http://www.w3.org/1999/xlink" width="400" height="275" viewBox="0 0 400 275"><rect x="0" y="0" width="400" height="275" style="fill: rgb(255, 255, 255); fill-opacity: 1;"/><defs id="defs-2882b8"><g class="clips"><clipPath id="clip2882b8xyplot" class="plotclip"><rect width="251" height="180"/></clipPath><clipPath class="axesclip" id="clip2882b8x"><rect x="70" y="0" width="251" height="275"/></clipPath><clipPath class="axesclip" id="clip2882b8y"><rect x="0" y="20" width="400" height="180"/></clipPath><clipPath class="axesclip" id="clip2882b8xy"><rect x="70" y="20" width="251" height="180"/></clipPath></g><g class="gradients"/></defs><g class="bglayer"><rect class="bg" x="70" y="20" width="251" height="180" style="fill: rgb(1, 1, 1); fill-opacity: 0.1; stroke-width: 0;"/></g><g class="layer-below"><g class="imagelayer"/><g class="shapelayer"/></g><g class="cartesianlayer"><g class="subplot xy"><g class="layer-subplot"><g class="shapelayer"/><g class="imagelayer"/></g><g class="gridlayer"><g class="x"/><g class="y"><path class="ygrid crisp" transform="translate(0,170)" d="M70,0h251" style="stroke: rgb(255, 255, 255); stroke-opacity: 1; stroke-width: 1px;"/><path class="ygrid crisp" transform="translate(0,140)" d="M70,0h251" style="stroke: rgb(255, 255, 255); stroke-opacity: 1; stroke-width: 1px;"/><path class="ygrid crisp" transform="translate(0,110)" d="M70,0h251" style="stroke: rgb(255, 255, 255); stroke-opacity: 1; stroke-width: 1px;"/><path class="ygrid crisp" transform="translate(0,50)" d="M70,0h251" style="stroke: rgb(255, 255, 255); stroke-opacity: 1; stroke-width: 1px;"/></g></g><g class="zerolinelayer"><path class="yzl zl crisp" transform="translate(0,80)" d="M70,0h251" style="stroke: rgb(255, 255, 255); stroke-opacity: 1; stroke-width: 1px;"/></g><path class="xlines-below"/><path class="ylines-below"/><g class="overlines-below"/><g class="xaxislayer-below"/><g class="yaxislayer-below"/><g class="overaxes-below"/><g class="plot" transform="translate(70, 20)" clip-path="url('#clip2882b8xyplot')"><g class="barlayer mlayer"><g class="trace bars" style="opacity: 1;"><g class="points"><g class="point"><path d="M5.02,60V28.75H25.1V60Z" style="vector-effect: non-scaling-stroke; opacity: 1; stroke-width: 1.5px; fill: rgb(72, 72, 72); fill-opacity: 1; stroke: rgb(16, 16, 16); stroke-opacity: 1;"/></g><g class="point"><path d="M205.82,60V100.65H225.9V60Z" style="vector-effect: non-scaling-stroke; opacity: 1; stroke-width: 1.5px; fill: rgb(72, 72, 72); fill-opacity: 1; stroke: rgb(16, 16, 16); stroke-opacity: 1;"/></g><g class="point"><path d="M155.62,60V143.12H175.7V60Z" style="vector-effect: non-scaling-stroke; opacity: 1; stroke-width: 1.5px; fill: rgb(72, 72, 72); fill-opacity: 1; stroke: rgb(16, 16, 16); stroke-opacity: 1;"/></g><g class="point"><path d="M55.22,60V130.55H75.3V60Z" style="vector-effect: non-scaling-stroke; opacity: 1; stroke-width: 1.5px; fill: rgb(72, 72, 72); fill-opacity: 1; stroke: rgb(16, 16, 16); stroke-opacity: 1;"/></g><g class="point"><path d="M105.42,60V99.76H125.5V60Z" style="vector-effect: non-scaling-stroke; opacity: 1; stroke-width: 1.5px; fill: rgb(72, 72, 72); fill-opacity: 1; stroke: rgb(16, 16, 16); stroke-opacity: 1;"/></g></g><g class="errorbar"><path class="yerror" d="M11.06,12.41h8m-4,0V45.1m-4,0h8" style="vector-effect: non-scaling-stroke; stroke-width: 1.5px; stroke: rgb(16, 16, 16); stroke-opacity: 1;"/></g><g class="errorbar"><path class="yerror" d="M211.86,82.87h8m-4,0V118.42m-4,0h8" style="vector-effect: non-scaling-stroke; stroke-width: 1.5px; stroke: rgb(16, 16, 16); stroke-opacity: 1;"/></g><g class="errorbar"><path class="yerror" d="M161.66,124.1h8m-4,0V162.15m-4,0h8" style="vector-effect: non-scaling-stroke; stroke-width: 1.5px; stroke: rgb(16, 16, 16); stroke-opacity: 1;"/></g><g class="errorbar"><path class="yerror" d="M61.260000000000005,112.13h8m-4,0V148.98m-4,0h8" style="vector-effect: non-scaling-stroke; stroke-width: 1.5px; stroke: rgb(16, 16, 16); stroke-opacity: 1;"/></g><g class="errorbar"><path class="yerror" d="M111.46,84.18h8m-4,0V115.33m-4,0h8" style="vector-effect: non-scaling-stroke; stroke-width: 1.5px; stroke: rgb(16, 16, 16); stroke-opacity: 1;"/></g></g><g class="trace bars" style="opacity: 1;"><g class="points"><g class="point"><path d="M25.1,60V56.51H45.18V60Z" style="vector-effect: non-scaling-stroke; opacity: 1; stroke-width: 1.5px; fill: rgb(251, 251, 250); fill-opacity: 1; stroke: rgb(16, 16, 16); stroke-opacity: 1;"/></g><g class="point"><path d="M225.9,60V80.32H245.98V60Z" style="vector-effect: non-scaling-stroke; opacity: 1; stroke-width: 1.5px; fill: rgb(251, 251, 250); fill-opacity: 1; stroke: rgb(16, 16, 16); stroke-opacity: 1;"/></g><g class="point"><path d="M175.7,60V97.97H195.78V60Z" style="vector-effect: non-scaling-stroke; opacity: 1; stroke-width: 1.5px; fill: rgb(251, 251, 250); fill-opacity: 1; stroke: rgb(16, 16, 16); stroke-opacity: 1;"/></g><g class="point"><path d="M75.3,60V80.69H95.38V60Z" style="vector-effect: non-scaling-stroke; opacity: 1; stroke-width: 1.5px; fill: rgb(251, 251, 250); fill-opacity: 1; stroke: rgb(16, 16, 16); stroke-opacity: 1;"/></g><g class="point"><path d="M125.5,60V83.45H145.58V60Z" style="vector-effect: non-scaling-stroke; opacity: 1; stroke-width: 1.5px; fill: rgb(251, 251, 250); fill-opacity: 1; stroke: rgb(16, 16, 16); stroke-opacity: 1;"/></g></g><g class="errorbar"><path class="yerror" d="M31.14,50.17h8m-4,0V62.84m-4,0h8" style="vector-effect: non-scaling-stroke; stroke-width: 1.5px; stroke: rgb(16, 16, 16); stroke-opacity: 1;"/></g><g class="errorbar"><path class="yerror" d="M231.94,74.03h8m-4,0V86.62m-4,0h8" style="vector-effect: non-scaling-stroke; stroke-width: 1.5px; stroke: rgb(16, 16, 16); stroke-opacity: 1;"/></g><g class="errorbar"><path class="yerror" d="M181.74,91.25h8m-4,0V104.7m-4,0h8" style="vector-effect: non-scaling-stroke; stroke-width: 1.5px; stroke: rgb(16, 16, 16); stroke-opacity: 1;"/></g><g class="errorbar"><path class="yerror" d="M81.34,73.57h8m-4,0V87.81m-4,0h8" style="vector-effect: non-scaling-stroke; stroke-width: 1.5px; stroke: rgb(16, 16, 16); stroke-opacity: 1;"/></g><g class="errorbar"><path class="yerror" d="M131.54,76.34h8m-4,0V90.55m-4,0h8" style="vector-effect: non-scaling-stroke; stroke-width: 1.5px; stroke: rgb(16, 16, 16); stroke-opacity: 1;"/></g></g></g></g><g class="overplot"/><path class="xlines-above crisp" d="M0,0" style="fill: none;"/><path class="ylines-above crisp" d="M0,0" style="fill: none;"/><g class="overlines-above"/><g class="xaxislayer-above"><g class="xtick"><text text-anchor="start" x="0" y="211" transform="translate(95.1,0) rotate(30,0,206)" style="font-family: sans-serif; font-size: 10px; fill: rgb(68, 68, 68); fill-opacity: 1; white-space: pre;">STM</text></g><g class="xtick"><text text-anchor="start" x="0" y="211" transform="translate(145.3,0) rotate(30,0,206)" style="font-family: sans-serif; font-size: 10px; fill: rgb(68, 68, 68); fill-opacity: 1; white-space: pre;">reasoning</text></g><g class="xtick"><text text-anchor="start" x="0" y="211" transform="translate(195.5,0) rotate(30,0,206)" style="font-family: sans-serif; font-size: 10px; fill: rgb(68, 68, 68); fill-opacity: 1; white-space: pre;">verbal</text></g><g class="xtick"><text text-anchor="start" x="0" y="211" transform="translate(245.7,0) rotate(30,0,206)" style="font-family: sans-serif; font-size: 10px; fill: rgb(68, 68, 68); fill-opacity: 1; white-space: pre;">processing_speed</text></g><g class="xtick"><text text-anchor="start" x="0" y="211" transform="translate(295.9,0) rotate(30,0,206)" style="font-family: sans-serif; font-size: 10px; fill: rgb(68, 68, 68); fill-opacity: 1; white-space: pre;">overall</text></g></g><g class="yaxislayer-above"><g class="ytick"><text text-anchor="end" x="69" y="3.5" transform="translate(0,170)" style="font-family: sans-serif; font-size: 10px; fill: rgb(68, 68, 68); fill-opacity: 1; white-space: pre;">−0.6</text></g><g class="ytick"><text text-anchor="end" x="69" y="3.5" transform="translate(0,140)" style="font-family: sans-serif; font-size: 10px; fill: rgb(68, 68, 68); fill-opacity: 1; white-space: pre;">−0.4</text></g><g class="ytick"><text text-anchor="end" x="69" y="3.5" transform="translate(0,110)" style="font-family: sans-serif; font-size: 10px; fill: rgb(68, 68, 68); fill-opacity: 1; white-space: pre;">−0.2</text></g><g class="ytick"><text text-anchor="end" x="69" y="3.5" transform="translate(0,80)" style="font-family: sans-serif; font-size: 10px; fill: rgb(68, 68, 68); fill-opacity: 1; white-space: pre;">0</text></g><g class="ytick"><text text-anchor="end" x="69" y="3.5" transform="translate(0,50)" style="font-family: sans-serif; font-size: 10px; fill: rgb(68, 68, 68); fill-opacity: 1; white-space: pre;">0.2</text></g><g class="ytick"><text text-anchor="end" x="69" y="3.5" transform="translate(0,20)" style="font-family: sans-serif; font-size: 10px; fill: rgb(68, 68, 68); fill-opacity: 1; white-space: pre;">0.4</text></g></g><g class="overaxes-above"/></g></g><g class="polarlayer"/><g class="ternarylayer"/><g class="geolayer"/><g class="funnelarealayer"/><g class="pielayer"/><g class="treemaplayer"/><g class="sunburstlayer"/><g class="glimages"/><defs id="topdefs-2882b8"><g class="clips"/><clipPath id="legend2882b8"><rect width="62" height="61" x="0" y="0"/></clipPath></defs><g class="layer-above"><g class="imagelayer"/><g class="shapelayer"/></g><g class="infolayer"><g class="legend" pointer-events="all" transform="translate(326.02, 20)"><rect class="bg" shape-rendering="crispEdges" width="62" height="61" x="0" y="0" style="stroke: rgb(68, 68, 68); stroke-opacity: 1; fill: rgb(255, 255, 255); fill-opacity: 1; stroke-width: 0px;"/><g class="scrollbox" transform="translate(0, 0)" clip-path="url('#legend2882b8')"><text class="legendtitletext user-select-none" text-anchor="start" x="2" y="13" style="font-family: sans-serif; font-size: 10px; fill: rgb(68, 68, 68); fill-opacity: 1; white-space: pre;">Hospital</text><g class="groups" transform="translate(0, 0)"><g class="traces" transform="translate(0, 27.5)" style="opacity: 1;"><text class="legendtext user-select-none" text-anchor="start" x="40" y="3.9" style="font-family: sans-serif; font-size: 10px; fill: rgb(68, 68, 68); fill-opacity: 1; white-space: pre;">Yes</text><g class="layers" style="opacity: 1;"><g class="legendfill"/><g class="legendlines"/><g class="legendsymbols"><g class="legendpoints"><path class="legendundefined" d="M6,6H-6V-6H6Z" transform="translate(20,0)" style="stroke-width: 1.5px; fill: rgb(72, 72, 72); fill-opacity: 1; stroke: rgb(16, 16, 16); stroke-opacity: 1;"/></g></g></g><rect class="legendtoggle" pointer-events="all" x="0" y="-9.5" width="56.3125" height="19" style="cursor: pointer; fill: rgb(0, 0, 0); fill-opacity: 0;"/></g></g><g class="groups" transform="translate(0, 0)"><g class="traces" transform="translate(0, 46.5)" style="opacity: 1;"><text class="legendtext user-select-none" text-anchor="start" x="40" y="3.9" style="font-family: sans-serif; font-size: 10px; fill: rgb(68, 68, 68); fill-opacity: 1; white-space: pre;">No</text><g class="layers" style="opacity: 1;"><g class="legendfill"/><g class="legendlines"/><g class="legendsymbols"><g class="legendpoints"><path class="legendundefined" d="M6,6H-6V-6H6Z" transform="translate(20,0)" style="stroke-width: 1.5px; fill: rgb(251, 251, 250); fill-opacity: 1; stroke: rgb(16, 16, 16); stroke-opacity: 1;"/></g></g></g><rect class="legendtoggle" pointer-events="all" x="0" y="-9.5" width="56.3125" height="19" style="cursor: pointer; fill: rgb(0, 0, 0); fill-opacity: 0;"/></g></g></g><rect class="scrollbar" rx="20" ry="3" width="0" height="0" x="0" y="0" style="fill: rgb(128, 139, 164); fill-opacity: 1;"/></g><g class="g-gtitle"/><g class="g-xtitle"/><g class="g-ytitle"><text class="ytitle" transform="rotate(-90,36,110)" x="36" y="110" text-anchor="middle" style="font-family: sans-serif; font-size: 12px; fill: rgb(68, 68, 68); opacity: 1; font-weight: normal; white-space: pre;">SD Units</text></g></g></svg>