<svg class="main-svg" xmlns="http://www.w3.org/2000/svg" xmlns:xlink="http://www.w3.org/1999/xlink" width="475" height="350" viewBox="0 0 475 350"><rect x="0" y="0" width="475" height="350" style="fill: rgb(255, 255, 255); fill-opacity: 1;"/><defs id="defs-9a6360"><g class="clips"><clipPath id="clip9a6360xyplot" class="plotclip"><rect width="267" height="244"/></clipPath><clipPath class="axesclip" id="clip9a6360x"><rect x="143" y="0" width="267" height="350"/></clipPath><clipPath class="axesclip" id="clip9a6360y"><rect x="0" y="20" width="475" height="244"/></clipPath><clipPath class="axesclip" id="clip9a6360xy"><rect x="143" y="20" width="267" height="244"/></clipPath></g><g class="gradients"><linearGradient x1="0" x2="0" y1="1" y2="0" id="g9a6360-cbcoloraxis"><stop offset="0%" stop-color="rgb(0, 0, 255)" stop-opacity="1"/><stop offset="10%" stop-color="rgb(51, 153, 255)" stop-opacity="1"/><stop offset="20%" stop-color="rgb(102, 204, 255)" stop-opacity="1"/><stop offset="30%" stop-color="rgb(153, 204, 255)" stop-opacity="1"/><stop offset="40%" stop-color="rgb(204, 204, 255)" stop-opacity="1"/><stop offset="50%" stop-color="rgb(255, 255, 255)" stop-opacity="1"/><stop offset="60%" stop-color="rgb(255, 204, 255)" stop-opacity="1"/><stop offset="70%" stop-color="rgb(255, 153, 255)" stop-opacity="1"/><stop offset="80%" stop-color="rgb(255, 102, 204)" stop-opacity="1"/><stop offset="90%" stop-color="rgb(255, 102, 102)" stop-opacity="1"/><stop offset="100%" stop-color="rgb(255, 0, 0)" stop-opacity="1"/></linearGradient></g></defs><g class="bglayer"><rect class="bg" x="143" y="20" width="267" height="244" style="fill: rgb(229, 236, 246); fill-opacity: 1; stroke-width: 0;"/></g><g class="layer-below"><g class="imagelayer"/><g class="shapelayer"/></g><g class="cartesianlayer"><g class="subplot xy"><g class="layer-subplot"><g class="shapelayer"/><g class="imagelayer"/></g><g class="gridlayer"><g class="x"><path class="xgrid crisp" transform="translate(172.16,0)" d="M0,20v244" style="stroke: rgb(255, 255, 255); stroke-opacity: 1; stroke-width: 1px;"/><path class="xgrid crisp" transform="translate(193.88,0)" d="M0,20v244" style="stroke: rgb(255, 255, 255); stroke-opacity: 1; stroke-width: 1px;"/><path class="xgrid crisp" transform="translate(215.59,0)" d="M0,20v244" style="stroke: rgb(255, 255, 255); stroke-opacity: 1; stroke-width: 1px;"/><path class="xgrid crisp" transform="translate(237.3,0)" d="M0,20v244" style="stroke: rgb(255, 255, 255); stroke-opacity: 1; stroke-width: 1px;"/><path class="xgrid crisp" transform="translate(259.02,0)" d="M0,20v244" style="stroke: rgb(255, 255, 255); stroke-opacity: 1; stroke-width: 1px;"/><path class="xgrid crisp" transform="translate(280.73,0)" d="M0,20v244" style="stroke: rgb(255, 255, 255); stroke-opacity: 1; stroke-width: 1px;"/><path class="xgrid crisp" transform="translate(302.45,0)" d="M0,20v244" style="stroke: rgb(255, 255, 255); stroke-opacity: 1; stroke-width: 1px;"/><path class="xgrid crisp" transform="translate(324.15999999999997,0)" d="M0,20v244" style="stroke: rgb(255, 255, 255); stroke-opacity: 1; stroke-width: 1px;"/><path class="xgrid crisp" transform="translate(345.88,0)" d="M0,20v244" style="stroke: rgb(255, 255, 255); stroke-opacity: 1; stroke-width: 1px;"/><path class="xgrid crisp" transform="translate(367.59000000000003,0)" d="M0,20v244" style="stroke: rgb(255, 255, 255); stroke-opacity: 1; stroke-width: 1px;"/><path class="xgrid crisp" transform="translate(389.3,0)" d="M0,20v244" style="stroke: rgb(255, 255, 255); stroke-opacity: 1; stroke-width: 1px;"/></g><g class="y"><path class="ygrid crisp" transform="translate(0,235.99)" d="M143,0h267" style="stroke: rgb(255, 255, 255); stroke-opacity: 1; stroke-width: 1px;"/><path class="ygrid crisp" transform="translate(0,216.34)" d="M143,0h267" style="stroke: rgb(255, 255, 255); stroke-opacity: 1; stroke-width: 1px;"/><path class="ygrid crisp" transform="translate(0,196.7)" d="M143,0h267" style="stroke: rgb(255, 255, 255); stroke-opacity: 1; stroke-width: 1px;"/><path class="ygrid crisp" transform="translate(0,177.06)" d="M143,0h267" style="stroke: rgb(255, 255, 255); stroke-opacity: 1; stroke-width: 1px;"/><path class="ygrid crisp" transform="translate(0,157.41)" d="M143,0h267" style="stroke: rgb(255, 255, 255); stroke-opacity: 1; stroke-width: 1px;"/><path class="ygrid crisp" transform="translate(0,137.76999999999998)" d="M143,0h267" style="stroke: rgb(255, 255, 255); stroke-opacity: 1; stroke-width: 1px;"/><path class="ygrid crisp" transform="translate(0,118.12)" d="M143,0h267" style="stroke: rgb(255, 255, 255); stroke-opacity: 1; stroke-width: 1px;"/><path class="ygrid crisp" transform="translate(0,98.48)" d="M143,0h267" style="stroke: rgb(255, 255, 255); stroke-opacity: 1; stroke-width: 1px;"/><path class="ygrid crisp" transform="translate(0,78.83)" d="M143,0h267" style="stroke: rgb(255, 255, 255); stroke-opacity: 1; stroke-width: 1px;"/><path class="ygrid crisp" transform="translate(0,59.19)" d="M143,0h267" style="stroke: rgb(255, 255, 255); stroke-opacity: 1; stroke-width: 1px;"/><path class="ygrid crisp" transform="translate(0,39.55)" d="M143,0h267" style="stroke: rgb(255, 255, 255); stroke-opacity: 1; stroke-width: 1px;"/></g></g><g class="zerolinelayer"/><path class="xlines-below"/><path class="ylines-below"/><g class="overlines-below"/><g class="xaxislayer-below"/><g class="yaxislayer-below"/><g class="overaxes-below"/><g class="plot" transform="translate(143, 20)" clip-path="url('#clip9a6360xyplot')"><g class="scatterlayer mlayer"><g class="trace scatter trace49f122" style="stroke-miterlimit: 2; opacity: 1;"><g class="fills"/><g class="errorbars"/><g class="lines"/><g class="points"><path class="point" transform="translate(29.16,215.99)" d="M0,0A0,0 0 1,1 0,-0A0,0 0 0,1 0,0Z" style="opacity: 1; stroke-width: 1px; fill: rgb(255, 255, 255); fill-opacity: 1; stroke: rgb(255, 255, 255); stroke-opacity: 1;"/><path class="point" transform="translate(29.16,196.34)" d="M14.13,0A14.13,14.13 0 1,1 0,-14.13A14.13,14.13 0 0,1 14.13,0Z" style="opacity: 1; stroke-width: 1px; fill: rgb(255, 102, 168); fill-opacity: 1; stroke: rgb(255, 255, 255); stroke-opacity: 1;"/><path class="point" transform="translate(29.16,176.7)" d="M7.17,0A7.17,7.17 0 1,1 0,-7.17A7.17,7.17 0 0,1 7.17,0Z" style="opacity: 1; stroke-width: 1px; fill: rgb(255, 211, 255); fill-opacity: 1; stroke: rgb(255, 255, 255); stroke-opacity: 1;"/><path class="point" transform="translate(29.16,157.06)" d="M14.06,0A14.06,14.06 0 1,1 0,-14.06A14.06,14.06 0 0,1 14.06,0Z" style="opacity: 1; stroke-width: 1px; fill: rgb(255, 102, 171); fill-opacity: 1; stroke: rgb(255, 255, 255); stroke-opacity: 1;"/><path class="point" transform="translate(29.16,137.41)" d="M14.14,0A14.14,14.14 0 1,1 0,-14.14A14.14,14.14 0 0,1 14.14,0Z" style="opacity: 1; stroke-width: 1px; fill: rgb(255, 102, 167); fill-opacity: 1; stroke: rgb(255, 255, 255); stroke-opacity: 1;"/><path class="point" transform="translate(29.16,117.77)" d="M7.62,0A7.62,7.62 0 1,1 0,-7.62A7.62,7.62 0 0,1 7.62,0Z" style="opacity: 1; stroke-width: 1px; fill: rgb(255, 205, 255); fill-opacity: 1; stroke: rgb(255, 255, 255); stroke-opacity: 1;"/><path class="point" transform="translate(29.16,98.12)" d="M10.26,0A10.26,10.26 0 1,1 0,-10.26A10.26,10.26 0 0,1 10.26,0Z" style="opacity: 1; stroke-width: 1px; fill: rgb(255, 165, 255); fill-opacity: 1; stroke: rgb(255, 255, 255); stroke-opacity: 1;"/><path class="point" transform="translate(29.16,78.48)" d="M11.61,0A11.61,11.61 0 1,1 0,-11.61A11.61,11.61 0 0,1 11.61,0Z" style="opacity: 1; stroke-width: 1px; fill: rgb(255, 140, 242); fill-opacity: 1; stroke: rgb(255, 255, 255); stroke-opacity: 1;"/><path class="point" transform="translate(29.16,58.83)" d="M11.52,0A11.52,11.52 0 1,1 0,-11.52A11.52,11.52 0 0,1 11.52,0Z" style="opacity: 1; stroke-width: 1px; fill: rgb(255, 141, 243); fill-opacity: 1; stroke: rgb(255, 255, 255); stroke-opacity: 1;"/><path class="point" transform="translate(29.16,39.19)" d="M10.72,0A10.72,10.72 0 1,1 0,-10.72A10.72,10.72 0 0,1 10.72,0Z" style="opacity: 1; stroke-width: 1px; fill: rgb(157, 204, 255); fill-opacity: 1; stroke: rgb(255, 255, 255); stroke-opacity: 1;"/><path class="point" transform="translate(29.16,19.55)" d="M1.41,0A1.41,1.41 0 1,1 0,-1.41A1.41,1.41 0 0,1 1.41,0Z" style="opacity: 1; stroke-width: 1px; fill: rgb(253, 253, 255); fill-opacity: 1; stroke: rgb(255, 255, 255); stroke-opacity: 1;"/><path class="point" transform="translate(50.88,215.99)" d="M14.13,0A14.13,14.13 0 1,1 0,-14.13A14.13,14.13 0 0,1 14.13,0Z" style="opacity: 1; stroke-width: 1px; fill: rgb(255, 102, 168); fill-opacity: 1; stroke: rgb(255, 255, 255); stroke-opacity: 1;"/><path class="point" transform="translate(50.88,196.34)" d="M0,0A0,0 0 1,1 0,-0A0,0 0 0,1 0,0Z" style="opacity: 1; stroke-width: 1px; fill: rgb(255, 255, 255); fill-opacity: 1; stroke: rgb(255, 255, 255); stroke-opacity: 1;"/><path class="point" transform="translate(50.88,176.7)" d="M9.22,0A9.22,9.22 0 1,1 0,-9.22A9.22,9.22 0 0,1 9.22,0Z" style="opacity: 1; stroke-width: 1px; fill: rgb(255, 182, 255); fill-opacity: 1; stroke: rgb(255, 255, 255); stroke-opacity: 1;"/><path class="point" transform="translate(50.88,157.06)" d="M13.81,0A13.81,13.81 0 1,1 0,-13.81A13.81,13.81 0 0,1 13.81,0Z" style="opacity: 1; stroke-width: 1px; fill: rgb(255, 102, 183); fill-opacity: 1; stroke: rgb(255, 255, 255); stroke-opacity: 1;"/><path class="point" transform="translate(50.88,137.41)" d="M12.94,0A12.94,12.94 0 1,1 0,-12.94A12.94,12.94 0 0,1 12.94,0Z" style="opacity: 1; stroke-width: 1px; fill: rgb(255, 111, 213); fill-opacity: 1; stroke: rgb(255, 255, 255); stroke-opacity: 1;"/><path class="point" transform="translate(50.88,117.77)" d="M8.7,0A8.7,8.7 0 1,1 0,-8.7A8.7,8.7 0 0,1 8.7,0Z" style="opacity: 1; stroke-width: 1px; fill: rgb(255, 190, 255); fill-opacity: 1; stroke: rgb(255, 255, 255); stroke-opacity: 1;"/><path class="point" transform="translate(50.88,98.12)" d="M10.2,0A10.2,10.2 0 1,1 0,-10.2A10.2,10.2 0 0,1 10.2,0Z" style="opacity: 1; stroke-width: 1px; fill: rgb(255, 166, 255); fill-opacity: 1; stroke: rgb(255, 255, 255); stroke-opacity: 1;"/><path class="point" transform="translate(50.88,78.48)" d="M11.32,0A11.32,11.32 0 1,1 0,-11.32A11.32,11.32 0 0,1 11.32,0Z" style="opacity: 1; stroke-width: 1px; fill: rgb(255, 145, 247); fill-opacity: 1; stroke: rgb(255, 255, 255); stroke-opacity: 1;"/><path class="point" transform="translate(50.88,58.83)" d="M12.52,0A12.52,12.52 0 1,1 0,-12.52A12.52,12.52 0 0,1 12.52,0Z" style="opacity: 1; stroke-width: 1px; fill: rgb(255, 121, 223); fill-opacity: 1; stroke: rgb(255, 255, 255); stroke-opacity: 1;"/><path class="point" transform="translate(50.88,39.19)" d="M10.55,0A10.55,10.55 0 1,1 0,-10.55A10.55,10.55 0 0,1 10.55,0Z" style="opacity: 1; stroke-width: 1px; fill: rgb(160, 204, 255); fill-opacity: 1; stroke: rgb(255, 255, 255); stroke-opacity: 1;"/><path class="point" transform="translate(50.88,19.55)" d="M4.86,0A4.86,4.86 0 1,1 0,-4.86A4.86,4.86 0 0,1 4.86,0Z" style="opacity: 1; stroke-width: 1px; fill: rgb(255, 235, 255); fill-opacity: 1; stroke: rgb(255, 255, 255); stroke-opacity: 1;"/><path class="point" transform="translate(72.59,215.99)" d="M7.17,0A7.17,7.17 0 1,1 0,-7.17A7.17,7.17 0 0,1 7.17,0Z" style="opacity: 1; stroke-width: 1px; fill: rgb(255, 211, 255); fill-opacity: 1; stroke: rgb(255, 255, 255); stroke-opacity: 1;"/><path class="point" transform="translate(72.59,196.34)" d="M9.22,0A9.22,9.22 0 1,1 0,-9.22A9.22,9.22 0 0,1 9.22,0Z" style="opacity: 1; stroke-width: 1px; fill: rgb(255, 182, 255); fill-opacity: 1; stroke: rgb(255, 255, 255); stroke-opacity: 1;"/><path class="point" transform="translate(72.59,176.7)" d="M0,0A0,0 0 1,1 0,-0A0,0 0 0,1 0,0Z" style="opacity: 1; stroke-width: 1px; fill: rgb(255, 255, 255); fill-opacity: 1; stroke: rgb(255, 255, 255); stroke-opacity: 1;"/><path class="point" transform="translate(72.59,157.06)" d="M10.44,0A10.44,10.44 0 1,1 0,-10.44A10.44,10.44 0 0,1 10.44,0Z" style="opacity: 1; stroke-width: 1px; fill: rgb(255, 162, 255); fill-opacity: 1; stroke: rgb(255, 255, 255); stroke-opacity: 1;"/><path class="point" transform="translate(72.59,137.41)" d="M8.46,0A8.46,8.46 0 1,1 0,-8.46A8.46,8.46 0 0,1 8.46,0Z" style="opacity: 1; stroke-width: 1px; fill: rgb(255, 194, 255); fill-opacity: 1; stroke: rgb(255, 255, 255); stroke-opacity: 1;"/><path class="point" transform="translate(72.59,117.77)" d="M12.41,0A12.41,12.41 0 1,1 0,-12.41A12.41,12.41 0 0,1 12.41,0Z" style="opacity: 1; stroke-width: 1px; fill: rgb(255, 123, 225); fill-opacity: 1; stroke: rgb(255, 255, 255); stroke-opacity: 1;"/><path class="point" transform="translate(72.59,98.12)" d="M12.56,0A12.56,12.56 0 1,1 0,-12.56A12.56,12.56 0 0,1 12.56,0Z" style="opacity: 1; stroke-width: 1px; fill: rgb(255, 120, 222); fill-opacity: 1; stroke: rgb(255, 255, 255); stroke-opacity: 1;"/><path class="point" transform="translate(72.59,78.48)" d="M9.23,0A9.23,9.23 0 1,1 0,-9.23A9.23,9.23 0 0,1 9.23,0Z" style="opacity: 1; stroke-width: 1px; fill: rgb(255, 182, 255); fill-opacity: 1; stroke: rgb(255, 255, 255); stroke-opacity: 1;"/><path class="point" transform="translate(72.59,58.83)" d="M9.98,0A9.98,9.98 0 1,1 0,-9.98A9.98,9.98 0 0,1 9.98,0Z" style="opacity: 1; stroke-width: 1px; fill: rgb(255, 170, 255); fill-opacity: 1; stroke: rgb(255, 255, 255); stroke-opacity: 1;"/><path class="point" transform="translate(72.59,39.19)" d="M6.49,0A6.49,6.49 0 1,1 0,-6.49A6.49,6.49 0 0,1 6.49,0Z" style="opacity: 1; stroke-width: 1px; fill: rgb(219, 219, 255); fill-opacity: 1; stroke: rgb(255, 255, 255); stroke-opacity: 1;"/><path class="point" transform="translate(72.59,19.55)" d="M0.33,0A0.33,0.33 0 1,1 0,-0.33A0.33,0.33 0 0,1 0.33,0Z" style="opacity: 1; stroke-width: 1px; fill: rgb(255, 255, 255); fill-opacity: 1; stroke: rgb(255, 255, 255); stroke-opacity: 1;"/><path class="point" transform="translate(94.3,215.99)" d="M14.06,0A14.06,14.06 0 1,1 0,-14.06A14.06,14.06 0 0,1 14.06,0Z" style="opacity: 1; stroke-width: 1px; fill: rgb(255, 102, 171); fill-opacity: 1; stroke: rgb(255, 255, 255); stroke-opacity: 1;"/><path class="point" transform="translate(94.3,196.34)" d="M13.81,0A13.81,13.81 0 1,1 0,-13.81A13.81,13.81 0 0,1 13.81,0Z" style="opacity: 1; stroke-width: 1px; fill: rgb(255, 102, 183); fill-opacity: 1; stroke: rgb(255, 255, 255); stroke-opacity: 1;"/><path class="point" transform="translate(94.3,176.7)" d="M10.44,0A10.44,10.44 0 1,1 0,-10.44A10.44,10.44 0 0,1 10.44,0Z" style="opacity: 1; stroke-width: 1px; fill: rgb(255, 162, 255); fill-opacity: 1; stroke: rgb(255, 255, 255); stroke-opacity: 1;"/><path class="point" transform="translate(94.3,157.06)" d="M0,0A0,0 0 1,1 0,-0A0,0 0 0,1 0,0Z" style="opacity: 1; stroke-width: 1px; fill: rgb(255, 255, 255); fill-opacity: 1; stroke: rgb(255, 255, 255); stroke-opacity: 1;"/><path class="point" transform="translate(94.3,137.41)" d="M12.92,0A12.92,12.92 0 1,1 0,-12.92A12.92,12.92 0 0,1 12.92,0Z" style="opacity: 1; stroke-width: 1px; fill: rgb(255, 112, 214); fill-opacity: 1; stroke: rgb(255, 255, 255); stroke-opacity: 1;"/><path class="point" transform="translate(94.3,117.77)" d="M10.65,0A10.65,10.65 0 1,1 0,-10.65A10.65,10.65 0 0,1 10.65,0Z" style="opacity: 1; stroke-width: 1px; fill: rgb(255, 158, 255); fill-opacity: 1; stroke: rgb(255, 255, 255); stroke-opacity: 1;"/><path class="point" transform="translate(94.3,98.12)" d="M12.39,0A12.39,12.39 0 1,1 0,-12.39A12.39,12.39 0 0,1 12.39,0Z" style="opacity: 1; stroke-width: 1px; fill: rgb(255, 124, 226); fill-opacity: 1; stroke: rgb(255, 255, 255); stroke-opacity: 1;"/><path class="point" transform="translate(94.3,78.48)" d="M12.72,0A12.72,12.72 0 1,1 0,-12.72A12.72,12.72 0 0,1 12.72,0Z" style="opacity: 1; stroke-width: 1px; fill: rgb(255, 116, 218); fill-opacity: 1; stroke: rgb(255, 255, 255); stroke-opacity: 1;"/><path class="point" transform="translate(94.3,58.83)" d="M12.99,0A12.99,12.99 0 1,1 0,-12.99A12.99,12.99 0 0,1 12.99,0Z" style="opacity: 1; stroke-width: 1px; fill: rgb(255, 110, 212); fill-opacity: 1; stroke: rgb(255, 255, 255); stroke-opacity: 1;"/><path class="point" transform="translate(94.3,39.19)" d="M9.83,0A9.83,9.83 0 1,1 0,-9.83A9.83,9.83 0 0,1 9.83,0Z" style="opacity: 1; stroke-width: 1px; fill: rgb(172, 204, 255); fill-opacity: 1; stroke: rgb(255, 255, 255); stroke-opacity: 1;"/><path class="point" transform="translate(94.3,19.55)" d="M1.52,0A1.52,1.52 0 1,1 0,-1.52A1.52,1.52 0 0,1 1.52,0Z" style="opacity: 1; stroke-width: 1px; fill: rgb(253, 253, 255); fill-opacity: 1; stroke: rgb(255, 255, 255); stroke-opacity: 1;"/><path class="point" transform="translate(116.02,215.99)" d="M14.14,0A14.14,14.14 0 1,1 0,-14.14A14.14,14.14 0 0,1 14.14,0Z" style="opacity: 1; stroke-width: 1px; fill: rgb(255, 102, 167); fill-opacity: 1; stroke: rgb(255, 255, 255); stroke-opacity: 1;"/><path class="point" transform="translate(116.02,196.34)" d="M12.94,0A12.94,12.94 0 1,1 0,-12.94A12.94,12.94 0 0,1 12.94,0Z" style="opacity: 1; stroke-width: 1px; fill: rgb(255, 111, 213); fill-opacity: 1; stroke: rgb(255, 255, 255); stroke-opacity: 1;"/><path class="point" transform="translate(116.02,176.7)" d="M8.46,0A8.46,8.46 0 1,1 0,-8.46A8.46,8.46 0 0,1 8.46,0Z" style="opacity: 1; stroke-width: 1px; fill: rgb(255, 194, 255); fill-opacity: 1; stroke: rgb(255, 255, 255); stroke-opacity: 1;"/><path class="point" transform="translate(116.02,157.06)" d="M12.92,0A12.92,12.92 0 1,1 0,-12.92A12.92,12.92 0 0,1 12.92,0Z" style="opacity: 1; stroke-width: 1px; fill: rgb(255, 112, 214); fill-opacity: 1; stroke: rgb(255, 255, 255); stroke-opacity: 1;"/><path class="point" transform="translate(116.02,137.41)" d="M0,0A0,0 0 1,1 0,-0A0,0 0 0,1 0,0Z" style="opacity: 1; stroke-width: 1px; fill: rgb(255, 255, 255); fill-opacity: 1; stroke: rgb(255, 255, 255); stroke-opacity: 1;"/><path class="point" transform="translate(116.02,117.77)" d="M9.08,0A9.08,9.08 0 1,1 0,-9.08A9.08,9.08 0 0,1 9.08,0Z" style="opacity: 1; stroke-width: 1px; fill: rgb(255, 184, 255); fill-opacity: 1; stroke: rgb(255, 255, 255); stroke-opacity: 1;"/><path class="point" transform="translate(116.02,98.12)" d="M10.9,0A10.9,10.9 0 1,1 0,-10.9A10.9,10.9 0 0,1 10.9,0Z" style="opacity: 1; stroke-width: 1px; fill: rgb(255, 153, 255); fill-opacity: 1; stroke: rgb(255, 255, 255); stroke-opacity: 1;"/><path class="point" transform="translate(116.02,78.48)" d="M10.67,0A10.67,10.67 0 1,1 0,-10.67A10.67,10.67 0 0,1 10.67,0Z" style="opacity: 1; stroke-width: 1px; fill: rgb(255, 157, 255); fill-opacity: 1; stroke: rgb(255, 255, 255); stroke-opacity: 1;"/><path class="point" transform="translate(116.02,58.83)" d="M10.79,0A10.79,10.79 0 1,1 0,-10.79A10.79,10.79 0 0,1 10.79,0Z" style="opacity: 1; stroke-width: 1px; fill: rgb(255, 155, 255); fill-opacity: 1; stroke: rgb(255, 255, 255); stroke-opacity: 1;"/><path class="point" transform="translate(116.02,39.19)" d="M9.35,0A9.35,9.35 0 1,1 0,-9.35A9.35,9.35 0 0,1 9.35,0Z" style="opacity: 1; stroke-width: 1px; fill: rgb(180, 204, 255); fill-opacity: 1; stroke: rgb(255, 255, 255); stroke-opacity: 1;"/><path class="point" transform="translate(116.02,19.55)" d="M3.68,0A3.68,3.68 0 1,1 0,-3.68A3.68,3.68 0 0,1 3.68,0Z" style="opacity: 1; stroke-width: 1px; fill: rgb(255, 243, 255); fill-opacity: 1; stroke: rgb(255, 255, 255); stroke-opacity: 1;"/><path class="point" transform="translate(137.73,215.99)" d="M7.62,0A7.62,7.62 0 1,1 0,-7.62A7.62,7.62 0 0,1 7.62,0Z" style="opacity: 1; stroke-width: 1px; fill: rgb(255, 205, 255); fill-opacity: 1; stroke: rgb(255, 255, 255); stroke-opacity: 1;"/><path class="point" transform="translate(137.73,196.34)" d="M8.7,0A8.7,8.7 0 1,1 0,-8.7A8.7,8.7 0 0,1 8.7,0Z" style="opacity: 1; stroke-width: 1px; fill: rgb(255, 190, 255); fill-opacity: 1; stroke: rgb(255, 255, 255); stroke-opacity: 1;"/><path class="point" transform="translate(137.73,176.7)" d="M12.41,0A12.41,12.41 0 1,1 0,-12.41A12.41,12.41 0 0,1 12.41,0Z" style="opacity: 1; stroke-width: 1px; fill: rgb(255, 123, 225); fill-opacity: 1; stroke: rgb(255, 255, 255); stroke-opacity: 1;"/><path class="point" transform="translate(137.73,157.06)" d="M10.65,0A10.65,10.65 0 1,1 0,-10.65A10.65,10.65 0 0,1 10.65,0Z" style="opacity: 1; stroke-width: 1px; fill: rgb(255, 158, 255); fill-opacity: 1; stroke: rgb(255, 255, 255); stroke-opacity: 1;"/><path class="point" transform="translate(137.73,137.41)" d="M9.08,0A9.08,9.08 0 1,1 0,-9.08A9.08,9.08 0 0,1 9.08,0Z" style="opacity: 1; stroke-width: 1px; fill: rgb(255, 184, 255); fill-opacity: 1; stroke: rgb(255, 255, 255); stroke-opacity: 1;"/><path class="point" transform="translate(137.73,117.77)" d="M0,0A0,0 0 1,1 0,-0A0,0 0 0,1 0,0Z" style="opacity: 1; stroke-width: 1px; fill: rgb(255, 255, 255); fill-opacity: 1; stroke: rgb(255, 255, 255); stroke-opacity: 1;"/><path class="point" transform="translate(137.73,98.12)" d="M13.89,0A13.89,13.89 0 1,1 0,-13.89A13.89,13.89 0 0,1 13.89,0Z" style="opacity: 1; stroke-width: 1px; fill: rgb(255, 102, 179); fill-opacity: 1; stroke: rgb(255, 255, 255); stroke-opacity: 1;"/><path class="point" transform="translate(137.73,78.48)" d="M8.9,0A8.9,8.9 0 1,1 0,-8.9A8.9,8.9 0 0,1 8.9,0Z" style="opacity: 1; stroke-width: 1px; fill: rgb(255, 187, 255); fill-opacity: 1; stroke: rgb(255, 255, 255); stroke-opacity: 1;"/><path class="point" transform="translate(137.73,58.83)" d="M8.66,0A8.66,8.66 0 1,1 0,-8.66A8.66,8.66 0 0,1 8.66,0Z" style="opacity: 1; stroke-width: 1px; fill: rgb(255, 191, 255); fill-opacity: 1; stroke: rgb(255, 255, 255); stroke-opacity: 1;"/><path class="point" transform="translate(137.73,39.19)" d="M6.18,0A6.18,6.18 0 1,1 0,-6.18A6.18,6.18 0 0,1 6.18,0Z" style="opacity: 1; stroke-width: 1px; fill: rgb(222, 222, 255); fill-opacity: 1; stroke: rgb(255, 255, 255); stroke-opacity: 1;"/><path class="point" transform="translate(137.73,19.55)" d="M0.82,0A0.82,0.82 0 1,1 0,-0.82A0.82,0.82 0 0,1 0.82,0Z" style="opacity: 1; stroke-width: 1px; fill: rgb(255, 254, 255); fill-opacity: 1; stroke: rgb(255, 255, 255); stroke-opacity: 1;"/><path class="point" transform="translate(159.45,215.99)" d="M10.26,0A10.26,10.26 0 1,1 0,-10.26A10.26,10.26 0 0,1 10.26,0Z" style="opacity: 1; stroke-width: 1px; fill: rgb(255, 165, 255); fill-opacity: 1; stroke: rgb(255, 255, 255); stroke-opacity: 1;"/><path class="point" transform="translate(159.45,196.34)" d="M10.2,0A10.2,10.2 0 1,1 0,-10.2A10.2,10.2 0 0,1 10.2,0Z" style="opacity: 1; stroke-width: 1px; fill: rgb(255, 166, 255); fill-opacity: 1; stroke: rgb(255, 255, 255); stroke-opacity: 1;"/><path class="point" transform="translate(159.45,176.7)" d="M12.56,0A12.56,12.56 0 1,1 0,-12.56A12.56,12.56 0 0,1 12.56,0Z" style="opacity: 1; stroke-width: 1px; fill: rgb(255, 120, 222); fill-opacity: 1; stroke: rgb(255, 255, 255); stroke-opacity: 1;"/><path class="point" transform="translate(159.45,157.06)" d="M12.39,0A12.39,12.39 0 1,1 0,-12.39A12.39,12.39 0 0,1 12.39,0Z" style="opacity: 1; stroke-width: 1px; fill: rgb(255, 124, 226); fill-opacity: 1; stroke: rgb(255, 255, 255); stroke-opacity: 1;"/><path class="point" transform="translate(159.45,137.41)" d="M10.9,0A10.9,10.9 0 1,1 0,-10.9A10.9,10.9 0 0,1 10.9,0Z" style="opacity: 1; stroke-width: 1px; fill: rgb(255, 153, 255); fill-opacity: 1; stroke: rgb(255, 255, 255); stroke-opacity: 1;"/><path class="point" transform="translate(159.45,117.77)" d="M13.89,0A13.89,13.89 0 1,1 0,-13.89A13.89,13.89 0 0,1 13.89,0Z" style="opacity: 1; stroke-width: 1px; fill: rgb(255, 102, 179); fill-opacity: 1; stroke: rgb(255, 255, 255); stroke-opacity: 1;"/><path class="point" transform="translate(159.45,98.12)" d="M0,0A0,0 0 1,1 0,-0A0,0 0 0,1 0,0Z" style="opacity: 1; stroke-width: 1px; fill: rgb(255, 255, 255); fill-opacity: 1; stroke: rgb(255, 255, 255); stroke-opacity: 1;"/><path class="point" transform="translate(159.45,78.48)" d="M10.57,0A10.57,10.57 0 1,1 0,-10.57A10.57,10.57 0 0,1 10.57,0Z" style="opacity: 1; stroke-width: 1px; fill: rgb(255, 159, 255); fill-opacity: 1; stroke: rgb(255, 255, 255); stroke-opacity: 1;"/><path class="point" transform="translate(159.45,58.83)" d="M10.16,0A10.16,10.16 0 1,1 0,-10.16A10.16,10.16 0 0,1 10.16,0Z" style="opacity: 1; stroke-width: 1px; fill: rgb(255, 166, 255); fill-opacity: 1; stroke: rgb(255, 255, 255); stroke-opacity: 1;"/><path class="point" transform="translate(159.45,39.19)" d="M7.04,0A7.04,7.04 0 1,1 0,-7.04A7.04,7.04 0 0,1 7.04,0Z" style="opacity: 1; stroke-width: 1px; fill: rgb(213, 213, 255); fill-opacity: 1; stroke: rgb(255, 255, 255); stroke-opacity: 1;"/><path class="point" transform="translate(159.45,19.55)" d="M3.02,0A3.02,3.02 0 1,1 0,-3.02A3.02,3.02 0 0,1 3.02,0Z" style="opacity: 1; stroke-width: 1px; fill: rgb(255, 247, 255); fill-opacity: 1; stroke: rgb(255, 255, 255); stroke-opacity: 1;"/><path class="point" transform="translate(181.16,215.99)" d="M11.61,0A11.61,11.61 0 1,1 0,-11.61A11.61,11.61 0 0,1 11.61,0Z" style="opacity: 1; stroke-width: 1px; fill: rgb(255, 140, 242); fill-opacity: 1; stroke: rgb(255, 255, 255); stroke-opacity: 1;"/><path class="point" transform="translate(181.16,196.34)" d="M11.32,0A11.32,11.32 0 1,1 0,-11.32A11.32,11.32 0 0,1 11.32,0Z" style="opacity: 1; stroke-width: 1px; fill: rgb(255, 145, 247); fill-opacity: 1; stroke: rgb(255, 255, 255); stroke-opacity: 1;"/><path class="point" transform="translate(181.16,176.7)" d="M9.23,0A9.23,9.23 0 1,1 0,-9.23A9.23,9.23 0 0,1 9.23,0Z" style="opacity: 1; stroke-width: 1px; fill: rgb(255, 182, 255); fill-opacity: 1; stroke: rgb(255, 255, 255); stroke-opacity: 1;"/><path class="point" transform="translate(181.16,157.06)" d="M12.72,0A12.72,12.72 0 1,1 0,-12.72A12.72,12.72 0 0,1 12.72,0Z" style="opacity: 1; stroke-width: 1px; fill: rgb(255, 116, 218); fill-opacity: 1; stroke: rgb(255, 255, 255); stroke-opacity: 1;"/><path class="point" transform="translate(181.16,137.41)" d="M10.67,0A10.67,10.67 0 1,1 0,-10.67A10.67,10.67 0 0,1 10.67,0Z" style="opacity: 1; stroke-width: 1px; fill: rgb(255, 157, 255); fill-opacity: 1; stroke: rgb(255, 255, 255); stroke-opacity: 1;"/><path class="point" transform="translate(181.16,117.77)" d="M8.9,0A8.9,8.9 0 1,1 0,-8.9A8.9,8.9 0 0,1 8.9,0Z" style="opacity: 1; stroke-width: 1px; fill: rgb(255, 187, 255); fill-opacity: 1; stroke: rgb(255, 255, 255); stroke-opacity: 1;"/><path class="point" transform="translate(181.16,98.12)" d="M10.57,0A10.57,10.57 0 1,1 0,-10.57A10.57,10.57 0 0,1 10.57,0Z" style="opacity: 1; stroke-width: 1px; fill: rgb(255, 159, 255); fill-opacity: 1; stroke: rgb(255, 255, 255); stroke-opacity: 1;"/><path class="point" transform="translate(181.16,78.48)" d="M0,0A0,0 0 1,1 0,-0A0,0 0 0,1 0,0Z" style="opacity: 1; stroke-width: 1px; fill: rgb(255, 255, 255); fill-opacity: 1; stroke: rgb(255, 255, 255); stroke-opacity: 1;"/><path class="point" transform="translate(181.16,58.83)" d="M12.69,0A12.69,12.69 0 1,1 0,-12.69A12.69,12.69 0 0,1 12.69,0Z" style="opacity: 1; stroke-width: 1px; fill: rgb(255, 117, 219); fill-opacity: 1; stroke: rgb(255, 255, 255); stroke-opacity: 1;"/><path class="point" transform="translate(181.16,39.19)" d="M9.49,0A9.49,9.49 0 1,1 0,-9.49A9.49,9.49 0 0,1 9.49,0Z" style="opacity: 1; stroke-width: 1px; fill: rgb(178, 204, 255); fill-opacity: 1; stroke: rgb(255, 255, 255); stroke-opacity: 1;"/><path class="point" transform="translate(181.16,19.55)" d="M3.84,0A3.84,3.84 0 1,1 0,-3.84A3.84,3.84 0 0,1 3.84,0Z" style="opacity: 1; stroke-width: 1px; fill: rgb(242, 242, 255); fill-opacity: 1; stroke: rgb(255, 255, 255); stroke-opacity: 1;"/><path class="point" transform="translate(202.88,215.99)" d="M11.52,0A11.52,11.52 0 1,1 0,-11.52A11.52,11.52 0 0,1 11.52,0Z" style="opacity: 1; stroke-width: 1px; fill: rgb(255, 141, 243); fill-opacity: 1; stroke: rgb(255, 255, 255); stroke-opacity: 1;"/><path class="point" transform="translate(202.88,196.34)" d="M12.52,0A12.52,12.52 0 1,1 0,-12.52A12.52,12.52 0 0,1 12.52,0Z" style="opacity: 1; stroke-width: 1px; fill: rgb(255, 121, 223); fill-opacity: 1; stroke: rgb(255, 255, 255); stroke-opacity: 1;"/><path class="point" transform="translate(202.88,176.7)" d="M9.98,0A9.98,9.98 0 1,1 0,-9.98A9.98,9.98 0 0,1 9.98,0Z" style="opacity: 1; stroke-width: 1px; fill: rgb(255, 170, 255); fill-opacity: 1; stroke: rgb(255, 255, 255); stroke-opacity: 1;"/><path class="point" transform="translate(202.88,157.06)" d="M12.99,0A12.99,12.99 0 1,1 0,-12.99A12.99,12.99 0 0,1 12.99,0Z" style="opacity: 1; stroke-width: 1px; fill: rgb(255, 110, 212); fill-opacity: 1; stroke: rgb(255, 255, 255); stroke-opacity: 1;"/><path class="point" transform="translate(202.88,137.41)" d="M10.79,0A10.79,10.79 0 1,1 0,-10.79A10.79,10.79 0 0,1 10.79,0Z" style="opacity: 1; stroke-width: 1px; fill: rgb(255, 155, 255); fill-opacity: 1; stroke: rgb(255, 255, 255); stroke-opacity: 1;"/><path class="point" transform="translate(202.88,117.77)" d="M8.66,0A8.66,8.66 0 1,1 0,-8.66A8.66,8.66 0 0,1 8.66,0Z" style="opacity: 1; stroke-width: 1px; fill: rgb(255, 191, 255); fill-opacity: 1; stroke: rgb(255, 255, 255); stroke-opacity: 1;"/><path class="point" transform="translate(202.88,98.12)" d="M10.16,0A10.16,10.16 0 1,1 0,-10.16A10.16,10.16 0 0,1 10.16,0Z" style="opacity: 1; stroke-width: 1px; fill: rgb(255, 166, 255); fill-opacity: 1; stroke: rgb(255, 255, 255); stroke-opacity: 1;"/><path class="point" transform="translate(202.88,78.48)" d="M12.69,0A12.69,12.69 0 1,1 0,-12.69A12.69,12.69 0 0,1 12.69,0Z" style="opacity: 1; stroke-width: 1px; fill: rgb(255, 117, 219); fill-opacity: 1; stroke: rgb(255, 255, 255); stroke-opacity: 1;"/><path class="point" transform="translate(202.88,58.83)" d="M0,0A0,0 0 1,1 0,-0A0,0 0 0,1 0,0Z" style="opacity: 1; stroke-width: 1px; fill: rgb(255, 255, 255); fill-opacity: 1; stroke: rgb(255, 255, 255); stroke-opacity: 1;"/><path class="point" transform="translate(202.88,39.19)" d="M10.25,0A10.25,10.25 0 1,1 0,-10.25A10.25,10.25 0 0,1 10.25,0Z" style="opacity: 1; stroke-width: 1px; fill: rgb(165, 204, 255); fill-opacity: 1; stroke: rgb(255, 255, 255); stroke-opacity: 1;"/><path class="point" transform="translate(202.88,19.55)" d="M4.05,0A4.05,4.05 0 1,1 0,-4.05A4.05,4.05 0 0,1 4.05,0Z" style="opacity: 1; stroke-width: 1px; fill: rgb(241, 241, 255); fill-opacity: 1; stroke: rgb(255, 255, 255); stroke-opacity: 1;"/><path class="point" transform="translate(224.59,215.99)" d="M10.72,0A10.72,10.72 0 1,1 0,-10.72A10.72,10.72 0 0,1 10.72,0Z" style="opacity: 1; stroke-width: 1px; fill: rgb(157, 204, 255); fill-opacity: 1; stroke: rgb(255, 255, 255); stroke-opacity: 1;"/><path class="point" transform="translate(224.59,196.34)" d="M10.55,0A10.55,10.55 0 1,1 0,-10.55A10.55,10.55 0 0,1 10.55,0Z" style="opacity: 1; stroke-width: 1px; fill: rgb(160, 204, 255); fill-opacity: 1; stroke: rgb(255, 255, 255); stroke-opacity: 1;"/><path class="point" transform="translate(224.59,176.7)" d="M6.49,0A6.49,6.49 0 1,1 0,-6.49A6.49,6.49 0 0,1 6.49,0Z" style="opacity: 1; stroke-width: 1px; fill: rgb(219, 219, 255); fill-opacity: 1; stroke: rgb(255, 255, 255); stroke-opacity: 1;"/><path class="point" transform="translate(224.59,157.06)" d="M9.83,0A9.83,9.83 0 1,1 0,-9.83A9.83,9.83 0 0,1 9.83,0Z" style="opacity: 1; stroke-width: 1px; fill: rgb(172, 204, 255); fill-opacity: 1; stroke: rgb(255, 255, 255); stroke-opacity: 1;"/><path class="point" transform="translate(224.59,137.41)" d="M9.35,0A9.35,9.35 0 1,1 0,-9.35A9.35,9.35 0 0,1 9.35,0Z" style="opacity: 1; stroke-width: 1px; fill: rgb(180, 204, 255); fill-opacity: 1; stroke: rgb(255, 255, 255); stroke-opacity: 1;"/><path class="point" transform="translate(224.59,117.77)" d="M6.18,0A6.18,6.18 0 1,1 0,-6.18A6.18,6.18 0 0,1 6.18,0Z" style="opacity: 1; stroke-width: 1px; fill: rgb(222, 222, 255); fill-opacity: 1; stroke: rgb(255, 255, 255); stroke-opacity: 1;"/><path class="point" transform="translate(224.59,98.12)" d="M7.04,0A7.04,7.04 0 1,1 0,-7.04A7.04,7.04 0 0,1 7.04,0Z" style="opacity: 1; stroke-width: 1px; fill: rgb(213, 213, 255); fill-opacity: 1; stroke: rgb(255, 255, 255); stroke-opacity: 1;"/><path class="point" transform="translate(224.59,78.48)" d="M9.49,0A9.49,9.49 0 1,1 0,-9.49A9.49,9.49 0 0,1 9.49,0Z" style="opacity: 1; stroke-width: 1px; fill: rgb(178, 204, 255); fill-opacity: 1; stroke: rgb(255, 255, 255); stroke-opacity: 1;"/><path class="point" transform="translate(224.59,58.83)" d="M10.25,0A10.25,10.25 0 1,1 0,-10.25A10.25,10.25 0 0,1 10.25,0Z" style="opacity: 1; stroke-width: 1px; fill: rgb(165, 204, 255); fill-opacity: 1; stroke: rgb(255, 255, 255); stroke-opacity: 1;"/><path class="point" transform="translate(224.59,39.19)" d="M0,0A0,0 0 1,1 0,-0A0,0 0 0,1 0,0Z" style="opacity: 1; stroke-width: 1px; fill: rgb(255, 255, 255); fill-opacity: 1; stroke: rgb(255, 255, 255); stroke-opacity: 1;"/><path class="point" transform="translate(224.59,19.55)" d="M6.57,0A6.57,6.57 0 1,1 0,-6.57A6.57,6.57 0 0,1 6.57,0Z" style="opacity: 1; stroke-width: 1px; fill: rgb(255, 218, 255); fill-opacity: 1; stroke: rgb(255, 255, 255); stroke-opacity: 1;"/><path class="point" transform="translate(246.3,215.99)" d="M1.41,0A1.41,1.41 0 1,1 0,-1.41A1.41,1.41 0 0,1 1.41,0Z" style="opacity: 1; stroke-width: 1px; fill: rgb(253, 253, 255); fill-opacity: 1; stroke: rgb(255, 255, 255); stroke-opacity: 1;"/><path class="point" transform="translate(246.3,196.34)" d="M4.86,0A4.86,4.86 0 1,1 0,-4.86A4.86,4.86 0 0,1 4.86,0Z" style="opacity: 1; stroke-width: 1px; fill: rgb(255, 235, 255); fill-opacity: 1; stroke: rgb(255, 255, 255); stroke-opacity: 1;"/><path class="point" transform="translate(246.3,176.7)" d="M0.33,0A0.33,0.33 0 1,1 0,-0.33A0.33,0.33 0 0,1 0.33,0Z" style="opacity: 1; stroke-width: 1px; fill: rgb(255, 255, 255); fill-opacity: 1; stroke: rgb(255, 255, 255); stroke-opacity: 1;"/><path class="point" transform="translate(246.3,157.06)" d="M1.52,0A1.52,1.52 0 1,1 0,-1.52A1.52,1.52 0 0,1 1.52,0Z" style="opacity: 1; stroke-width: 1px; fill: rgb(253, 253, 255); fill-opacity: 1; stroke: rgb(255, 255, 255); stroke-opacity: 1;"/><path class="point" transform="translate(246.3,137.41)" d="M3.68,0A3.68,3.68 0 1,1 0,-3.68A3.68,3.68 0 0,1 3.68,0Z" style="opacity: 1; stroke-width: 1px; fill: rgb(255, 243, 255); fill-opacity: 1; stroke: rgb(255, 255, 255); stroke-opacity: 1;"/><path class="point" transform="translate(246.3,117.77)" d="M0.82,0A0.82,0.82 0 1,1 0,-0.82A0.82,0.82 0 0,1 0.82,0Z" style="opacity: 1; stroke-width: 1px; fill: rgb(255, 254, 255); fill-opacity: 1; stroke: rgb(255, 255, 255); stroke-opacity: 1;"/><path class="point" transform="translate(246.3,98.12)" d="M3.02,0A3.02,3.02 0 1,1 0,-3.02A3.02,3.02 0 0,1 3.02,0Z" style="opacity: 1; stroke-width: 1px; fill: rgb(255, 247, 255); fill-opacity: 1; stroke: rgb(255, 255, 255); stroke-opacity: 1;"/><path class="point" transform="translate(246.3,78.48)" d="M3.84,0A3.84,3.84 0 1,1 0,-3.84A3.84,3.84 0 0,1 3.84,0Z" style="opacity: 1; stroke-width: 1px; fill: rgb(242, 242, 255); fill-opacity: 1; stroke: rgb(255, 255, 255); stroke-opacity: 1;"/><path class="point" transform="translate(246.3,58.83)" d="M4.05,0A4.05,4.05 0 1,1 0,-4.05A4.05,4.05 0 0,1 4.05,0Z" style="opacity: 1; stroke-width: 1px; fill: rgb(241, 241, 255); fill-opacity: 1; stroke: rgb(255, 255, 255); stroke-opacity: 1;"/><path class="point" transform="translate(246.3,39.19)" d="M6.57,0A6.57,6.57 0 1,1 0,-6.57A6.57,6.57 0 0,1 6.57,0Z" style="opacity: 1; stroke-width: 1px; fill: rgb(255, 218, 255); fill-opacity: 1; stroke: rgb(255, 255, 255); stroke-opacity: 1;"/><path class="point" transform="translate(246.3,19.55)" d="M0,0A0,0 0 1,1 0,-0A0,0 0 0,1 0,0Z" style="opacity: 1; stroke-width: 1px; fill: rgb(255, 255, 255); fill-opacity: 1; stroke: rgb(255, 255, 255); stroke-opacity: 1;"/></g><g class="text"/></g></g></g><g class="overplot"/><path class="xlines-above crisp" d="M0,0" style="fill: none;"/><path class="ylines-above crisp" d="M0,0" style="fill: none;"/><g class="overlines-above"/><g class="xaxislayer-above"><g class="xtick"><text text-anchor="start" x="0" y="273" transform="translate(172.16,0) rotate(30,0,269)" style="font-family: 'Open Sans', verdana, arial, sans-serif; font-size: 8px; fill: rgb(42, 63, 95); fill-opacity: 1; white-space: pre;">SF36_physical_functioning</text></g><g class="xtick"><text text-anchor="start" x="0" y="273" transform="translate(193.88,0) rotate(30,0,269)" style="font-family: 'Open Sans', verdana, arial, sans-serif; font-size: 8px; fill: rgb(42, 63, 95); fill-opacity: 1; white-space: pre;">SF36_role_limitations_physical</text></g><g class="xtick"><text text-anchor="start" x="0" y="273" transform="translate(215.59,0) rotate(30,0,269)" style="font-family: 'Open Sans', verdana, arial, sans-serif; font-size: 8px; fill: rgb(42, 63, 95); fill-opacity: 1; white-space: pre;">SF36_role_limitations_emotional</text></g><g class="xtick"><text text-anchor="start" x="0" y="273" transform="translate(237.3,0) rotate(30,0,269)" style="font-family: 'Open Sans', verdana, arial, sans-serif; font-size: 8px; fill: rgb(42, 63, 95); fill-opacity: 1; white-space: pre;">SF36_energy_fatigue</text></g><g class="xtick"><text text-anchor="start" x="0" y="273" transform="translate(259.02,0) rotate(30,0,269)" style="font-family: 'Open Sans', verdana, arial, sans-serif; font-size: 8px; fill: rgb(42, 63, 95); fill-opacity: 1; white-space: pre;">SF36_pain</text></g><g class="xtick"><text text-anchor="start" x="0" y="273" transform="translate(280.73,0) rotate(30,0,269)" style="font-family: 'Open Sans', verdana, arial, sans-serif; font-size: 8px; fill: rgb(42, 63, 95); fill-opacity: 1; white-space: pre;">GAD2</text></g><g class="xtick"><text text-anchor="start" x="0" y="273" transform="translate(302.45,0) rotate(30,0,269)" style="font-family: 'Open Sans', verdana, arial, sans-serif; font-size: 8px; fill: rgb(42, 63, 95); fill-opacity: 1; white-space: pre;">PHQ2</text></g><g class="xtick"><text text-anchor="start" x="0" y="273" transform="translate(324.15999999999997,0) rotate(30,0,269)" style="font-family: 'Open Sans', verdana, arial, sans-serif; font-size: 8px; fill: rgb(42, 63, 95); fill-opacity: 1; white-space: pre;">subj_memory</text></g><g class="xtick"><text text-anchor="start" x="0" y="273" transform="translate(345.88,0) rotate(30,0,269)" style="font-family: 'Open Sans', verdana, arial, sans-serif; font-size: 8px; fill: rgb(42, 63, 95); fill-opacity: 1; white-space: pre;">subj_baseline</text></g><g class="xtick"><text text-anchor="start" x="0" y="273" transform="translate(367.59000000000003,0) rotate(30,0,269)" style="font-family: 'Open Sans', verdana, arial, sans-serif; font-size: 8px; fill: rgb(42, 63, 95); fill-opacity: 1; white-space: pre;">WHO_COVID_severity</text></g><g class="xtick"><text text-anchor="start" x="0" y="273" transform="translate(389.3,0) rotate(30,0,269)" style="font-family: 'Open Sans', verdana, arial, sans-serif; font-size: 8px; fill: rgb(42, 63, 95); fill-opacity: 1; white-space: pre;">days_since_+test</text></g></g><g class="yaxislayer-above"><g class="ytick"><text text-anchor="end" x="142" y="2.8" transform="translate(0,235.99)" style="font-family: 'Open Sans', verdana, arial, sans-serif; font-size: 8px; fill: rgb(42, 63, 95); fill-opacity: 1; white-space: pre;">SF36_physical_functioning</text></g><g class="ytick"><text text-anchor="end" x="142" y="2.8" transform="translate(0,216.34)" style="font-family: 'Open Sans', verdana, arial, sans-serif; font-size: 8px; fill: rgb(42, 63, 95); fill-opacity: 1; white-space: pre;">SF36_role_limitations_physical</text></g><g class="ytick"><text text-anchor="end" x="142" y="2.8" transform="translate(0,196.7)" style="font-family: 'Open Sans', verdana, arial, sans-serif; font-size: 8px; fill: rgb(42, 63, 95); fill-opacity: 1; white-space: pre;">SF36_role_limitations_emotional</text></g><g class="ytick"><text text-anchor="end" x="142" y="2.8" transform="translate(0,177.06)" style="font-family: 'Open Sans', verdana, arial, sans-serif; font-size: 8px; fill: rgb(42, 63, 95); fill-opacity: 1; white-space: pre;">SF36_energy_fatigue</text></g><g class="ytick"><text text-anchor="end" x="142" y="2.8" transform="translate(0,157.41)" style="font-family: 'Open Sans', verdana, arial, sans-serif; font-size: 8px; fill: rgb(42, 63, 95); fill-opacity: 1; white-space: pre;">SF36_pain</text></g><g class="ytick"><text text-anchor="end" x="142" y="2.8" transform="translate(0,137.76999999999998)" style="font-family: 'Open Sans', verdana, arial, sans-serif; font-size: 8px; fill: rgb(42, 63, 95); fill-opacity: 1; white-space: pre;">GAD2</text></g><g class="ytick"><text text-anchor="end" x="142" y="2.8" transform="translate(0,118.12)" style="font-family: 'Open Sans', verdana, arial, sans-serif; font-size: 8px; fill: rgb(42, 63, 95); fill-opacity: 1; white-space: pre;">PHQ2</text></g><g class="ytick"><text text-anchor="end" x="142" y="2.8" transform="translate(0,98.48)" style="font-family: 'Open Sans', verdana, arial, sans-serif; font-size: 8px; fill: rgb(42, 63, 95); fill-opacity: 1; white-space: pre;">subj_memory</text></g><g class="ytick"><text text-anchor="end" x="142" y="2.8" transform="translate(0,78.83)" style="font-family: 'Open Sans', verdana, arial, sans-serif; font-size: 8px; fill: rgb(42, 63, 95); fill-opacity: 1; white-space: pre;">subj_baseline</text></g><g class="ytick"><text text-anchor="end" x="142" y="2.8" transform="translate(0,59.19)" style="font-family: 'Open Sans', verdana, arial, sans-serif; font-size: 8px; fill: rgb(42, 63, 95); fill-opacity: 1; white-space: pre;">WHO_COVID_severity</text></g><g class="ytick"><text text-anchor="end" x="142" y="2.8" transform="translate(0,39.55)" style="font-family: 'Open Sans', verdana, arial, sans-serif; font-size: 8px; fill: rgb(42, 63, 95); fill-opacity: 1; white-space: pre;">days_since_+test</text></g></g><g class="overaxes-above"/></g></g><g class="polarlayer"/><g class="ternarylayer"/><g class="geolayer"/><g class="funnelarealayer"/><g class="pielayer"/><g class="treemaplayer"/><g class="sunburstlayer"/><g class="glimages"/><defs id="topdefs-9a6360"><g class="clips"/></defs><g class="layer-above"><g class="imagelayer"/><g class="shapelayer"/></g><g class="infolayer"><g class="cbcoloraxis colorbar" transform="translate(143,20)"><rect class="cbbg" x="272" y="0" width="49.94921875" height="244" style="fill: rgb(0, 0, 0); fill-opacity: 0; stroke: rgb(68, 68, 68); stroke-opacity: 1; stroke-width: 0;"/><g class="cbfills" transform="translate(0,10)"><rect class="cbfill" x="282" width="10" y="0" height="224" style="stroke: none; fill: url('#g9a6360-cbcoloraxis');"/></g><g class="cblines" transform="translate(0,10)"/><g class="cbaxis crisp" transform="translate(0,-20)"><g class="ycbcoloraxistick"><text text-anchor="start" x="294.1" y="2.8" transform="translate(0,254)" style="font-family: 'Open Sans', verdana, arial, sans-serif; font-size: 8px; fill: rgb(42, 63, 95); fill-opacity: 1; white-space: pre;">−1</text></g><g class="ycbcoloraxistick"><text text-anchor="start" x="294.1" y="2.8" transform="translate(0,142)" style="font-family: 'Open Sans', verdana, arial, sans-serif; font-size: 8px; fill: rgb(42, 63, 95); fill-opacity: 1; white-space: pre;">0</text></g><g class="ycbcoloraxistick"><text text-anchor="start" x="294.1" y="2.8" transform="translate(0,30.00000000000001)" style="font-family: 'Open Sans', verdana, arial, sans-serif; font-size: 8px; fill: rgb(42, 63, 95); fill-opacity: 1; white-space: pre;">1</text></g></g><g class="cbtitleunshift" transform="translate(-143,-20)"><g class="cbtitle"><text class="hycbcoloraxistitle" transform="rotate(-90,453.34000000000003,142)" x="453.34000000000003" y="142" text-anchor="middle" style="font-family: 'Open Sans', verdana, arial, sans-serif; font-size: 8px; fill: rgb(42, 63, 95); opacity: 1; font-weight: normal; white-space: pre;">correlation (r)</text></g></g><rect class="cboutline" x="282" y="10" width="10" height="224" style="stroke: rgb(68, 68, 68); stroke-opacity: 1; fill: none; stroke-width: 0;"/></g><g class="g-gtitle"/><g class="g-xtitle"/><g class="g-ytitle"/></g></svg>